<svg xmlns="http://www.w3.org/2000/svg" width="1920" height="437" viewBox="0 0 1920 437">
    <defs>
        <clipPath id="clip-path">
            <path id="사각형_9211" data-name="사각형 9211" transform="translate(0 2862)" style="fill:#f2f2f2" d="M0 0h1920v437H0z"/>
        </clipPath>
        <style>
            .cls-3,.cls-4{opacity:.05}
        </style>
    </defs>
    <g id="마스크_그룹_7" data-name="마스크 그룹 7" transform="translate(0 -2862)" style="clip-path:url(#clip-path)">
        <g id="그룹_24787" data-name="그룹 24787" class="cls-3" transform="rotate(25 -7052.134 1555.638)">
            <path id="패스_38512" data-name="패스 38512" d="M47.019-76.368c-.269.433-.529.868-.8 1.3.269-.432.531-.867.8-1.3z" transform="translate(64.896 99.649)"/>
            <path id="패스_38513" data-name="패스 38513" d="M45.267-74.237a9.603 9.603 0 0 1-.178.255z" transform="translate(63.314 102.642)"/>
            <path id="패스_38514" data-name="패스 38514" d="M47.159-75.951c.476-.8.942-1.613 1.409-2.426-.459.81-.933 1.618-1.409 2.426z" transform="translate(66.221 96.828)"/>
            <path id="패스_38515" data-name="패스 38515" d="m47.124-76.215.159-.262c-.377.613-.753 1.226-1.142 1.834.06-.091.123-.18.18-.272.279-.432.534-.867.803-1.3z" transform="translate(64.791 99.496)"/>
            <path id="패스_38516" data-name="패스 38516" d="m47.124-76.215.159-.262c-.377.613-.753 1.226-1.142 1.834.06-.091.123-.18.18-.272.279-.432.534-.867.803-1.3z" transform="translate(64.791 99.496)"/>
            <path id="패스_38517" data-name="패스 38517" d="m47.124-76.215.159-.262c-.377.613-.753 1.226-1.142 1.834.06-.091.123-.18.18-.272.279-.432.534-.867.803-1.3z" transform="translate(64.791 99.496)"/>
            <path id="패스_38518" data-name="패스 38518" d="m47.139-24.513.048-.077c.476-.808.95-1.616 1.409-2.426l.132-.236c16.563-29.471 19.789-61.1 14.4-87.7 5.555 27.425 1.946 60.199-15.989 90.439z" transform="translate(66.193 45.467)"/>
            <path id="패스_38519" data-name="패스 38519" d="m47.139-24.513.048-.077c.476-.808.95-1.616 1.409-2.426l.132-.236c16.563-29.471 19.789-61.1 14.4-87.7 5.555 27.425 1.946 60.199-15.989 90.439z" transform="translate(66.193 45.467)"/>
            <path id="패스_38520" data-name="패스 38520" d="m47.139-24.513.048-.077c.476-.808.95-1.616 1.409-2.426l.132-.236c16.563-29.471 19.789-61.1 14.4-87.7 5.555 27.425 1.946 60.199-15.989 90.439z" transform="translate(66.193 45.467)"/>
            <path id="패스_38521" data-name="패스 38521" d="M16.941-47.206h-.021Q9.6-44.5 1.737-42.095l-.024.017q7.901-2.409 15.228-5.128z" transform="translate(2.405 140.598)"/>
            <path id="패스_38522" data-name="패스 38522" d="M16.941-47.206h-.021Q9.6-44.5 1.737-42.095l-.024.017q7.901-2.409 15.228-5.128z" transform="translate(2.405 140.598)"/>
            <path id="패스_38523" data-name="패스 38523" d="M16.941-47.206h-.021Q9.6-44.5 1.737-42.095l-.024.017q7.901-2.409 15.228-5.128z" transform="translate(2.405 140.598)"/>
            <path id="패스_38524" data-name="패스 38524" d="m45.3-74.192.05-.077c-.091.135-.185.269-.279.4l.05-.07.179-.253z" transform="translate(63.284 102.597)"/>
            <path id="패스_38525" data-name="패스 38525" d="m45.3-74.192.05-.077c-.091.135-.185.269-.279.4l.05-.07.179-.253z" transform="translate(63.284 102.597)"/>
            <path id="패스_38526" data-name="패스 38526" d="m45.3-74.192.05-.077c-.091.135-.185.269-.279.4l.05-.07.179-.253z" transform="translate(63.284 102.597)"/>
            <path id="패스_38527" data-name="패스 38527" d="M45.184-72.24q1.183-1.727 2.3-3.474a116.013 116.013 0 0 1-2.3 3.474z" transform="translate(63.447 100.568)"/>
            <path id="패스_38528" data-name="패스 38528" d="M46.616-75.271z" transform="translate(65.458 98.29)"/>
            <path id="패스_38529" data-name="패스 38529" d="M8.566-47.16c-.829.038-1.649.089-2.484.123a4.283 4.283 0 0 0 2.484-.123z" transform="translate(8.54 140.663)"/>
            <path id="패스_38530" data-name="패스 38530" d="M114.921 18.216c9.754-17.13 17.2-36.729 27.97-52.077 9.266-13.2 21.018-22.155 33.923-24.621 7.828-1.493 18.407 5.609 21.763 12.841C218.393-2.956 145.807 86.4 19.347 93.392Q12.011 96.1 4.118 98.521l.024-.017-.024.01A9.773 9.773 0 0 1 0 99.956c270.778-7.919 259.8-203.975 195.428-240.53-10.771-6.114-24.261-9.468-35.844-4-19.1 9.021-28.973 33.779-32.478 52.957q-.768 4.2-1.471 8.386a112.955 112.955 0 0 1 3.688 13.742q.512 2.535.921 5.133-.408-2.6-.921-5.133a112.916 112.916 0 0 0-3.688-13.74c-4.989 29.444-8.357 57.9-23.157 84.337C88.2 26.606 66.365 46.465 44.663 65.874 37.251 72.5 29.483 78.657 21.53 84.627 18.128 87.18 10.081 95.181 4.142 98.5q7.88-2.4 15.183-5.111c42.843-15.815 71.417-39.047 89.027-64.663a118.639 118.639 0 0 0 2.579-3.874c.389-.608.765-1.221 1.142-1.834.423-.685.844-1.37 1.257-2.065M14.622 93.626c.834-.034 1.654-.084 2.484-.123a4.283 4.283 0 0 1-2.484.123z"/>
            <path id="패스_38531" data-name="패스 38531" d="M47.695-75.827c-.058.091-.12.18-.18.272q-1.114 1.745-2.3 3.474l-.05.077c.866-1.27 1.717-2.542 2.53-3.823z" transform="translate(63.418 100.409)"/>
            <path id="패스_38532" data-name="패스 38532" d="m47.877-78.475-.132.236z" transform="translate(67.043 96.691)"/>
            <path id="패스_38533" data-name="패스 38533" d="m48.014-77.368-.048.077c-.409.69-.832 1.378-1.257 2.065l-.159.262c.495-.8.988-1.601 1.464-2.404z" transform="translate(65.365 98.245)"/>
            <path id="패스_38534" data-name="패스 38534" d="M41.117-133.558c-8.239-.279-17.231 1.911-22.373 8.715-8.482 11.22-6.652 28.872-2.8 41.263q.847 2.719 1.724 5.4A82.2 82.2 0 0 1 40.5-37.22a82.247 82.247 0 0 0-22.83-40.958c6.152 18.909 12.954 36.727 12.394 56.9-.543 19.443-7.287 37.9-14.093 56.054-2.325 6.2-5 12.225-7.85 18.2a110.517 110.517 0 0 1-5.978 13.572C4.8 63.925 7.261 61.3 9.627 58.674l.014-.01a149.471 149.471 0 0 0 17.931-24.21l.01-.017a121.046 121.046 0 0 0 1.976-3.505c.094-.168.195-.337.284-.5a120.2 120.2 0 0 0 1.611-3.116c.147-.291.308-.584.452-.875.471-.959.909-1.914 1.349-2.871.168-.365.351-.731.514-1.1.4-.887.757-1.77 1.125-2.652.18-.43.375-.863.548-1.293.325-.805.615-1.606.916-2.407.188-.5.392-1.012.572-1.517.272-.757.512-1.507.762-2.262.178-.541.373-1.084.543-1.625.231-.736.433-1.467.644-2.2.159-.553.334-1.108.483-1.659.2-.726.365-1.447.543-2.171.137-.548.286-1.1.411-1.649.163-.719.3-1.433.447-2.147C40.877.343 41-.2 41.1-.748c.135-.726.245-1.447.363-2.169.079-.5.176-1 .25-1.493l.029-.2c-.007.046-.017.094-.022.139.171-1.173.274-2.327.4-3.488-.118 1.116-.214 2.221-.377 3.349 2.553-15.94-.685-34.041 1.375-49.769 1.387-10.651 5.556-19.561 12.4-25 4.157-3.3 12.588-2.375 16.8.849 24.819 19.032 7.03 94.12-62.682 137.2-2.371 2.63-4.832 5.263-7.5 7.891a6.493 6.493 0 0 1-1.972 2.122c157.247-88.328 90.213-200.568 40.953-202.241zM41.509-32.1zM6.826 60.417c.539-.32 1.046-.659 1.577-.983a3.132 3.132 0 0 1-1.577.983zm35.556-70.679c.1-1.217.137-2.416.19-3.618-.053 1.205-.089 2.402-.19 3.618zm.291-5.65c.024-1.277-.012-2.532-.041-3.789.029 1.258.068 2.513.041 3.79zm-.06-5.532c-.058-1.363-.176-2.7-.293-4.041.117 1.339.235 2.678.293 4.042zm-.993-9.843a90.57 90.57 0 0 1 0 .001z" transform="translate(.23 19.31)"/>
            <path id="패스_38535" data-name="패스 38535" d="M4.512-53.3c-.531.325-1.039.664-1.577.983a3.132 3.132 0 0 0 1.577-.983z" transform="translate(4.121 132.043)"/>
        </g>
        <g id="그룹_24788" data-name="그룹 24788" class="cls-3" transform="rotate(173 875.932 1615.137)">
            <path id="패스_38512-2" data-name="패스 38512" d="M.411.665C.273.444.14.221 0 0c.139.219.273.444.411.665z" transform="translate(56.821 38.545)"/>
            <path id="패스_38513-2" data-name="패스 38513" d="M.091.13A6.027 6.027 0 0 0 0 0z" transform="translate(55.435 36.46)"/>
            <path id="패스_38514-2" data-name="패스 38514" d="M0 0c.243.411.482.825.72 1.241C.486.826.243.413 0 0z" transform="translate(57.98 40.439)"/>
            <path id="패스_38515-2" data-name="패스 38515" d="m.5.8.084.138C.391.625.2.311 0 0c.031.047.063.092.092.139C.232.36.365.583.5.8z" transform="translate(56.728 38.406)"/>
            <path id="패스_38516-2" data-name="패스 38516" d="m.5.8.084.138C.391.625.2.311 0 0c.031.047.063.092.092.139C.232.36.365.583.5.8z" transform="translate(56.728 38.406)"/>
            <path id="패스_38517-2" data-name="패스 38517" d="m.5.8.084.138C.391.625.2.311 0 0c.031.047.063.092.092.139C.232.36.365.583.5.8z" transform="translate(56.728 38.406)"/>
            <path id="패스_38518-2" data-name="패스 38518" d="m0 0 .025.039C.268.452.51.866.745 1.28l.068.12a65.388 65.388 0 0 1 7.364 44.85A65.494 65.494 0 0 0 0 0z" transform="translate(57.955 40.4)"/>
            <path id="패스_38519-2" data-name="패스 38519" d="m0 0 .025.039C.268.452.51.866.745 1.28l.068.12a65.388 65.388 0 0 1 7.364 44.85A65.494 65.494 0 0 0 0 0z" transform="translate(57.955 40.4)"/>
            <path id="패스_38520-2" data-name="패스 38520" d="m0 0 .025.039C.268.452.51.866.745 1.28l.068.12a65.388 65.388 0 0 1 7.364 44.85A65.494 65.494 0 0 0 0 0z" transform="translate(57.955 40.4)"/>
            <path id="패스_38521-2" data-name="패스 38521" d="M7.787 2.622h-.011Q4.034 1.241.012.009L0 0q4.041 1.232 7.787 2.622z" transform="translate(2.106 .734)"/>
            <path id="패스_38522-2" data-name="패스 38522" d="M7.787 2.622h-.011Q4.034 1.241.012.009L0 0q4.041 1.232 7.787 2.622z" transform="translate(2.106 .734)"/>
            <path id="패스_38523-2" data-name="패스 38523" d="M7.787 2.622h-.011Q4.034 1.241.012.009L0 0q4.041 1.232 7.787 2.622z" transform="translate(2.106 .734)"/>
            <path id="패스_38524-2" data-name="패스 38524" d="m.117.166.026.039C.1.136.048.068 0 0l.026.036.091.13z" transform="translate(55.409 36.424)"/>
            <path id="패스_38525-2" data-name="패스 38525" d="m.117.166.026.039C.1.136.048.068 0 0l.026.036.091.13z" transform="translate(55.409 36.424)"/>
            <path id="패스_38526-2" data-name="패스 38526" d="m.117.166.026.039C.1.136.048.068 0 0l.026.036.091.13z" transform="translate(55.409 36.424)"/>
            <path id="패스_38527-2" data-name="패스 38527" d="M0 0q.6.883 1.177 1.777A64.308 64.308 0 0 0 0 0z" transform="translate(55.552 36.629)"/>
            <path id="패스_38528-2" data-name="패스 38528" d="M0 0c.218.352.434.7.643 1.056A68.94 68.94 0 0 0 0 0z" transform="translate(57.312 39.344)"/>
            <path id="패스_38529-2" data-name="패스 38529" d="M1.27.132C.846.112.427.086 0 .069a2.19 2.19 0 0 1 1.27.063z" transform="translate(7.478 3.168)"/>
            <path id="패스_38530-2" data-name="패스 38530" d="M58.768 41.8c4.988 8.76 8.8 18.782 14.3 26.631 4.742 6.752 10.752 11.33 17.351 12.592 4 .764 9.413-2.868 11.129-6.567 10.134-21.829-26.985-67.522-91.655-71.1Q6.142 1.971 2.106.734l.012.009h-.012A5 5 0 0 0 0 0c138.47 4.05 132.859 104.309 99.938 123-5.508 3.127-12.406 4.842-18.33 2.045-9.769-4.611-14.816-17.272-16.608-27.079q-.393-2.15-.752-4.288a57.763 57.763 0 0 0 1.886-7.028q.262-1.3.471-2.625-.208 1.328-.471 2.625a57.743 57.743 0 0 1-1.886 7.026C61.7 78.619 59.973 64.068 52.4 50.548 45.105 37.51 33.938 27.354 22.84 17.429c-3.79-3.388-7.763-6.537-11.83-9.59-1.74-1.306-5.855-5.4-8.891-7.1q4.03 1.226 7.764 2.614C31.791 11.444 46.4 23.324 55.409 36.424c.048.068.1.136.143.205.4.582.792 1.175 1.177 1.777.2.311.391.625.584.938.216.35.432.7.643 1.056M7.478 3.237c.427.017.846.043 1.27.063a2.19 2.19 0 0 0-1.27-.063z"/>
            <path id="패스_38531-2" data-name="패스 38531" d="m1.295 1.955-.092-.139Q.633.923.026.039L0 0c.444.649.879 1.3 1.295 1.955z" transform="translate(55.526 36.59)"/>
            <path id="패스_38532-2" data-name="패스 38532" d="M.068.12 0 0z" transform="translate(58.701 41.68)"/>
            <path id="패스_38533-2" data-name="패스 38533" d="M.749 1.229.724 1.19A56.233 56.233 0 0 0 .081.134L0 0c.253.409.505.819.749 1.229z" transform="translate(57.231 39.21)"/>
            <path id="패스_38535-2" data-name="패스 38535" d="M.807.5C.535.337.275.164 0 0a1.6 1.6 0 0 1 .807.5z" transform="translate(3.608 10.345)"/>
        </g>
        <circle id="타원_1728" data-name="타원 1728" class="cls-4" cx="14" cy="14" r="14" transform="translate(1774 2986)"/>
        <circle id="타원_1729" data-name="타원 1729" class="cls-4" cx="6" cy="6" r="6" transform="translate(1744 2986)"/>
    </g>
</svg>
