<svg xmlns="http://www.w3.org/2000/svg" width="260" height="158.715" viewBox="0 0 260 158.715">
    <path data-name="패스 37878" d="m-26.341 3.512-14.31.061.182-3.82a10.494 10.494 0 0 1 .606-1.7.9.9 0 0 0 .061-.424h1.273c8.489-.12 15.829-1.636 15.829-8.548 0-4.062-2.486-6.367-6.185-7.519h9.823c.97-2.971-4.123-5.639-8.125-6.306l-2.91 3.577h-9.641l.061-1.395c.3-1.213.97-1.637 1.031-2.547.061-.728-.667-1.576-2.062-2a46.261 46.261 0 0 0-6.063-.91c-2.243-.182-4.669-.243-6.67-.243.121 2.85.243 4.851.3 7.094h-8.913l-11.52-.485.97 3.638 8.246-.364c-3.577 1.213-5.942 3.456-5.942 7.458 0 6.912 7.943 8.428 16.31 8.549h1.152l.182 5.942h-11.46l-11.52-.485.728 3.881 8.428-.366 48.931-.121c.546-.788-.121-2.062-1.516-3.092a11.762 11.762 0 0 0-5.275-2.179zm-46.2 16.614c0 7.519 7.337 9.4 15.7 9.4h20.555c8.489 0 15.825-1.88 15.825-9.4 0-7.7-7.337-9.4-15.825-9.4H-56.84c-8.367.001-15.704 1.699-15.704 9.4zm23.586 6.306c-5.093 0-10.793-1.213-10.793-6.306 0-5.275 5.7-6.367 10.793-6.367h4.729c5.336 0 11.035 1.091 11.035 6.367 0 5.093-5.7 6.306-11.035 6.306zm1.635-31.773c-5.7-.061-10.793-1.213-10.793-5.7 0-4.669 5.093-6.063 10.793-6.124h1.455c5.942.061 11.035 1.455 11.035 6.124 0 4.487-5.093 5.639-11.035 5.7zm27.212 77.051c0 8.307 7.276 10.732 19.948 10.732h12.43c12.672 0 19.948-2.425 19.948-10.732 0-8.489-7.276-10.853-19.948-10.853H-.16c-12.672 0-19.948 2.364-19.948 10.853zm-1.819-13.885a64.558 64.558 0 0 0 17.1-14.613A36.823 36.823 0 0 1 3.3 53.823a3.384 3.384 0 0 0 2.668 2.243 5.7 5.7 0 0 0 5.154-1.455c1.576-1.7 2.183-5.4.3-7.276-2.91-2.91-8.974-5.457-14.188-6.973a44.615 44.615 0 0 0 4.426-8.186c.667-1.031 1.152-1.88.97-2.668-.182-.91-.97-2-3.4-2.668a40.7 40.7 0 0 0-9.883-1.273l-.485 5.7c-2.425 9.338-5.518 16.189-12.551 25.042a.907.907 0 0 0 .243 1.213c.546.424.973.606 1.519.303zm40.867-1.7c0 1.273 1.213 1.819 3.517 1.819 3.153 0 8.731-.606 8.731-4.608L30.945 41.7l.3-10.308c.3-1.213.97-1.819 1.031-2.729.061-.728-.91-1.576-2.062-1.94a41.118 41.118 0 0 0-11.338-1.455v10.426l-6.063.121-6.791-.061 1.091 4 7.458-.546 4.366-.121zM11.845 79.35H.264a7.7 7.7 0 0 1-7.764-7.7c0-3.941 2.729-7.519 7.761-7.761h11.584c5.033.243 7.761 3.82 7.761 7.761a7.7 7.7 0 0 1-7.761 7.7z" transform="translate(151.714 76.273)" style="fill:#ff6e1a"/>
    <path data-name="패스 38536" d="M26.9-24.007c.38 0 .539-.158.539-.6v-9.034c0-.444-.158-.571-.539-.571h-22c-.38 0-.571.127-.571.571v9.034c0 .444.19.6.571.6zm-.666-9.1v7.988H5.537V-33.1zM2.842-19.949c-.222 0-.412.127-.412.571s.19.571.412.571h12.394v5.674c0 .444.222.571.6.571s.6-.127.6-.571v-5.674h12.558c.222 0 .412-.127.412-.571s-.19-.571-.412-.571zM6.107-7.872v-6.435c0-.38-.222-.539-.6-.539-.444 0-.6.158-.6.539v6.974c0 .444.158.6.507.6h21.9c.254 0 .444-.158.444-.571 0-.38-.19-.571-.444-.571zm44.981-23.362c.19 0 .444-.1.444-.571 0-.412-.254-.571-.444-.571h-7.766v-3.2c0-.412-.159-.507-.571-.507s-.571.1-.571.507v3.2h-7.8c-.19 0-.444.159-.444.571 0 .475.254.571.444.571zm5.833 8.434v-11.38c0-.444-.222-.571-.6-.571s-.6.127-.6.571V-7.3c0 .444.222.571.6.571.412 0 .6-.127.6-.571v-14.36h3.519c.38 0 .507-.222.507-.571s-.127-.571-.507-.571zM43.29-9.013v-6.5h1.743c5.008 0 5.579-4.374 5.579-6.752 0-2.409-.571-6.5-5.579-6.5H40.5c-5.04 0-5.611 4.089-5.611 6.5 0 2.377.571 6.752 5.611 6.752h1.585v6.5h-8.907c-.19 0-.444.127-.444.571s.254.571.444.571h19.654c.19 0 .444-.127.444-.571s-.254-.571-.444-.571zm-7.2-13.25c0-1.839.063-5.357 4.438-5.357h4.406c4.343 0 4.47 3.519 4.47 5.357 0 1.807-.127 5.611-4.47 5.611h-4.402c-4.374 0-4.438-3.804-4.438-5.611zm51.262-.537v-11.38c0-.444-.222-.571-.6-.571s-.6.127-.6.571V-7.3c0 .444.222.571.6.571.412 0 .6-.127.6-.571v-14.36h3.519c.38 0 .507-.222.507-.571s-.127-.571-.507-.571zm-14.487 5.165c4.343 0 7.766-2.06 7.766-6.53v-3.8c0-4.438-3.424-6.5-7.766-6.5s-7.7 2.06-7.7 6.5v3.8c-.002 4.465 3.358 6.53 7.7 6.53zm-6.5-10.3c0-3.614 2.726-5.389 6.5-5.389s6.562 1.775 6.562 5.389v3.74c0 3.645-2.79 5.421-6.562 5.421s-6.5-1.775-6.5-5.421zm7.356 18.922v-6.372c0-.38-.19-.539-.6-.539s-.6.158-.6.539v6.372h-8.912c-.19 0-.444.127-.444.571s.254.571.444.571h19.654c.19 0 .444-.127.444-.571s-.254-.571-.444-.571zm56.745-18.893v-8.559c0-.444-.222-.571-.6-.571s-.6.127-.6.571v20.383c0 .444.222.571.6.571.412 0 .6-.127.6-.571v-10.682h3.392c.38 0 .507-.222.507-.571s-.127-.571-.507-.571zm-6.91-7.069-.444 9.446c0 .317.127.507.539.539.38.032.6-.127.6-.412l.507-9.732c.032-.666-.19-.983-.761-.983h-15.878c-.222 0-.412.159-.412.571s.19.571.412.571h15.437zm4.121 13.631c0-.444-.254-.571-.444-.571h-11.507V-28c0-.38-.19-.539-.6-.539s-.6.158-.6.539v6.086h-8.083c-.19 0-.444.127-.444.571s.254.571.444.571h20.795c.185-.001.439-.128.439-.572zm-17.593 11.19v-6.308a.527.527 0 0 0-.6-.571c-.444 0-.6.19-.6.571v6.879c0 .444.158.571.507.571h21.492c.254 0 .412-.158.412-.571 0-.38-.159-.571-.412-.571zM160.9-30.061v-6.4c0-.444-.222-.571-.6-.571s-.6.127-.6.571v15.5c0 .444.222.571.6.571.412 0 .6-.127.6-.571v-7.959h3.392c.38 0 .507-.222.507-.571s-.127-.571-.507-.571zm-6.91-4.913-.412 8.749c0 .317.127.507.539.539.38.032.6-.127.6-.412l.475-9.034c.032-.666-.19-.983-.761-.983H138.55c-.222 0-.412.159-.412.571s.19.571.412.571zm4.121 12.109c0-.444-.254-.571-.444-.571h-11.509v-5.357c0-.38-.19-.539-.6-.539s-.6.158-.6.539v5.357h-8.088c-.19 0-.444.127-.444.571s.254.571.444.571h20.795c.19-.001.443-.128.443-.571zm-13.821 4.184c-3.392 0-5.167 2.092-5.167 4.913s1.87 4.945 5.167 4.945h12.077c3.392 0 5.1-2.124 5.1-4.945s-1.712-4.913-5.1-4.913zm.127 8.717c-2.5 0-4.089-1.553-4.089-3.8 0-2.282 1.458-3.772 4.089-3.772h11.824c2.6 0 4.026 1.49 4.026 3.772 0 2.251-1.426 3.8-4.026 3.8zm47.137.951c.412 0 .6-.127.6-.571v-26.88c0-.444-.222-.571-.6-.571s-.6.127-.6.571v26.88c-.006.444.216.571.597.571zm-15.184-9.573c4.533 0 8.273-2.187 8.273-7.006v-3.867c0-4.787-3.741-6.974-8.273-6.974s-8.21 2.187-8.21 6.974v3.867c-.003 4.819 3.674 7.006 8.207 7.006zm0-1.141c-3.962 0-7.006-1.9-7.006-5.9v-3.8c0-3.962 3.043-5.864 7.006-5.864s7.069 1.9 7.069 5.864v3.8c-.003 3.998-3.11 5.9-7.072 5.9zm11.38 9.573c.19 0 .444-.127.444-.571s-.254-.571-.444-.571h-20.925c-.19 0-.444.127-.444.571s.254.571.444.571zm43.33-11.222c.222 0 .444-.158.444-.571 0-.444-.222-.571-.444-.571h-21.588v-12.457h21.3c.19 0 .412-.158.412-.571 0-.475-.222-.571-.412-.571h-21.934c-.349 0-.571.127-.571.571v13.567c0 .444.222.6.571.6zM220.555-11.01v-7.83c0-.38-.19-.539-.6-.539s-.6.158-.6.539v7.83h-12.62c-.222 0-.412.127-.412.571s.19.571.412.571h26.405c.222 0 .412-.127.412-.571s-.19-.571-.412-.571zm41.272-26.025c-.38 0-.6.127-.6.571v26.88c0 .444.222.571.6.571.412 0 .6-.127.6-.571v-26.88c.003-.444-.219-.571-.599-.571zm-15.311.951c0-.412-.159-.539-.6-.539-.475 0-.6.127-.6.539v16.579l-8.816 8.622a.5.5 0 0 0 .1.792.5.5 0 0 0 .7.063l8.622-8.4 8.654 8.4a.5.5 0 0 0 .7-.063.5.5 0 0 0 .1-.792l-8.844-8.622z" transform="translate(-2.43 37.035)" style="fill:#fff"/>
    <g data-name="타원 1730" transform="translate(202.17 146.035)" style="stroke:#ff6e1a;stroke-width:4px;fill:none">
        <circle cx="6.34" cy="6.34" r="6.34" style="stroke:none"/>
        <circle cx="6.34" cy="6.34" r="4.34" style="fill:none"/>
    </g>
</svg>
