<svg xmlns="http://www.w3.org/2000/svg" width="169.901" height="36.868" viewBox="0 0 169.901 36.868">
    <defs>
        <style>
            .cls-1{fill:#333}
        </style>
    </defs>
    <g id="그룹_25300" data-name="그룹 25300" transform="translate(-212.798 -1289.324)">
        <path id="패스_39492" data-name="패스 39492" class="cls-1" d="m3.359-31.859.148 5.419v5.9c0 1.076.223 1.559.817 1.856a6.175 6.175 0 0 0 3.044.371c1.782-.111 3.155-.52 3.712-1.262h15.367c.148.742.965 1.188 2.858 1.076 2.635-.148 4.751-.742 4.677-2.673l-.111-3.928.074-3.9a1.691 1.691 0 0 0 .594-1c0-.371-.26-.668-.742-.891a31.69 31.69 0 0 0-6.31-1.782L26.3-30.6H11.525c-2.004-1.111-6.57-1.408-8.166-1.259zM11.043-6.1c.483-.928.631-1.448.445-1.745a2.237 2.237 0 0 0-1.3-.854 22.013 22.013 0 0 0-7.164-.817l.223 5.456L3.174.619C3.1 1.881 3.4 2.141 3.916 2.4a7.586 7.586 0 0 0 3.378.037 7.318 7.318 0 0 0 3.712-1.225H35.5c.52-1.151-2-3.786-4.343-3.972L29.194-.606H11.043zm19.6-9.094-22.791.037L.8-15.453l.594 2.376 5.157-.223h9.131l-.074 7.461c0 1.336 1.114 1.6 2.673 1.485 3.229-.223 5.2-.779 5.159-3.378l-.111-5.6 13.251-.037c.705-1-1.856-2.969-4.194-3.229zM11.34-27.925l.037-.928h15.07v7.535H11.34z" transform="translate(212 1323)"/>
        <path id="패스_39493" data-name="패스 39493" class="cls-1" d="M2.407-15.9c0 4.823 4.512 7.351 10.774 7.351s10.773-2.524 10.773-7.351v-1.05c0-4.862-4.2-7.351-10.774-7.351-6.262 0-10.774 2.489-10.774 7.351zM27.182 2.462c0 .972.778 1.595 2.411 1.4 3.695-.428 5.251-1.478 5.212-3.773L34.572-14.5h5.134a.589.589 0 0 0 .583-.895 7.108 7.108 0 0 0-3.073-2.995l-2.139 1.99h-.506l.156-12.174c.194-.778.622-1.167.661-1.75.039-.467-.583-1.05-1.322-1.245A24.832 24.832 0 0 0 27.1-32.5c.354 11.315.315 24.227.082 34.962zM25.9-1.155l-8.673.506.039-2.956c.194-.778.622-1.167.661-1.75.039-.506-.583-1.128-1.322-1.283a41.025 41.025 0 0 0-7.584-.622L9.41-.22l-1.05.078H.656L1.4 2.384l5.834-.467L26.637.984zm-5.719-26.214-3.189.039.117-2.1c.194-.778.622-1.05.661-1.634.039-.467-.583-1.05-1.322-1.245a33.891 33.891 0 0 0-7.662-.661c.117 2.1.194 3.812.233 5.678H7.074L.462-27.6l.622 2.45 4.628-.233 20.188-.081c.389-1.361-1.711-3.384-4.045-3.889zM9.913-16.751c0-3.306 1.089-5.134 3.267-5.134s3.267 1.828 3.267 5.134v.661c0 3.267-1.089 5.173-3.267 5.173s-3.267-1.906-3.267-5.173z" transform="translate(254.336 1322.294)"/>
        <path id="패스_39494" data-name="패스 39494" class="cls-1" d="M2.347 2.2c5.2-5.2 9.021-10.085 11.779-16.664A45.426 45.426 0 0 1 17.631-1.5 2.5 2.5 0 0 0 19.168.86a4.605 4.605 0 0 0 4.569-.749 4.7 4.7 0 0 0 1.064-5c-1.851-3.663-5.909-8.627-9.651-12.172a67.921 67.921 0 0 0 2.639-9.927c.315-.67.63-1.1.551-1.615-.079-.591-.67-1.261-2.167-1.654a31.152 31.152 0 0 0-6.973-.909l.118 3.7C7.665-13.518 5.38-6.073 1.087 1.333c-.158.236-.079.473.2.709.313.275.745.472 1.06.158zm32.814-17.649h-.315v-.591L35-28.487c.2-.788.63-1.182.67-1.773.039-.473-.591-1.064-1.339-1.261a25.15 25.15 0 0 0-7.051-.945c.357 11.466.32 24.541.081 35.414 0 .985.788 1.615 2.442 1.418 3.742-.433 5.318-1.5 5.279-3.821l-.236-14.063h5a.6.6 0 0 0 .591-.906 7.2 7.2 0 0 0-3.112-3.033z" transform="translate(299.792 1321.79)"/>
        <path id="패스_39491" data-name="패스 39491" class="cls-1" d="M1.974-22c0 6.023 4.527 8.7 10.864 8.7 6.18 0 10.628-2.519 10.864-8.227l2.4-.118 2.755-.079v7.951c0 .866.787 1.22 2.441 1.1 3.346-.236 5.9-1.181 5.865-3.621L37.008-22l.2-6.495c.2-.787.63-1.181.669-1.771.039-.472-.59-1.063-1.338-1.26a29.716 29.716 0 0 0-7.676-.945V-24l-3.228.079h-1.972c-.393-5.435-4.527-7.879-10.825-7.879-6.338 0-10.864 2.68-10.864 8.742zM29.017-7.746v1.811H12.6v-.905l.2-2.952c-1.771-1.181-6.771-1.5-8.463-1.338l.236 6.259v7.242c0 1.535 1.023 2.165 3.74 2.008a6.008 6.008 0 0 0 3.817-1.418h16.887v.276c.118.827.984 1.181 3.11 1.023 2.874-.236 4.96-.827 4.881-2.874l-.118-5 .118-4.369c.157-.472.512-.787.59-1.22a1.158 1.158 0 0 0-.866-1.22 25.463 25.463 0 0 0-7.833-.945zM12.6-3.809h16.417V.836H12.6zM9.768-22.861c0-4.763.748-6.495 3.07-6.495s3.07 1.732 3.07 6.495v.669c0 4.724-.748 6.495-3.07 6.495s-3.07-1.771-3.07-6.495z" transform="translate(344.824 1321.79)"/>
    </g>
</svg>
