<svg xmlns="http://www.w3.org/2000/svg" width="295.466" height="190.365" viewBox="0 0 295.466 190.365">
    <path data-name="패스 37878" d="m-19.617 7.846-16.261.069.207-4.341a11.926 11.926 0 0 1 .689-1.929 1.022 1.022 0 0 0 .069-.482h1.447C-23.82 1.024-15.482-.7-15.482-8.553c0-4.617-2.825-7.235-7.028-8.544h11.163c1.1-3.376-4.686-6.408-9.233-7.166l-3.309 4.063h-10.956l.069-1.585c.345-1.378 1.1-1.86 1.171-2.894.069-.827-.758-1.792-2.343-2.274a52.571 52.571 0 0 0-6.89-1.034c-2.549-.207-5.306-.276-7.579-.276.138 3.239.276 5.512.345 8.062H-60.2l-13.092-.551 1.1 4.134 9.371-.413c-4.065 1.378-6.753 3.928-6.753 8.475 0 7.855 9.026 9.578 18.535 9.716h1.309l.207 6.753h-13.021l-13.092-.551.827 4.41 9.578-.413 55.606-.138c.62-.9-.138-2.343-1.723-3.514a13.367 13.367 0 0 0-5.995-2.481zm-52.505 18.88c0 8.544 8.337 10.68 17.846 10.68h23.359c9.647 0 17.984-2.136 17.984-10.68 0-8.751-8.337-10.68-17.984-10.68h-23.359c-9.508 0-17.846 1.929-17.846 10.68zm26.8 7.166c-5.788 0-12.265-1.378-12.265-7.166 0-5.995 6.477-7.235 12.265-7.235h5.375c6.064 0 12.541 1.24 12.541 7.235 0 5.788-6.477 7.166-12.541 7.166zm1.86-36.106c-6.477-.069-12.265-1.378-12.265-6.477 0-5.306 5.788-6.89 12.265-6.959h1.662c6.753.069 12.541 1.654 12.541 6.959 0 5.1-5.788 6.408-12.541 6.477zm30.924 87.561c0 9.44 8.269 12.2 22.67 12.2h14.129c14.4 0 22.67-2.756 22.67-12.2 0-9.647-8.269-12.334-22.67-12.334H10.136c-14.402 0-22.67 2.687-22.67 12.334zM-14.6 69.568A73.365 73.365 0 0 0 4.83 52.962a41.846 41.846 0 0 1 9.233 12.058 3.846 3.846 0 0 0 3.032 2.549 6.475 6.475 0 0 0 5.857-1.654c1.792-1.929 2.481-6.132.345-8.269-3.307-3.307-10.2-6.2-16.124-7.924a50.7 50.7 0 0 0 5.03-9.3c.758-1.171 1.309-2.136 1.1-3.032-.207-1.034-1.1-2.274-3.859-3.032a46.247 46.247 0 0 0-11.229-1.447l-.551 6.477C-5.092 50-8.606 57.785-16.6 67.845a1.03 1.03 0 0 0 .276 1.378c.624.483 1.103.689 1.724.345zm46.44-1.93c0 1.447 1.378 2.067 4 2.067 3.583 0 9.922-.689 9.922-5.237l-.276-13.23.345-11.714c.345-1.378 1.1-2.067 1.171-3.1.069-.827-1.034-1.792-2.343-2.2a46.726 46.726 0 0 0-12.885-1.654v11.848l-6.89.138-7.717-.069 1.24 4.548 8.475-.62 4.961-.138zm-8.062 26.39h-13.16C4.9 93.753 1.8 89.55 1.8 85.278c0-4.479 3.1-8.544 8.82-8.82h13.159c5.719.276 8.82 4.341 8.82 8.82.001 4.272-3.099 8.475-8.82 8.751z" transform="translate(162.092 92.822)" style="fill:#ff6e1a"/>
    <path data-name="패스 38536" d="M30.24-22.229c.432 0 .612-.18.612-.684v-10.268c0-.5-.18-.648-.612-.648h-25c-.432 0-.648.144-.648.648v10.267c0 .5.216.684.648.684zm-.756-10.339v9.078H5.96v-9.078zM2.9-17.619c-.252 0-.468.144-.468.648s.216.648.468.648h14.083v6.448c0 .5.252.648.684.648s.684-.144.684-.648v-6.448h14.266c.252 0 .468-.144.468-.648s-.216-.648-.468-.648zM6.609-3.894v-7.313c0-.432-.252-.612-.684-.612-.5 0-.684.18-.684.612v7.925c0 .5.18.684.576.684h24.891c.288 0 .5-.18.5-.648 0-.432-.216-.648-.5-.648zm51.117-26.549c.216 0 .5-.108.5-.648 0-.468-.288-.648-.5-.648H48.9v-3.638c0-.468-.18-.576-.648-.576s-.648.108-.648.576v3.638h-8.863c-.216 0-.5.18-.5.648 0 .54.288.648.5.648zm6.628 9.582v-12.932c0-.5-.252-.648-.684-.648s-.684.144-.684.648v30.548c0 .5.252.648.684.648.468 0 .684-.144.684-.648v-16.319h4c.432 0 .576-.252.576-.648s-.144-.648-.576-.648zm-15.49 15.67v-7.385h1.981c5.692 0 6.34-4.971 6.34-7.673 0-2.738-.648-7.385-6.34-7.385h-5.151c-5.728 0-6.376 4.647-6.376 7.385 0 2.7.648 7.673 6.376 7.673h1.8v7.385H37.372c-.216 0-.5.144-.5.648s.288.648.5.648h22.335c.216 0 .5-.144.5-.648s-.288-.648-.5-.648zm-8.177-15.057c0-2.089.072-6.088 5.043-6.088h5.007c4.935 0 5.079 4 5.079 6.088 0 2.053-.144 6.376-5.079 6.376H45.73c-4.971 0-5.043-4.323-5.043-6.376zm58.249-.612v-12.933c0-.5-.252-.648-.684-.648s-.684.144-.684.648v30.548c0 .5.252.648.684.648.468 0 .684-.144.684-.648v-16.319h4c.432 0 .576-.252.576-.648s-.144-.648-.576-.648zm-16.463 5.871c4.935 0 8.826-2.342 8.826-7.421v-4.323c0-5.043-3.89-7.385-8.826-7.385s-8.754 2.342-8.754 7.385v4.323c.001 5.08 3.819 7.421 8.754 7.421zM75.089-26.7c0-4.107 3.1-6.124 7.385-6.124S89.93-30.8 89.93-26.7v4.251c0 4.143-3.17 6.16-7.457 6.16s-7.385-2.017-7.385-6.16zm8.357 21.509v-7.241c0-.432-.216-.612-.684-.612s-.684.18-.684.612v7.241H71.955c-.216 0-.5.144-.5.648s.288.648.5.648h22.334c.216 0 .5-.144.5-.648s-.288-.648-.5-.648zm64.486-21.47v-9.726c0-.5-.252-.648-.684-.648s-.684.144-.684.648v23.163c0 .5.252.648.684.648.468 0 .684-.144.684-.648v-12.14h3.854c.432 0 .576-.252.576-.648s-.144-.648-.576-.648zm-7.853-8.033-.5 10.735c0 .36.144.576.612.612.432.036.684-.144.684-.468l.576-11.059c.036-.756-.216-1.117-.865-1.117h-18.051c-.252 0-.468.18-.468.648s.216.648.468.648h17.543zm4.683 15.49c0-.5-.288-.648-.5-.648h-13.081v-6.916c0-.432-.216-.612-.684-.612s-.684.18-.684.612v6.916h-9.186c-.216 0-.5.144-.5.648s.288.648.5.648h23.631c.216.001.504-.144.504-.644zM124.769-6.487v-7.169a.6.6 0 0 0-.684-.648c-.5 0-.684.216-.684.648v7.817c0 .5.18.648.576.648H148.4c.288 0 .468-.18.468-.648 0-.432-.18-.648-.468-.648zm57.745-22.623v-7.277c0-.5-.252-.648-.684-.648s-.684.144-.684.648v17.615c0 .5.252.648.684.648.468 0 .684-.144.684-.648v-9.042h3.854c.432 0 .576-.252.576-.648s-.144-.648-.576-.648zm-7.853-5.584-.468 9.942c0 .36.144.576.612.612.432.036.684-.144.684-.468l.54-10.267c.036-.756-.216-1.117-.865-1.117h-18.046c-.252 0-.468.18-.468.648s.216.648.468.648zm4.683 13.761c0-.5-.288-.648-.5-.648h-13.081v-6.088c0-.432-.216-.612-.684-.612s-.684.18-.684.612v6.088h-9.186c-.216 0-.5.144-.5.648s.288.648.5.648h23.631c.216.001.504-.143.504-.648zm-15.706 4.755c-3.854 0-5.872 2.378-5.872 5.584s2.125 5.62 5.872 5.62h13.725c3.854 0 5.8-2.414 5.8-5.62s-1.945-5.584-5.8-5.584zm.144 9.906c-2.846 0-4.647-1.765-4.647-4.323 0-2.594 1.657-4.287 4.647-4.287h13.437c2.954 0 4.575 1.693 4.575 4.287 0 2.558-1.621 4.323-4.575 4.323zm53.566 1.081c.468 0 .684-.144.684-.648v-30.548c0-.5-.252-.648-.684-.648s-.684.144-.684.648v30.548c0 .504.252.648.684.648zM200.093-16.07c5.151 0 9.4-2.486 9.4-7.961v-4.395c0-5.439-4.251-7.925-9.4-7.925s-9.33 2.486-9.33 7.925v4.395c0 5.476 4.179 7.961 9.33 7.961zm0-1.3c-4.5 0-7.961-2.161-7.961-6.7v-4.323c0-4.5 3.458-6.664 7.961-6.664s8.033 2.161 8.033 6.664v4.323c0 4.542-3.526 6.704-8.033 6.704zm12.933 10.883c.216 0 .5-.144.5-.648s-.288-.648-.5-.648H189.25c-.216 0-.5.144-.5.648s.288.648.5.648zm49.243-12.753c.252 0 .5-.18.5-.648 0-.5-.252-.648-.5-.648h-24.532v-14.158h24.208c.216 0 .468-.18.468-.648 0-.54-.252-.648-.468-.648h-24.928c-.4 0-.648.144-.648.648v15.418c0 .5.252.684.648.684zm-11.96 11.78v-8.9c0-.432-.216-.612-.684-.612s-.684.18-.684.612v8.9H234.6c-.252 0-.468.144-.468.648s.216.648.468.648h30.007c.252 0 .468-.144.468-.648s-.216-.648-.468-.648zm46.9-29.575c-.432 0-.684.144-.684.648v30.548c0 .5.252.648.684.648.468 0 .684-.144.684-.648v-30.548c.007-.504-.249-.648-.681-.648zm-17.4 1.081c0-.468-.18-.612-.684-.612-.54 0-.684.144-.684.612v18.84l-10.014 9.8a.562.562 0 0 0 .108.9.573.573 0 0 0 .793.072l9.8-9.546 9.834 9.546a.573.573 0 0 0 .793-.072.562.562 0 0 0 .108-.9l-10.05-9.8z" transform="translate(-2.43 37.035)" style="fill:#fff"/>
    <g data-name="타원 1730" transform="translate(229.748 175.956)" style="stroke:#ff6e1a;stroke-width:4px;fill:none">
        <circle cx="7.205" cy="7.205" r="7.205" style="stroke:none"/>
        <circle cx="7.205" cy="7.205" r="5.205" style="fill:none"/>
    </g>
</svg>
