<svg xmlns="http://www.w3.org/2000/svg" width="64.176" height="176.179" viewBox="0 0 64.176 176.179">
    <defs>
        <style>
            .cls-1{fill:#333}
        </style>
    </defs>
    <g id="그룹_25128" data-name="그룹 25128" transform="translate(-212.798 -1289.324)">
        <path id="패스_39492" data-name="패스 39492" class="cls-1" d="m3.366-31.857.149 5.434v5.923c0 1.079.223 1.563.819 1.861a6.192 6.192 0 0 0 3.052.372c1.787-.112 3.164-.521 3.722-1.265h15.409c.149.744.968 1.191 2.866 1.079 2.643-.149 4.764-.744 4.69-2.68l-.112-3.945.074-3.908a1.7 1.7 0 0 0 .6-1c0-.372-.261-.67-.744-.893a31.777 31.777 0 0 0-6.328-1.787l-1.191 2.084H11.555c-2.01-1.126-6.588-1.424-8.189-1.275zm7.7 25.831c.484-.931.633-1.452.447-1.749a2.243 2.243 0 0 0-1.3-.856 22.074 22.074 0 0 0-7.182-.819l.223 5.471L3.18.711c-.074 1.265.22 1.526.745 1.789a7.607 7.607 0 0 0 3.387.037 7.338 7.338 0 0 0 3.722-1.228H35.6c.521-1.154-2.01-3.8-4.355-3.983L29.272-.517h-18.2zm19.652-9.119-22.848.037-7.07-.298.6 2.382 5.174-.223h9.156l-.074 7.481c0 1.34 1.117 1.6 2.68 1.489 3.231-.223 5.204-.781 5.164-3.387l-.112-5.62 13.288-.037c.707-1-1.861-2.978-4.206-3.238zM11.369-27.912l.037-.931h15.111v7.556H11.369z" transform="translate(212 1322)"/>
        <path id="패스_39493" data-name="패스 39493" class="cls-1" d="M2.216-17.569c0 4.35 4.07 6.631 9.718 6.631s9.718-2.28 9.718-6.631v-.947c0-4.385-3.789-6.631-9.718-6.631-5.648 0-9.718 2.245-9.718 6.631zM24.564-1.01c0 .877.7 1.438 2.175 1.263 3.333-.386 4.736-1.333 4.7-3.4l-.21-13.156h4.631a.532.532 0 0 0 .526-.807 6.411 6.411 0 0 0-2.772-2.7l-1.93 1.789h-.456l.14-10.981c.175-.7.561-1.052.6-1.579.035-.421-.526-.947-1.193-1.123a22.4 22.4 0 0 0-6.28-.842c.314 10.206.279 21.853.069 31.536zm-1.158-3.263-7.823.456.035-2.666c.175-.7.561-1.052.6-1.579.035-.456-.526-1.017-1.193-1.158a37 37 0 0 0-6.845-.561l.351 6.35-.947.07H.637L1.3-1.08l5.266-.42 17.506-.842zm-5.157-23.645-2.877.035.105-1.894c.175-.7.561-.947.6-1.473.035-.421-.526-.947-1.193-1.123a30.57 30.57 0 0 0-6.911-.6c.105 1.894.175 3.438.21 5.122H6.426l-5.964-.278.561 2.21 4.175-.21 18.208-.07c.351-1.228-1.544-3.052-3.649-3.508zm-9.262 9.577c0-2.982.982-4.631 2.947-4.631s2.947 1.649 2.947 4.631v.6c0 2.947-.982 4.666-2.947 4.666S8.987-14.8 8.987-17.744z" transform="translate(237 1368)"/>
        <path id="패스_39494" data-name="패스 39494" class="cls-1" d="M2.228-.887c4.737-4.737 8.218-9.187 10.73-15.179A41.382 41.382 0 0 1 16.151-4.26a2.274 2.274 0 0 0 1.4 2.153 4.2 4.2 0 0 0 4.163-.682 4.283 4.283 0 0 0 .969-4.557 47.259 47.259 0 0 0-8.792-11.089 61.875 61.875 0 0 0 2.4-9.043c.287-.61.574-1 .5-1.471-.072-.538-.61-1.148-1.974-1.507a28.378 28.378 0 0 0-6.352-.825l.108 3.373C7.072-15.205 4.991-8.423 1.08-1.676c-.144.215-.072.431.179.646.287.251.682.43.969.143zM32.12-16.964h-.287v-.536l.144-11.34c.179-.718.574-1.077.61-1.615.036-.431-.538-.969-1.22-1.148a22.911 22.911 0 0 0-6.423-.861c.323 10.443.287 22.357.072 32.261 0 .9.718 1.471 2.225 1.292C30.65.694 32.086-.275 32.05-2.392l-.215-12.811h4.557a.544.544 0 0 0 .538-.825 6.558 6.558 0 0 0-2.835-2.763z" transform="translate(212 1415)"/>
        <path id="패스_39491" data-name="패스 39491" class="cls-1" d="M1.974-21.967c0 6.039 4.539 8.723 10.894 8.723 6.2 0 10.657-2.526 10.894-8.25l2.408-.118 2.763-.079v7.973c0 .868.789 1.224 2.447 1.105 3.355-.237 5.921-1.184 5.881-3.631l-.161-5.723.2-6.513c.2-.789.632-1.184.671-1.776.039-.474-.592-1.066-1.342-1.263a29.8 29.8 0 0 0-7.7-.947v8.486l-3.229.08h-1.977c-.395-5.447-4.539-7.894-10.855-7.894-6.355 0-10.894 2.684-10.894 8.763zM29.091-7.678v1.816h-16.46v-.908l.2-2.96c-1.776-1.184-6.789-1.5-8.486-1.342L4.579-4.8v7.267c0 1.539 1.026 2.171 3.75 2.013a6.025 6.025 0 0 0 3.829-1.421h16.933v.276c.118.829.987 1.184 3.118 1.026 2.881-.237 4.973-.829 4.895-2.881l-.118-5.013.114-4.382c.158-.474.513-.789.592-1.224a1.161 1.161 0 0 0-.868-1.224 25.533 25.533 0 0 0-7.855-.947zm-16.46 3.947h16.46V.927h-16.46zm-2.842-19.1c0-4.776.75-6.513 3.079-6.513s3.079 1.737 3.079 6.513v.671c0 4.737-.75 6.513-3.079 6.513s-3.079-1.776-3.079-6.513z" transform="translate(239 1461)"/>
    </g>
</svg>
