<svg xmlns="http://www.w3.org/2000/svg" width="54" height="54" viewBox="0 0 54 54">
    <defs>
        <style>
            .cls-2{fill:none}
        </style>
    </defs>
    <g id="그룹_34596" data-name="그룹 34596" transform="translate(-1021 -706)">
        <g id="사각형_9629" data-name="사각형 9629" transform="translate(1021 706)" style="stroke:#cecece;fill:none">
            <rect width="54" height="54" rx="6" style="stroke:none"/>
            <rect class="cls-2" x=".5" y=".5" width="53" height="53" rx="5.5"/>
        </g>
        <g id="그룹_34583" data-name="그룹 34583" transform="translate(1036 721)">
            <path id="패스_39715" data-name="패스 39715" class="cls-2" d="M0 0h24v24H0z"/>
            <path id="패스_39716" data-name="패스 39716" d="m13.12 17.023-4.2-2.29a4 4 0 1 1-.189-5.654q.1.091.189.189l4.2-2.29a4 4 0 1 1 .959 1.755l-4.2 2.29a4.013 4.013 0 0 1 0 1.954l4.2 2.29a4 4 0 1 1-.959 1.755zM6 14a2 2 0 1 0-2-2 2 2 0 0 0 2 2zm11-6a2 2 0 1 0-2-2 2 2 0 0 0 2 2zm0 12a2 2 0 1 0-2-2 2 2 0 0 0 2 2z" style="fill:#ff8d1a"/>
        </g>
    </g>
</svg>
