<svg xmlns="http://www.w3.org/2000/svg" width="24" height="21" viewBox="0 0 24 21">
    <g data-name="그룹 34633">
        <path data-name="패스 39723" d="m-45.2-58.271-6.875 11.864a3.188 3.188 0 0 0 2.771 4.782h13.752a3.188 3.188 0 0 0 2.771-4.782l-6.875-11.864a3.207 3.207 0 0 0-5.544 0z" transform="translate(52.511 59.865)" style="fill:#0f367f"/>
        <path data-name="패스 39724" d="M4.713 1.048.279 8.854A2.1 2.1 0 0 0 2.066 12h8.868a2.1 2.1 0 0 0 1.787-3.146L8.287 1.048a2.047 2.047 0 0 0-3.574 0z" transform="rotate(180 12 10.5)" style="fill:#fcb400"/>
    </g>
</svg>
