<svg xmlns="http://www.w3.org/2000/svg" width="30" height="30" viewBox="0 0 30 30">
    <g data-name="그룹 34585">
        <g data-name="home-5-line (2)">
            <path data-name="패스 22487" d="M0 0h30v30H0z" style="fill:none"/>
            <path data-name="패스 22488" d="M16.25 23.75h7.5V12.473L15 5.667l-8.75 6.8V23.75h7.5v-7.5h2.5zm10 1.25A1.25 1.25 0 0 1 25 26.25H5A1.25 1.25 0 0 1 3.75 25V11.867a1.25 1.25 0 0 1 .482-.988l10-7.777a1.25 1.25 0 0 1 1.535 0l10 7.777a1.25 1.25 0 0 1 .483.988V25z"/>
        </g>
    </g>
</svg>
