<svg xmlns="http://www.w3.org/2000/svg" width="16" height="16" viewBox="0 0 16 16">
    <defs>
        <clipPath id="a">
            <path data-name="Path 39725" d="M-579.552-7391.789a2.492 2.492 0 0 1-1.768-.732 2.5 2.5 0 0 1 0-3.535l3.232-3.232-3.232-3.232a2.5 2.5 0 0 1 0-3.535 2.5 2.5 0 0 1 3.536 0l6.768 6.768-6.768 6.768a2.492 2.492 0 0 1-1.768.73z" transform="rotate(90 -4249.67 -2830.619)" style="fill:#fff"/>
        </clipPath>
    </defs>
    <g data-name="그룹 34634">
        <path data-name="사각형 9649" transform="rotate(-90 8 8)" style="fill:none" d="M0 0h16v16H0z"/>
        <g data-name="마스크 그룹 1" style="clip-path:url(#a)" transform="rotate(-90 -253.5 580.5)">
            <path data-name="사각형 9650" transform="translate(311 834)" style="fill:red" d="M0 0h8v16H0z"/>
            <path data-name="사각형 9651" transform="translate(319 834)" style="fill:#0e3848" d="M0 0h8v16H0z"/>
        </g>
    </g>
</svg>
