<svg xmlns="http://www.w3.org/2000/svg" xmlns:xlink="http://www.w3.org/1999/xlink" width="179.897" height="197.76" viewBox="0 0 179.897 197.76">
    <defs>
        <linearGradient id="linear-gradient" x1="-39.303" y1="-1.983" x2="-35.019" y2="-1.983" gradientUnits="objectBoundingBox">
            <stop offset="0" stop-color="#454545"/>
            <stop offset="1" stop-color="#b8b8b8"/>
        </linearGradient>
        <linearGradient id="linear-gradient-2" x1="-5.587" y1=".5" x2="1.723" y2=".5" gradientUnits="objectBoundingBox">
            <stop offset="0" stop-color="#4b4b4b"/>
            <stop offset="1" stop-color="#b8b8b8"/>
        </linearGradient>
        <linearGradient id="linear-gradient-3" x1="-23.255" y1="-5.392" x2="-21.312" y2="-5.392" gradientUnits="objectBoundingBox">
            <stop offset="0" stop-color="#ccc"/>
            <stop offset=".5" stop-color="#a6a6a6"/>
            <stop offset="1" stop-color="#8f8f8f"/>
        </linearGradient>
        <linearGradient id="linear-gradient-4" x1=".351" y1=".904" x2=".731" y2="-.125" gradientUnits="objectBoundingBox">
            <stop offset=".006"/>
            <stop offset=".287" stop-color="#020202"/>
            <stop offset=".454" stop-color="#0a0a0a"/>
            <stop offset=".591" stop-color="#191919"/>
            <stop offset=".711" stop-color="#2d2d2d"/>
            <stop offset=".821" stop-color="#474747"/>
            <stop offset=".922" stop-color="#666"/>
            <stop offset="1" stop-color="#858585"/>
        </linearGradient>
        <linearGradient id="linear-gradient-5" x1="-25.372" y1="-9.635" x2="-22.492" y2="-9.635" xlink:href="#linear-gradient-3"/>
        <linearGradient id="linear-gradient-6" x1=".498" y1=".544" x2=".527" y2=".029" xlink:href="#linear-gradient-4"/>
        <linearGradient id="linear-gradient-7" x1=".497" y1=".544" x2=".529" y2=".03" xlink:href="#linear-gradient-4"/>
        <linearGradient id="linear-gradient-8" x1=".497" y1=".544" x2=".524" y2=".028" xlink:href="#linear-gradient-4"/>
        <linearGradient id="linear-gradient-9" x1="5.382" y1="-6.667" x2="11.41" y2="-6.667" xlink:href="#linear-gradient-3"/>
        <linearGradient id="linear-gradient-10" x1=".901" y1=".588" x2="-.645" y2=".245" xlink:href="#linear-gradient-4"/>
        <linearGradient id="linear-gradient-11" x1="1.173" y1=".591" x2="-1.45" y2=".237" xlink:href="#linear-gradient-4"/>
        <style>
            .cls-2{fill:#878787}.cls-4{fill:#070203}.cls-8{fill:#fff}
        </style>
    </defs>
    <g id="그룹_25350" data-name="그룹 25350" transform="translate(-18.5 -13.534)">
        <g id="그룹_25342" data-name="그룹 25342" transform="translate(18.5 13.534)" style="opacity:.07">
            <g id="그룹_25335" data-name="그룹 25335" transform="translate(65.199 57.715)">
                <path id="패스_39681" data-name="패스 39681" class="cls-2" d="M728.482 567.784s-94.682 42.3-101.382-50.465c-5.261 24.186 1.786 45.607 13.894 61.5 18.767 10.625 46.617 12.257 87.488-11.035z" transform="translate(-625.339 -517.319)"/>
            </g>
            <path id="패스_39682" data-name="패스 39682" d="m634.165 524.644.075.039c-14.867-19.382-22.213-47.049-8.771-77.951l-.108.09c-13.373 30.847-6.036 58.464 8.804 77.822z" transform="translate(-554.788 -405.533)" style="fill:url(#linear-gradient)"/>
            <path id="패스_39683" data-name="패스 39683" class="cls-4" d="m417.29 391.44.109-.091q.554-1.274 1.158-2.555a109.959 109.959 0 0 1 8.163-14.363 94.885 94.885 0 0 1-35.133 29.083c-11.809 5.394-24.924 7.434-37.451 2.134q-3.867-1.636-7.417-3.549c25.385 15.1 43.564 9.657 43.564 9.657l.011.017c-.053 11.857 6.533 26.925 19.532 41.862a126.111 126.111 0 0 0 12.99 12.87c-31.864-45.439-14.508-67.605-5.526-75.065z" transform="translate(-346.718 -350.152)"/>
            <path id="패스_39684" data-name="패스 39684" d="m605.786 509.583-3.619-5.74c-13.456-29.338-2.926-50.853 4.048-56.726-8.983 7.456-26.338 29.626 5.524 75.065q1.59 1.365 3.215 2.672a78.822 78.822 0 0 1-9.168-15.271z" transform="translate(-535.643 -405.828)" style="fill:url(#linear-gradient-2)"/>
            <path id="패스_39685" data-name="패스 39685" class="cls-2" d="M605.786 509.583c-7.939-17.494-9.722-39.048.428-62.466-8.983 7.456-26.338 29.626 5.524 75.065q1.59 1.365 3.215 2.672a78.822 78.822 0 0 1-9.167-15.271z" transform="translate(-535.643 -405.828)"/>
            <path id="패스_39686" data-name="패스 39686" class="cls-4" d="M713.933 273.576a4.7 4.7 0 0 0-.432.235c-.07.041-.136.086-.2.128l-.2.134c-.262.18-.512.373-.753.573a13.458 13.458 0 0 0-1.348 1.295 14.689 14.689 0 0 0-1.173 1.455 10.602 10.602 0 0 0-.745 1.221 4.908 4.908 0 0 0-.186.4l-.038-.037a3.414 3.414 0 0 0-2.2-.919c.041-.132.075-.263.106-.394.038-.157.068-.314.1-.47q.083-.47.125-.938a14.9 14.9 0 0 0 .05-1.868 13.466 13.466 0 0 0-.185-1.859c-.054-.309-.12-.617-.2-.925l-.065-.23c-.025-.077-.046-.154-.073-.23a4.537 4.537 0 0 0-.176-.459h-.057a4.572 4.572 0 0 0-.139.472c-.021.079-.036.157-.055.235l-.047.235c-.058.314-.1.626-.127.938a13.526 13.526 0 0 0-.036 1.868 14.963 14.963 0 0 0 .2 1.858q.081.463.2.925a8.6 8.6 0 0 0 .133.461c.04.125.084.251.134.376a3.463 3.463 0 0 0-1.237.219 3.392 3.392 0 0 0-1.054.633 8.655 8.655 0 0 0-.42-.663q-.274-.391-.575-.752a14.71 14.71 0 0 0-1.285-1.356 13.411 13.411 0 0 0-1.445-1.184 9.991 9.991 0 0 0-.8-.511l-.209-.117c-.072-.037-.141-.076-.215-.111a4.5 4.5 0 0 0-.449-.2l-.039.041a4.509 4.509 0 0 0 .236.432c.041.07.086.137.128.205l.133.2c.181.262.373.512.573.753a13.467 13.467 0 0 0 1.3 1.346 14.772 14.772 0 0 0 1.454 1.173q.385.271.8.513c.137.08.277.158.42.232.086.044.173.087.262.127a3.371 3.371 0 0 0-1.017 2.239 3.896 3.896 0 0 0-.2-.049c-.157-.038-.313-.068-.47-.1q-.47-.083-.938-.125a14.849 14.849 0 0 0-1.868-.05 13.455 13.455 0 0 0-1.859.185c-.309.054-.617.119-.925.2l-.231.066c-.077.024-.154.046-.23.073a4.451 4.451 0 0 0-.459.176v.057a4.509 4.509 0 0 0 .472.139c.078.021.157.036.235.054l.235.047c.313.058.626.1.938.127a13.551 13.551 0 0 0 1.867.036 14.9 14.9 0 0 0 1.858-.2q.464-.081.925-.2c.154-.041.307-.084.461-.134l.179-.06a3.409 3.409 0 0 0 .926 2.286l-.142.085c-.137.085-.27.174-.4.265q-.391.273-.752.575a14.754 14.754 0 0 0-1.356 1.286 13.423 13.423 0 0 0-1.184 1.445c-.18.256-.352.521-.512.8l-.116.209c-.037.072-.076.141-.112.215a4.754 4.754 0 0 0-.2.45l.042.038a4.418 4.418 0 0 0 .432-.235c.07-.041.136-.085.2-.128l.2-.133c.263-.181.512-.374.754-.573a13.487 13.487 0 0 0 1.345-1.3 14.767 14.767 0 0 0 1.173-1.455q.271-.384.513-.8a8.887 8.887 0 0 0 .301-.559 3.413 3.413 0 0 0 2.294.905q-.025.094-.047.187c-.038.157-.068.314-.1.47q-.083.47-.125.938a14.863 14.863 0 0 0-.05 1.868 13.5 13.5 0 0 0 .185 1.859c.054.309.119.617.2.925l.065.231c.025.077.046.154.073.23a4.7 4.7 0 0 0 .177.46h.057a4.7 4.7 0 0 0 .139-.472c.021-.079.036-.157.055-.235l.047-.235c.058-.313.1-.626.127-.938a13.446 13.446 0 0 0 .036-1.867 14.86 14.86 0 0 0-.2-1.858q-.08-.463-.2-.926a9.985 9.985 0 0 0-.133-.461q-.029-.091-.061-.18h.041a3.375 3.375 0 0 0 2.185-1.03c.047.085.1.167.147.249.084.137.174.27.265.4q.274.391.574.752a14.783 14.783 0 0 0 1.285 1.357 13.493 13.493 0 0 0 1.445 1.183 10 10 0 0 0 .8.512l.209.117c.072.037.141.076.214.111a4.583 4.583 0 0 0 .449.2l.038-.042a4.407 4.407 0 0 0-.235-.432c-.041-.07-.086-.136-.128-.2l-.133-.2a10.44 10.44 0 0 0-.574-.753 13.459 13.459 0 0 0-1.295-1.346 14.808 14.808 0 0 0-1.455-1.173q-.385-.271-.8-.513a8.966 8.966 0 0 0-.681-.358l.065-.076a3.386 3.386 0 0 0 .619-1.165 3.447 3.447 0 0 0 .146-1.051c.128.04.256.073.384.1.157.037.314.069.47.1q.47.083.938.126a14.862 14.862 0 0 0 1.868.05 13.5 13.5 0 0 0 1.859-.185c.309-.054.617-.119.925-.2l.23-.065c.077-.024.153-.046.23-.073a4.53 4.53 0 0 0 .459-.176v-.057a4.583 4.583 0 0 0-.472-.139c-.078-.021-.157-.036-.235-.055l-.235-.047c-.313-.057-.626-.1-.938-.127a13.5 13.5 0 0 0-1.868-.036 14.9 14.9 0 0 0-1.858.2q-.463.08-.924.2a8.613 8.613 0 0 0-.461.134 5.6 5.6 0 0 0-.375.133c0-.036 0-.072-.006-.108a3.42 3.42 0 0 0-.966-2.119c.133-.068.259-.142.383-.219s.27-.174.4-.265q.391-.273.752-.574a14.765 14.765 0 0 0 1.356-1.285 13.464 13.464 0 0 0 1.184-1.445c.18-.256.352-.521.511-.8l.117-.209c.037-.072.077-.141.112-.214a4.664 4.664 0 0 0 .2-.45zm-4.4 6.429a2.937 2.937 0 0 1 .229 1.192 2.884 2.884 0 0 1-.954 2.094 2.861 2.861 0 0 1-.963.579 2.952 2.952 0 0 1-1.075.175 2.917 2.917 0 0 1-2.837-2.658 2.947 2.947 0 0 1 .1-1.085 2.877 2.877 0 0 1 .515-1 2.906 2.906 0 0 1 3.232-.938 2.959 2.959 0 0 1 1.048.634l.049.048v.007l.042.038h.005a2.953 2.953 0 0 1 .607.914z" transform="translate(-614.205 -270.678)"/>
            <g id="그룹_25336" data-name="그룹 25336" transform="translate(88.895 77.23)">
                <path id="패스_39687" data-name="패스 39687" d="M776.039 600.713c-4.56 6.337-8.624 12.628-15.141 17.13-6.285 4.342-13.7 6.49-21.023 8.548-2.5.7-5.034 1.254-7.587 1.738a43.36 43.36 0 0 1-5.686 1.258c32.075 5.178 47.431-13.287 49.437-28.674z" transform="translate(-726.601 -600.713)" style="fill:url(#linear-gradient-3);mix-blend-mode:multiply;isolation:isolate"/>
                <path id="패스_39688" data-name="패스 39688" class="cls-2" d="M776.039 600.713c-4.56 6.337-8.624 12.628-15.141 17.13-6.285 4.342-13.7 6.49-21.023 8.548-2.5.7-5.034 1.254-7.587 1.738a43.36 43.36 0 0 1-5.686 1.258c32.075 5.178 47.431-13.287 49.437-28.674z" transform="translate(-726.601 -600.713)"/>
            </g>
            <g id="그룹_25337" data-name="그룹 25337" transform="translate(87.761 66.738)">
                <path id="패스_39689" data-name="패스 39689" d="m865.177 704.234.243-.135c-.08.046-.162.09-.243.135z" transform="translate(-831.616 -669.414)" style="fill:url(#linear-gradient-4)"/>
                <path id="패스_39690" data-name="패스 39690" class="cls-4" d="M795.309 560.94c-1.824-2.675-4.6-5.014-7.953-5.064-5.522-.082-10.688 4.594-13.717 8.692q-.665.9-1.311 1.8a33.236 33.236 0 0 1-16.575 24.084c5.181-2.972 9.857-7.711 14.943-10.508 3.693-2.032 7.483-2.782 10.8-1.874 2.009.55 3.674 3.435 3.63 5.517-.26 12.312-26.341 26.01-58.123 12q-2.007-.207-4.108-.543a2.557 2.557 0 0 1-1.133-.133c64.464 29.298 84.45-17.982 73.547-33.971z" transform="translate(-721.757 -555.876)"/>
                <path id="패스_39691" data-name="패스 39691" class="cls-8" d="m866.217 703.741.192-.109z" transform="translate(-832.412 -669.056)"/>
            </g>
            <g id="그룹_25338" data-name="그룹 25338" transform="translate(87.378 71.686)">
                <path id="패스_39692" data-name="패스 39692" d="M741.621 577.02c-.883 5.21-1.478 10.245-4.1 14.924-2.526 4.512-6.39 8.026-10.23 11.46-1.312 1.173-2.686 2.262-4.094 3.318a29.332 29.332 0 0 1-3.081 2.459c21.041-6.411 24.872-22.211 21.505-32.161z" transform="translate(-720.118 -577.02)" style="fill:url(#linear-gradient-5);mix-blend-mode:multiply;isolation:isolate"/>
                <path id="패스_39693" data-name="패스 39693" class="cls-2" d="M741.621 577.02c-.883 5.21-1.478 10.245-4.1 14.924-2.526 4.512-6.39 8.026-10.23 11.46-1.312 1.173-2.686 2.262-4.094 3.318a29.332 29.332 0 0 1-3.081 2.459c21.041-6.411 24.872-22.211 21.505-32.161z" transform="translate(-720.118 -577.02)"/>
            </g>
            <g id="그룹_25339" data-name="그룹 25339" transform="translate(86.65 60.342)">
                <path id="패스_39694" data-name="패스 39694" d="M800.92 657.7z" transform="translate(-781.283 -627.243)" style="fill:url(#linear-gradient-6)"/>
                <path id="패스_39695" data-name="패스 39695" d="M802.71 654.277c.091-.153.181-.308.27-.464-.088.155-.18.309-.27.464z" transform="translate(-782.655 -624.499)" style="fill:url(#linear-gradient-7)"/>
                <path id="패스_39696" data-name="패스 39696" d="m798.948 661.457.046-.066z" transform="translate(-779.773 -630.304)" style="fill:url(#linear-gradient-8)"/>
                <path id="패스_39697" data-name="패스 39697" class="cls-4" d="M751.587 529.739c-1.906-1.082-4.293-1.675-6.343-.707-3.38 1.6-5.127 5.978-5.747 9.371q-.136.745-.26 1.484a22.36 22.36 0 0 1-1.9 17.967c1.73-3.034 3.049-6.509 4.958-9.229a9.9 9.9 0 0 1 6-4.357c1.385-.264 3.257.993 3.851 2.272 3.507 7.552-9.339 23.364-31.718 24.6q-1.3.479-2.692.906a1.731 1.731 0 0 1-.729.257c47.914-1.403 45.972-36.095 34.58-42.564z" transform="translate(-717.005 -528.543)"/>
                <path id="패스_39698" data-name="패스 39698" class="cls-8" d="M799.145 659.337q.214-.313.415-.628-.203.319-.415.628z" transform="translate(-779.924 -628.249)"/>
                <path id="패스_39699" data-name="패스 39699" class="cls-8" d="M801.738 656.171z" transform="translate(-781.91 -626.019)"/>
                <path id="패스_39700" data-name="패스 39700" class="cls-8" d="M803.862 653.8z" transform="translate(-783.537 -624.488)"/>
            </g>
            <g id="그룹_25340" data-name="그룹 25340" transform="translate(87.069 75.997)">
                <path id="패스_39701" data-name="패스 39701" d="M721.545 595.443c1.089 3.346 2.293 6.5 2.193 10.068-.1 3.441-1.289 6.707-2.494 9.919a40.062 40.062 0 0 1-1.389 3.221 19.533 19.533 0 0 1-1.058 2.4c10.428-10.278 7.803-20.78 2.748-25.608z" transform="translate(-718.797 -595.443)" style="fill:url(#linear-gradient-9);mix-blend-mode:multiply;isolation:isolate"/>
                <path id="패스_39702" data-name="패스 39702" class="cls-2" d="M721.545 595.443c1.089 3.346 2.293 6.5 2.193 10.068-.1 3.441-1.289 6.707-2.494 9.919a40.062 40.062 0 0 1-1.389 3.221 19.533 19.533 0 0 1-1.058 2.4c10.428-10.278 7.803-20.78 2.748-25.608z" transform="translate(-718.797 -595.443)"/>
            </g>
            <g id="그룹_25341" data-name="그룹 25341" transform="translate(86.718 66.193)">
                <path id="패스_39703" data-name="패스 39703" d="m748.98 649.207.009-.072-.009.072z" transform="translate(-741.567 -626.767)" style="fill:url(#linear-gradient-10)"/>
                <path id="패스_39704" data-name="패스 39704" d="M749.216 646.208z" transform="translate(-741.747 -624.287)" style="fill:url(#linear-gradient-11)"/>
                <path id="패스_39705" data-name="패스 39705" class="cls-4" d="M724.547 553.551a4.66 4.66 0 0 0-3.959 1.542c-1.5 1.986-1.177 5.109-.495 7.3q.15.481.305.956a14.914 14.914 0 0 1 4.41 11.553c.132-2.431-.212-5.032.089-7.342a6.592 6.592 0 0 1 2.194-4.424 2.779 2.779 0 0 1 2.973.15c4.4 3.368 1.253 16.662-11.088 24.285q-.625.694-1.328 1.388a1.144 1.144 0 0 1-.35.376c27.828-15.626 15.966-35.487 7.249-35.784z" transform="translate(-717.3 -553.547)"/>
                <path id="패스_39706" data-name="패스 39706" class="cls-8" d="M749.317 645.066c.006-.085.012-.17.016-.254l-.016.254z" transform="translate(-741.825 -623.456)"/>
                <path id="패스_39707" data-name="패스 39707" class="cls-8" d="M749.019 647.669q.026-.225.046-.448c-.013.15-.028.3-.046.448z" transform="translate(-741.596 -625.301)"/>
            </g>
            <path id="패스_39708" data-name="패스 39708" class="cls-8" d="M587.153 481.087s-1.9 2.233-4.462 4.836-3.291-1.385 4.462-4.836z" transform="translate(-526.118 -431.85)"/>
        </g>
        <text id="NO_IMAGE" data-name="NO IMAGE" transform="translate(198.397 201.294)" style="font-size:35px;font-family:NotoSansCJKkr-Bold,Noto Sans CJK KR;font-weight:700;letter-spacing:-.025em;opacity:.15"><tspan x="-165.06" y="0">NO IMAGE</tspan></text>
    </g>
</svg>
