<svg width="20" height="20" viewBox="0 0 20 20" fill="none" xmlns="http://www.w3.org/2000/svg">
<path d="M11.6668 11.8767V13.6179C11.1455 13.4336 10.5846 13.3334 10.0002 13.3334C7.23874 13.3334 5.00016 15.572 5.00016 18.3334H3.3335C3.3335 14.6515 6.31826 11.6667 10.0002 11.6667C10.5757 11.6667 11.1342 11.7396 11.6668 11.8767ZM10.0002 10.8334C7.23766 10.8334 5.00016 8.59587 5.00016 5.83337C5.00016 3.07087 7.23766 0.833374 10.0002 0.833374C12.7627 0.833374 15.0002 3.07087 15.0002 5.83337C15.0002 8.59587 12.7627 10.8334 10.0002 10.8334ZM10.0002 9.16671C11.8418 9.16671 13.3335 7.67504 13.3335 5.83337C13.3335 3.99171 11.8418 2.50004 10.0002 2.50004C8.1585 2.50004 6.66683 3.99171 6.66683 5.83337C6.66683 7.67504 8.1585 9.16671 10.0002 9.16671ZM15.0002 14.1667V11.6667H16.6668V14.1667H19.1668V15.8334H16.6668V18.3334H15.0002V15.8334H12.5002V14.1667H15.0002Z" fill="#172D9D"/>
</svg>
