<svg data-name="calendar-todo-line (3)" xmlns="http://www.w3.org/2000/svg" width="18" height="18" viewBox="0 0 18 18">
    <path data-name="패스 18793" d="M0 0h18v18H0z" style="fill:none"/>
    <path data-name="패스 18794" d="M13.25 2.5h3a.75.75 0 0 1 .75.75v12a.75.75 0 0 1-.75.75H2.75a.75.75 0 0 1-.75-.75v-12a.75.75 0 0 1 .75-.75h3V1h1.5v1.5h4.5V1h1.5zM11.75 4h-4.5v1.5h-1.5V4H3.5v3h12V4h-2.25v1.5h-1.5zm3.75 4.5h-12v6h12zM5 10.75h1.5v1.5H5zm3 0h6v1.5H8z" transform="translate(-.5 -.25)" style="fill:#ff6e1a"/>
</svg>
