<svg xmlns="http://www.w3.org/2000/svg" width="40" height="40" viewBox="0 0 40 40">
    <defs>
        <style>
            .cls-1{fill:none}
        </style>
    </defs>
    <g id="인스타" transform="translate(2916 -10012)">
        <circle id="타원_6" data-name="타원 6" class="cls-1" cx="20" cy="20" r="20" transform="translate(-2916 10012)"/>
        <g id="instagram-line" transform="translate(-2911 10017)">
            <path id="패스_167" data-name="패스 167" class="cls-1" d="M0 0h30v30H0z"/>
            <path id="패스_168" data-name="패스 168" d="M14.533 10.773a3.76 3.76 0 1 0 3.76 3.76 3.76 3.76 0 0 0-3.76-3.76zm0-2.507a6.267 6.267 0 1 1-6.267 6.267 6.267 6.267 0 0 1 6.267-6.266zm8.147-.313a1.567 1.567 0 1 1-1.567-1.567 1.567 1.567 0 0 1 1.567 1.567zm-8.147-3.446c-3.1 0-3.607.009-5.05.073A6.809 6.809 0 0 0 7.23 5a3.618 3.618 0 0 0-1.354.881 3.622 3.622 0 0 0-.882 1.349 6.8 6.8 0 0 0-.415 2.253c-.065 1.384-.073 1.867-.073 5.05 0 3.1.009 3.607.073 5.05a6.836 6.836 0 0 0 .415 2.252 3.9 3.9 0 0 0 2.234 2.235 6.823 6.823 0 0 0 2.256.417c1.384.065 1.867.073 5.05.073 3.1 0 3.607-.009 5.05-.073a6.849 6.849 0 0 0 2.252-.415 3.661 3.661 0 0 0 1.354-.88 3.624 3.624 0 0 0 .882-1.354 6.852 6.852 0 0 0 .416-2.256c.065-1.384.073-1.867.073-5.05 0-3.1-.009-3.607-.073-5.05a6.822 6.822 0 0 0-.416-2.253 3.648 3.648 0 0 0-.881-1.354 3.615 3.615 0 0 0-1.354-.882 6.806 6.806 0 0 0-2.253-.415c-1.384-.064-1.869-.071-5.051-.071zm0-2.507c3.405 0 3.83.013 5.166.075a9.233 9.233 0 0 1 3.043.583A6.111 6.111 0 0 1 24.963 4.1a6.151 6.151 0 0 1 1.445 2.221 9.259 9.259 0 0 1 .583 3.043c.059 1.336.075 1.761.075 5.166s-.013 3.83-.075 5.166a9.266 9.266 0 0 1-.583 3.043 6.4 6.4 0 0 1-3.666 3.666 9.259 9.259 0 0 1-3.043.583c-1.336.059-1.761.075-5.166.075s-3.83-.013-5.166-.075a9.266 9.266 0 0 1-3.043-.583 6.4 6.4 0 0 1-3.666-3.666 9.226 9.226 0 0 1-.583-3.039C2.016 18.363 2 17.938 2 14.533s.013-3.83.075-5.166a9.226 9.226 0 0 1 .583-3.043A6.116 6.116 0 0 1 4.1 4.1a6.137 6.137 0 0 1 2.224-1.442 9.226 9.226 0 0 1 3.043-.583C10.7 2.016 11.128 2 14.533 2z" transform="translate(.467 .467)" style="fill:#fff"/>
        </g>
    </g>
</svg>
