<svg xmlns="http://www.w3.org/2000/svg" width="40" height="40" viewBox="0 0 40 40">
    <defs>
        <style>
            .cls-1{fill:none}
        </style>
    </defs>
    <g id="유튜_" data-name="유튜ㅜㅂ" transform="translate(2916 -10012)">
        <circle id="타원_6" data-name="타원 6" class="cls-1" cx="20" cy="20" r="20" transform="translate(-2916 10012)"/>
        <g id="youtube-fill_1_" data-name="youtube-fill (1)" transform="translate(-2911 10017)">
            <path id="패스_21126" data-name="패스 21126" class="cls-1" d="M0 0h30v30H0z"/>
            <path id="패스_21127" data-name="패스 21127" d="M26.573 7.168a39.733 39.733 0 0 1 .575 6.979 39.733 39.733 0 0 1-.575 6.979 3.552 3.552 0 0 1-2.437 2.565c-2.149.6-9.562.6-9.562.6s-7.41 0-9.562-.6a3.551 3.551 0 0 1-2.437-2.565A39.733 39.733 0 0 1 2 14.147a39.733 39.733 0 0 1 .575-6.979A3.552 3.552 0 0 1 5.011 4.6C7.164 4 14.574 4 14.574 4s7.413 0 9.562.6a3.551 3.551 0 0 1 2.437 2.568zM12.059 18.587l7.541-4.44-7.541-4.439z" transform="translate(.426 .853)" style="fill:#fff"/>
        </g>
    </g>
</svg>
