<svg width="138" height="38" viewBox="0 0 138 38" fill="none" xmlns="http://www.w3.org/2000/svg">
<path d="M18.2146 38C8.17172 38 0 29.7616 0 19.6333C0 15.1164 1.57576 10.8122 4.43939 7.5113C7.27778 4.23824 11.2551 2.08997 15.6338 1.4617L15.7273 2.12797C7.00505 3.3769 0.669192 10.7413 0.669192 19.6333C0.669192 29.3892 8.5404 37.3286 18.2146 37.3286C27.8889 37.3286 35.7626 29.3917 35.7626 19.6333C35.7626 10.7666 29.4167 3.40224 20.6742 2.12037L20.7702 1.4541C29.846 2.7841 36.4318 10.4297 36.4318 19.6333C36.4318 29.7616 28.2601 38 18.2146 38Z" fill="white"/>
<path d="M21.4419 27.2078C21.4318 27.1901 20.3359 25.437 18.1692 25.437C16.0025 25.437 14.6667 27.0786 14.6541 27.0938L14.3535 26.8557C14.4116 26.7822 15.7955 25.052 18.1717 25.052C20.548 25.052 21.7248 26.9292 21.7727 27.0077L21.4445 27.2078H21.4419ZM24.9041 24.3198C17.3611 19.9346 11.4621 24.2616 11.4041 24.3072L11.1743 23.9981C11.2349 23.9525 17.3384 19.471 25.096 23.9854L24.9041 24.3198Z" fill="white"/>
<path d="M18.1692 32.4468C11.1641 32.4468 5.46716 26.7418 5.46716 19.7295H5.75504C5.75504 26.5822 11.3232 32.158 18.1692 32.158C25.0151 32.158 30.5859 26.5822 30.5859 19.7295H30.8737C30.8737 26.7418 25.1742 32.4468 18.1692 32.4468Z" fill="white"/>
<path d="M18.1742 28.0514C13.5859 28.0514 9.85101 24.3173 9.85101 19.7269C9.85101 15.1365 13.5859 11.415 18.1742 11.415C22.7626 11.415 26.5 15.1441 26.5 19.7269C26.5 24.3097 22.7652 28.0514 18.1742 28.0514ZM18.1742 11.8026C13.7955 11.8026 10.2349 15.3594 10.2349 19.7294C10.2349 24.0994 13.7955 27.6689 18.1742 27.6689C22.553 27.6689 26.1162 24.107 26.1162 19.7294C26.1162 15.3518 22.553 11.8026 18.1742 11.8026Z" fill="white"/>
<path d="M18.4065 2.04199H18.0227V30.7548H18.4065V2.04199Z" fill="white"/>
<path d="M20.839 1.75839L11.3622 14.9355L11.6735 15.1608L21.1503 1.98369L20.839 1.75839Z" fill="white"/>
<path d="M15.5419 1.74242L15.2299 1.9668L24.8414 15.415L25.1533 15.1907L15.5419 1.74242Z" fill="white"/>
<path d="M18.048 28.0058C15.4672 25.8068 14.1136 23.3014 14.0252 20.5578C13.8636 15.5848 17.9975 11.5112 18.0379 11.4707L18.3056 11.7468C18.2651 11.7874 14.2525 15.747 14.4091 20.5476C14.4949 23.1747 15.803 25.5864 18.2954 27.7119L18.048 28.0058Z" fill="white"/>
<path d="M18.5 28.0058L18.2525 27.7119C20.745 25.5864 22.053 23.1747 22.1389 20.5476C22.2955 15.747 18.2828 11.7848 18.2424 11.7468L18.5101 11.4707C18.553 11.5112 22.6844 15.5848 22.5227 20.5578C22.4344 23.2988 21.0808 25.8043 18.5 28.0058Z" fill="white"/>
<path d="M27.4621 19.5371H8.55554V19.9222H27.4621V19.5371Z" fill="white"/>
<path d="M18.1692 14.4096C15.7955 14.4096 14.4091 12.6869 14.351 12.6135L14.6515 12.3753C14.6641 12.3905 15.9823 14.0271 18.1667 14.0271C20.351 14.0271 21.4293 12.2765 21.4394 12.2588L21.7677 12.4589C21.7197 12.54 20.5556 14.4121 18.1667 14.4121L18.1692 14.4096Z" fill="white"/>
<path d="M18.0328 17.4875C13.9318 17.4875 11.2147 15.4937 11.1743 15.4633L11.4041 15.1543C11.4621 15.1973 17.3712 19.5217 24.9041 15.1416L25.096 15.476C22.5025 16.9859 20.0909 17.4875 18.0303 17.4875H18.0328Z" fill="white"/>
<path d="M21.1743 1.8696H20.7904V0.385067H15.6187V1.8088H15.2349V0H21.1743V1.8696Z" fill="white"/>
<path d="M8.33585 22.7494C8.37878 22.8204 8.42928 22.9268 8.47979 23.0636C8.53282 23.2054 8.5606 23.3194 8.5707 23.4132C8.5808 23.5398 8.54797 23.6158 8.47474 23.6462C8.40403 23.669 8.32827 23.631 8.24241 23.5246C8.17423 23.436 8.11615 23.3296 8.06565 23.1953C8.01514 23.056 7.98231 22.9344 7.97474 22.8305C7.96716 22.6962 7.99999 22.6177 8.0707 22.5898C8.15656 22.5594 8.24241 22.6126 8.33332 22.7494H8.33585ZM8.40908 22.453C8.26514 22.3086 8.11868 22.2706 7.96969 22.3264C7.81817 22.3821 7.73736 22.5113 7.72726 22.714C7.71969 22.8761 7.75252 23.0585 7.8308 23.2662C7.91413 23.479 8.00757 23.6437 8.1212 23.7577C8.26262 23.9046 8.41161 23.9426 8.56565 23.8869C8.72221 23.8261 8.80555 23.6994 8.81565 23.4993C8.82575 23.3422 8.78787 23.1598 8.71211 22.9496L8.70454 22.9293C8.62878 22.7241 8.53029 22.5645 8.41161 22.448L8.40908 22.453ZM9.39393 23.1041C9.40908 23.1472 9.43433 23.1776 9.46464 23.1928C9.49746 23.2029 9.53029 23.2054 9.5606 23.1953C9.5909 23.1852 9.61363 23.1624 9.62625 23.1294C9.63888 23.099 9.63635 23.061 9.62373 23.0205L9.3409 22.2732C9.32827 22.2377 9.30807 22.2124 9.27524 22.2022C9.24241 22.187 9.21464 22.1845 9.18433 22.2022C9.15656 22.2124 9.13383 22.2352 9.11868 22.2681C9.10353 22.2934 9.10353 22.3314 9.11868 22.372L9.39393 23.1066V23.1041ZM9.10605 23.6386C9.11868 23.6817 9.14393 23.707 9.17676 23.7222C9.21211 23.7349 9.24241 23.7374 9.27019 23.7273C9.30555 23.7121 9.32575 23.6918 9.3409 23.6589C9.35353 23.6285 9.35353 23.593 9.33585 23.5525L8.77019 22.0401C8.75504 22.0021 8.72979 21.9742 8.69949 21.9641C8.66666 21.9514 8.63888 21.9489 8.60605 21.9641C8.57575 21.9742 8.5505 21.9945 8.53787 22.03C8.52272 22.0654 8.52272 22.0984 8.53787 22.1414L9.10353 23.6386H9.10605ZM7.56565 22.7165C7.5808 22.681 7.5808 22.6456 7.56565 22.6076C7.55302 22.5696 7.52777 22.5417 7.49494 22.524C7.46211 22.5062 7.42676 22.5062 7.38383 22.5189L7.01514 22.6608C6.8611 22.719 6.81817 22.828 6.87625 22.9901L7.58332 24.8774C7.59848 24.9154 7.62373 24.9433 7.65403 24.9509C7.68433 24.9661 7.71716 24.9661 7.74746 24.9509C7.78282 24.9433 7.80555 24.923 7.81817 24.8901C7.83332 24.8648 7.83332 24.8268 7.81817 24.7888L7.15403 23.023C7.13888 22.9774 7.1313 22.9521 7.13888 22.942C7.14393 22.9293 7.16666 22.9166 7.20454 22.904L7.48736 22.7976C7.53029 22.7824 7.55555 22.7545 7.56817 22.719L7.56565 22.7165ZM9.99241 24.0161C10.005 23.9781 10.005 23.9426 9.99241 23.9072C9.97726 23.8692 9.95706 23.8464 9.92423 23.8236C9.89393 23.8109 9.85858 23.8084 9.81817 23.821L8.17423 24.4468C8.13383 24.462 8.10605 24.4873 8.0909 24.5253C8.07827 24.5608 8.07827 24.5962 8.09342 24.6342C8.10605 24.6672 8.12878 24.6976 8.15908 24.7128C8.19443 24.733 8.22726 24.733 8.27019 24.7178L8.88888 24.4822L8.94696 24.6393C8.96211 24.6849 8.98484 24.7128 9.01767 24.7254C9.05049 24.7381 9.08332 24.7381 9.11615 24.7254C9.14393 24.7153 9.16666 24.695 9.18181 24.6672C9.19696 24.6368 9.19696 24.5988 9.18181 24.5582L9.11868 24.3961L9.90656 24.0972C9.94949 24.0845 9.97474 24.0541 9.98736 24.0186" fill="white"/>
<path d="M10.5328 28.6649L10.7272 28.4699C10.7575 28.442 10.7676 28.4217 10.7626 28.4065C10.7626 28.3939 10.7424 28.3711 10.7146 28.3381L9.40654 27.0081C9.37624 26.9777 9.36108 26.9473 9.36108 26.9093C9.36108 26.8713 9.37624 26.8435 9.39896 26.8181C9.42674 26.7903 9.45452 26.7827 9.48735 26.7827C9.52017 26.7827 9.553 26.7953 9.58583 26.8308L11.005 28.2748C11.0682 28.3356 11.1035 28.3888 11.1136 28.4319C11.1237 28.4673 11.106 28.5104 11.0631 28.5459L10.7575 28.8499C10.7222 28.8879 10.6868 28.9031 10.6439 28.8955C10.606 28.8929 10.5732 28.8777 10.5429 28.8473C10.5151 28.822 10.5025 28.7916 10.4949 28.7561C10.4949 28.7181 10.505 28.6877 10.5328 28.6599V28.6649ZM12.0757 27.1551C12.101 27.1297 12.1136 27.112 12.1111 27.0993C12.1111 27.0867 12.0959 27.0689 12.0732 27.0436L10.7399 25.6857C10.7121 25.6553 10.6969 25.6249 10.6969 25.5869C10.6969 25.5515 10.7121 25.5261 10.7373 25.5008C10.7601 25.4755 10.7904 25.4653 10.8232 25.4653C10.856 25.4653 10.8889 25.478 10.9192 25.5084L12.3434 26.9575C12.4015 27.0208 12.4293 27.074 12.4267 27.1221C12.4267 27.1703 12.399 27.2235 12.3459 27.2741L11.904 27.6288C11.8636 27.6541 11.8257 27.6693 11.7904 27.6668C11.755 27.6643 11.7247 27.6516 11.702 27.6288C11.6439 27.5655 11.6515 27.5072 11.7247 27.4363L12.0757 27.1525V27.1551ZM11.5833 28.0443L10.8485 27.2969L10.5884 27.5553C10.5581 27.5857 10.5227 27.6009 10.4899 27.5959C10.452 27.5933 10.4192 27.5756 10.3889 27.5503C10.3636 27.5199 10.351 27.4895 10.3459 27.4515C10.3434 27.4109 10.356 27.378 10.3889 27.3476L10.6464 27.0917L9.90654 26.3393C9.87876 26.3089 9.86361 26.2735 9.86361 26.2405C9.86361 26.2076 9.87624 26.1747 9.89896 26.1544C9.92422 26.1265 9.95452 26.1139 9.98735 26.1139C10.0227 26.1088 10.053 26.1265 10.0808 26.1544L11.7651 27.8669C11.7954 27.8999 11.8081 27.9303 11.8081 27.9632C11.8081 27.9961 11.7954 28.024 11.7752 28.0493C11.75 28.0747 11.7197 28.0873 11.6843 28.0899C11.649 28.0899 11.6161 28.0747 11.5858 28.0443" fill="white"/>
<path d="M14.3838 28.4294C14.3434 28.4117 14.3182 28.3889 14.303 28.3585C14.2904 28.3281 14.2904 28.2977 14.303 28.2648C14.3131 28.2318 14.3384 28.2116 14.3687 28.1964C14.399 28.1837 14.4344 28.1837 14.4697 28.1938L15.2702 28.5156C15.3106 28.5308 15.3359 28.5536 15.3485 28.5814C15.3636 28.6144 15.3636 28.6448 15.3485 28.6726C15.3333 28.7106 15.3157 28.7334 15.2854 28.7512C15.2551 28.7613 15.2197 28.7613 15.1768 28.7461L14.3813 28.4294H14.3838ZM15.1237 29.458C15.2096 29.5289 15.303 29.5973 15.4091 29.6606C15.4419 29.6758 15.4798 29.6986 15.5202 29.7189C15.5631 29.7392 15.5884 29.767 15.596 29.7974C15.6061 29.8228 15.6061 29.8506 15.596 29.876C15.5859 29.9089 15.5581 29.9342 15.5253 29.9494C15.4899 29.9646 15.4546 29.9646 15.4091 29.9469C15.3384 29.9216 15.2576 29.876 15.1667 29.8101C15.0783 29.7468 14.9924 29.6834 14.9192 29.6226C14.8157 29.5314 14.7248 29.4276 14.6465 29.3136C14.6212 29.2781 14.5934 29.2249 14.5606 29.159C14.4066 29.2249 14.2172 29.2553 14 29.2477C13.7828 29.2426 13.5884 29.2072 13.4217 29.1413C13.3813 29.1236 13.3535 29.1008 13.3384 29.0704C13.3258 29.0374 13.3232 29.0045 13.3359 28.9741C13.346 28.9437 13.3662 28.9209 13.3939 28.9108C13.4192 28.8981 13.452 28.8956 13.495 28.8981C13.5328 28.9158 13.5682 28.9285 13.5934 28.9361C13.745 28.9792 13.899 28.9994 14.0404 28.9994C14.1616 28.9994 14.2702 28.9842 14.3586 28.9538C14.3889 28.9437 14.4243 28.9285 14.4647 28.9032L13.6692 28.5916C13.6263 28.5738 13.601 28.5536 13.5859 28.5206C13.5732 28.4902 13.5758 28.4573 13.5884 28.4244C13.601 28.394 13.6237 28.3712 13.649 28.3534C13.6818 28.3382 13.7172 28.3382 13.7551 28.3585L15.6995 29.1286C15.7399 29.1413 15.7652 29.1692 15.7803 29.197C15.7929 29.2274 15.7955 29.2604 15.7803 29.2908C15.7677 29.3212 15.7475 29.3414 15.7147 29.3592C15.6818 29.3718 15.6439 29.3718 15.6035 29.3592L14.7904 29.04C14.8081 29.083 14.8283 29.1286 14.8485 29.159C14.9142 29.2604 14.9975 29.3617 15.1111 29.4605L15.1237 29.458ZM14.803 31.0008L14.8763 30.8158C14.8889 30.788 14.8939 30.7702 14.8939 30.7652C14.8939 30.7398 14.8763 30.7196 14.8384 30.7044L13.0581 30.0001C13.0177 29.9849 12.9899 29.9596 12.9798 29.9292C12.9647 29.8988 12.9647 29.8684 12.9798 29.8354C12.9924 29.805 13.0126 29.7797 13.0429 29.767C13.0732 29.7468 13.1086 29.7493 13.1515 29.767L15.0682 30.527C15.1313 30.5473 15.1768 30.5878 15.202 30.636C15.2248 30.6841 15.2248 30.7373 15.202 30.793L15.0783 31.1122C15.0606 31.1578 15.0354 31.1857 15 31.1958C14.9647 31.211 14.9293 31.211 14.8914 31.1958C14.8535 31.1806 14.8258 31.1553 14.8081 31.1224C14.7904 31.0844 14.7904 31.0464 14.8081 31.0008H14.803ZM13.2929 29.268L15.447 30.1242C15.4899 30.1394 15.5177 30.1622 15.5278 30.1926C15.5404 30.2205 15.5404 30.2534 15.5278 30.2889C15.5152 30.3193 15.4924 30.3472 15.4672 30.3598C15.4369 30.3725 15.4066 30.3725 15.3662 30.3598L13.1995 29.4985C13.1616 29.4833 13.1338 29.4605 13.1212 29.4301C13.1061 29.3997 13.1061 29.3693 13.1212 29.3364C13.1364 29.3085 13.1566 29.2806 13.1869 29.2629C13.2172 29.2502 13.2525 29.2502 13.2955 29.2654" fill="white"/>
<path d="M23.4848 29.6655C23.6894 29.6072 23.8055 29.6098 23.8384 29.6782C23.8737 29.7466 23.7954 29.8454 23.6035 29.9695C23.4949 30.043 23.3283 30.1291 23.1187 30.2304C22.9874 30.2912 22.8561 30.347 22.7247 30.3926C22.4343 30.5015 22.2677 30.5167 22.2273 30.4306C22.1919 30.3571 22.2702 30.2608 22.4621 30.1367C22.5707 30.0658 22.7399 29.9796 22.9672 29.8732C23.1667 29.7795 23.3409 29.7111 23.4874 29.668L23.4848 29.6655ZM21.7121 29.3818C21.6869 29.3336 21.6995 29.2982 21.7399 29.2804L22.5783 28.8852C22.6439 28.8523 22.6869 28.8118 22.702 28.751C22.7172 28.7003 22.7071 28.6446 22.6818 28.5812L22.4874 28.1683C22.4596 28.1126 22.4192 28.072 22.3636 28.0619C22.3106 28.0492 22.2601 28.0518 22.2096 28.0771L21.1439 28.5787C21.1086 28.5939 21.0859 28.6218 21.0758 28.6496C21.0656 28.68 21.0707 28.7104 21.0859 28.7434C21.0985 28.7712 21.1237 28.794 21.1515 28.8092C21.1818 28.8219 21.2146 28.8219 21.255 28.8042L22.1692 28.371C22.2197 28.3482 22.2525 28.3583 22.2752 28.4014L22.3763 28.6218C22.3914 28.6446 22.3914 28.6648 22.3838 28.6775C22.3737 28.6927 22.3586 28.7054 22.3359 28.713L21.5151 29.1031C21.447 29.136 21.4015 29.1766 21.3788 29.2247C21.3561 29.2754 21.3586 29.326 21.3864 29.3868L21.5758 29.7896C21.6061 29.8555 21.6465 29.896 21.6995 29.9163C21.755 29.934 21.8182 29.9239 21.899 29.8859C22.1843 29.7516 22.4343 29.63 22.6364 29.5211C22.8434 29.4172 23.0328 29.2982 23.2121 29.1766C23.2424 29.1512 23.2601 29.131 23.2651 29.1006C23.2752 29.0752 23.2702 29.0524 23.2601 29.0246C23.2449 28.9942 23.2222 28.9739 23.1944 28.9638C23.1667 28.9511 23.1338 28.9511 23.0985 28.9663L23.0783 28.9764C23.0278 29.0144 22.9798 29.0499 22.9394 29.0727C22.8182 29.1462 22.6894 29.2171 22.548 29.2855C22.447 29.3336 22.3308 29.3919 22.2045 29.4552C22.0783 29.5236 22.0076 29.5566 21.9975 29.5642L21.947 29.5895C21.899 29.6123 21.8662 29.6199 21.8485 29.6174C21.8308 29.6174 21.8131 29.5971 21.7929 29.5616L21.7071 29.3767L21.7121 29.3818ZM23.4167 28.181L23.5758 28.105C23.6162 28.0822 23.6465 28.0619 23.654 28.029C23.6641 27.9935 23.6591 27.9631 23.6465 27.9327C23.6364 27.8998 23.6086 27.8795 23.5808 27.8668C23.548 27.8567 23.5151 27.8592 23.4747 27.8795L23.3131 27.953L23.1869 27.6844C23.1692 27.6439 23.1414 27.6186 23.1035 27.611C23.0682 27.6034 23.0328 27.6059 22.9949 27.6236C22.9596 27.6363 22.9343 27.6642 22.9192 27.6946C22.904 27.7326 22.904 27.768 22.9268 27.806L23.5454 29.131C23.5631 29.169 23.5909 29.1918 23.6288 29.1994C23.6667 29.2095 23.702 29.207 23.7374 29.1892C23.7727 29.174 23.7954 29.1487 23.8106 29.1132C23.8258 29.0778 23.8257 29.0448 23.8055 29.0068L23.7424 28.8675L23.8965 28.7915C23.9369 28.7712 23.9621 28.7459 23.9747 28.718C23.9823 28.6851 23.9798 28.6522 23.9672 28.6218C23.952 28.5863 23.9293 28.566 23.9015 28.5534C23.8687 28.5458 23.8359 28.5458 23.7929 28.5635L23.6389 28.6395L23.4192 28.1759L23.4167 28.181ZM23.5808 29.4122C23.3662 29.4502 23.1162 29.5388 22.8384 29.6655C22.6667 29.7491 22.505 29.8403 22.351 29.9391C22.197 30.0303 22.0808 30.1316 22.005 30.2304C21.9091 30.3571 21.8864 30.4711 21.9369 30.575C21.9874 30.6839 22.096 30.7396 22.2601 30.7371C22.3889 30.7371 22.5555 30.7067 22.7576 30.6332C22.8914 30.5902 23.048 30.5243 23.2273 30.4382C23.4066 30.3546 23.553 30.276 23.6667 30.2051C23.8333 30.0962 23.9596 29.9923 24.0328 29.8935C24.1263 29.7668 24.1465 29.6503 24.0934 29.5388C24.0303 29.3995 23.8586 29.3615 23.5808 29.4096" fill="white"/>
<path d="M25.5681 27.0029C25.6085 26.9345 25.6717 26.8407 25.7626 26.7318C25.856 26.6229 25.9444 26.5418 26.0227 26.4911C26.1287 26.4253 26.2146 26.4227 26.2777 26.4734C26.3484 26.5367 26.351 26.6229 26.2954 26.7419C26.2601 26.8103 26.1893 26.9091 26.0833 27.0383C25.9823 27.1549 25.8939 27.2359 25.8232 27.2866C25.7171 27.355 25.6313 27.3626 25.5656 27.3018C25.4949 27.2435 25.4949 27.1447 25.5707 27.0029H25.5681ZM25.2878 27.0865C25.2272 27.2663 25.255 27.4107 25.3737 27.5171C25.5075 27.6311 25.6717 27.6286 25.8712 27.5146C26.005 27.4361 26.1414 27.3145 26.2828 27.1549C26.4242 26.9902 26.5202 26.8306 26.5631 26.6862C26.6212 26.5089 26.5883 26.3645 26.4671 26.2631C26.3409 26.1567 26.1944 26.1441 26.0202 26.2378C25.8838 26.3062 25.7449 26.4253 25.5959 26.595L25.5707 26.6254C25.4267 26.7951 25.3333 26.9446 25.2878 27.089V27.0865ZM25.3787 25.9414C25.4065 25.911 25.4191 25.8705 25.4141 25.8375C25.409 25.8021 25.3939 25.7717 25.3686 25.7489C25.3459 25.7311 25.3181 25.721 25.2828 25.7235C25.2525 25.7261 25.2196 25.7413 25.1944 25.7742L24.6742 26.3822C24.6489 26.4126 24.6388 26.4455 24.6414 26.4759C24.6489 26.5089 24.6616 26.5367 24.6843 26.5621C24.7095 26.5798 24.7399 26.5925 24.7727 26.5874C24.808 26.5823 24.8383 26.5671 24.8686 26.5317L25.3787 25.9389V25.9414ZM26.0025 25.9034C26.0303 25.8705 26.0429 25.8375 26.0404 25.8021C26.0353 25.7691 26.0176 25.7387 25.9924 25.7134C25.9697 25.6906 25.9368 25.683 25.904 25.6855C25.8712 25.6855 25.8409 25.7058 25.8131 25.7337L24.7651 26.9623C24.7399 26.9953 24.7272 27.0257 24.7323 27.0586C24.7348 27.0941 24.75 27.1245 24.7752 27.1447C24.803 27.1701 24.8333 27.1751 24.8661 27.1701C24.9015 27.1701 24.9318 27.1523 24.9595 27.1194L26 25.9009L26.0025 25.9034ZM27.707 26.8053C27.7424 26.8002 27.7727 26.7825 27.8005 26.7521C27.8282 26.7217 27.8409 26.6862 27.8383 26.6482C27.8383 26.6127 27.8181 26.5773 27.7803 26.5469L27.4974 26.3037C27.4469 26.2555 27.3989 26.2378 27.3484 26.2505C27.303 26.2606 27.255 26.2961 27.202 26.3569L25.8888 27.8921C25.8611 27.9225 25.851 27.9554 25.8535 27.9909C25.8585 28.0289 25.8737 28.0517 25.9015 28.0795C25.9267 28.0973 25.952 28.1074 25.9873 28.1074C26.0176 28.1074 26.0505 28.0922 26.0757 28.0618L27.2853 26.6457C27.3156 26.6102 27.3358 26.5925 27.351 26.5874C27.3686 26.5823 27.3888 26.5975 27.4191 26.6229L27.5984 26.7749C27.6313 26.8053 27.6666 26.8154 27.702 26.8103L27.707 26.8053ZM25.8787 24.9635C25.8409 24.9686 25.808 24.9889 25.7803 25.0193C25.7601 25.0471 25.7449 25.0775 25.7449 25.113C25.7449 25.151 25.7601 25.1814 25.7954 25.2118L26.9267 26.1897C26.9621 26.2201 26.9974 26.2302 27.0378 26.2251C27.0782 26.2201 27.1111 26.2023 27.1388 26.1694C27.1616 26.1415 27.1742 26.1061 27.1742 26.0706C27.1717 26.0377 27.154 26.0047 27.1186 25.9718L26.7045 25.6146L26.8156 25.4803C26.8484 25.4423 26.8611 25.4094 26.856 25.3739C26.851 25.3435 26.8358 25.3157 26.8106 25.2878C26.7853 25.265 26.7525 25.2549 26.7196 25.2599C26.6893 25.2599 26.6565 25.2827 26.6287 25.3106L26.5126 25.4474L25.9873 24.9914C25.952 24.9635 25.9166 24.9509 25.8787 24.961" fill="white"/>
<path d="M27.8661 23.3928C27.8434 23.3041 27.8636 23.1724 27.9116 23.0128C27.9596 22.8506 28.0202 22.729 28.0883 22.6505C28.1616 22.5694 28.2399 22.5441 28.3282 22.5694C28.4293 22.6024 28.4848 22.6708 28.4974 22.7848C28.505 22.8709 28.4848 22.9976 28.4394 23.1597C28.399 23.294 28.3459 23.4029 28.2803 23.4764C28.2045 23.5676 28.1186 23.598 28.0303 23.5676C27.9419 23.5372 27.8863 23.484 27.8686 23.3928H27.8661ZM27.2449 22.4098C27.2601 22.3693 27.2575 22.3313 27.2424 22.306C27.2272 22.2756 27.202 22.2528 27.1717 22.2452C27.1414 22.2376 27.1111 22.2401 27.0833 22.2528C27.0555 22.2705 27.0328 22.2984 27.0176 22.344L26.7954 23.0812C26.7853 23.1242 26.7904 23.1572 26.8055 23.185C26.8257 23.2129 26.8459 23.2332 26.8737 23.2382C26.904 23.2484 26.9394 23.2458 26.9671 23.2281C26.9949 23.2129 27.0151 23.185 27.0303 23.1445L27.2449 22.4124V22.4098ZM27.8156 22.1084C27.8308 22.0653 27.8282 22.0298 27.8131 21.9969C27.7979 21.9665 27.7702 21.9462 27.7373 21.9386C27.7045 21.9285 27.6742 21.931 27.6464 21.9462C27.6161 21.9614 27.5959 21.9918 27.5833 22.0324L27.1161 23.5802C27.1085 23.6182 27.1085 23.6486 27.1262 23.6816C27.1439 23.7094 27.1666 23.7297 27.1969 23.7373C27.2298 23.7474 27.2626 23.7449 27.2929 23.7322C27.3232 23.712 27.3434 23.6841 27.3585 23.6436L27.8156 22.1109V22.1084ZM27.3308 21.3078C27.2979 21.3281 27.2777 21.3585 27.2651 21.399C27.2525 21.437 27.255 21.475 27.2702 21.508C27.2853 21.5434 27.3156 21.5637 27.3611 21.5789L29.6212 22.2654C29.6717 22.2806 29.7096 22.2756 29.7424 22.2528C29.7727 22.2376 29.8005 22.2072 29.808 22.1666C29.8207 22.1286 29.8181 22.0957 29.7979 22.0602C29.7803 22.0248 29.7474 22.002 29.7045 21.9868L27.4469 21.3002C27.399 21.2876 27.3585 21.2876 27.3282 21.3078H27.3308ZM29.0732 23.4865L28.8787 24.1958C28.8686 24.2313 28.8686 24.2642 28.8838 24.2896C28.899 24.3098 28.9217 24.3276 28.9469 24.3352C28.9772 24.3428 29.005 24.3377 29.0378 24.3301C29.0707 24.3098 29.0909 24.2896 29.0984 24.249L29.1136 24.2034C29.2121 23.8716 29.2929 23.5726 29.3611 23.3066C29.4242 23.0381 29.4722 22.7822 29.5 22.5314C29.5 22.496 29.4924 22.4681 29.4772 22.4453C29.4596 22.4225 29.4419 22.4048 29.4217 22.3997C29.3889 22.3921 29.3611 22.3921 29.3333 22.4073C29.3055 22.42 29.2904 22.4402 29.2803 22.4681V22.4782C29.2575 22.6226 29.2272 22.7848 29.1919 22.9646C29.1793 23.0254 29.1616 23.109 29.1389 23.2104L28.7222 23.0812C28.7727 22.9064 28.7777 22.7518 28.7323 22.615C28.6818 22.4554 28.5656 22.349 28.3914 22.2908C28.2601 22.2528 28.1338 22.2806 28.0202 22.3718C27.8813 22.4884 27.7727 22.6784 27.6944 22.9418C27.6237 23.1673 27.6111 23.3624 27.649 23.5296C27.6894 23.6917 27.7853 23.793 27.9318 23.8386C28.0909 23.8893 28.2373 23.8513 28.3737 23.7348C28.4747 23.6461 28.5656 23.5169 28.6414 23.3497L29.0732 23.484" fill="white"/>
<path d="M32.8434 15.0226C32.8586 15.0733 32.8535 15.124 32.8258 15.1721C32.8005 15.2177 32.7576 15.2506 32.7071 15.2709C32.6439 15.2937 32.5884 15.2962 32.5404 15.276C32.4899 15.2582 32.4545 15.2278 32.4394 15.1746C32.4217 15.1265 32.4242 15.0733 32.447 15.0277C32.4747 14.9846 32.5177 14.9492 32.5758 14.9238C32.6338 14.901 32.6869 14.901 32.7374 14.9238C32.7879 14.9416 32.8232 14.977 32.8409 15.0226" fill="white"/>
<path d="M31.8459 27.107C31.8257 27.0564 31.7879 27.0133 31.7348 26.9829C31.6793 26.9525 31.6237 26.9424 31.5732 26.955C31.5202 26.9677 31.4823 27.0006 31.457 27.0462C31.4318 27.0944 31.4293 27.14 31.4469 27.1906C31.4697 27.2388 31.505 27.2793 31.5631 27.3122C31.6136 27.3376 31.6641 27.3477 31.7171 27.3376C31.7727 27.3274 31.8106 27.297 31.8384 27.2514C31.8611 27.2058 31.8611 27.1577 31.8459 27.1096" fill="white"/>
<path d="M2.66919 18.0552C2.67424 17.9994 2.69949 17.9589 2.74747 17.931C2.79545 17.8956 2.84343 17.888 2.89899 17.893C2.96464 17.8981 3.01262 17.9184 3.05303 17.9589C3.09091 17.9969 3.10606 18.0425 3.09848 18.0982C3.09343 18.1489 3.06818 18.192 3.02778 18.2249C2.98485 18.2528 2.92929 18.2629 2.86868 18.2604C2.80808 18.2528 2.75505 18.23 2.71717 18.1869C2.68182 18.1489 2.66666 18.1033 2.67171 18.0552" fill="white"/>
<path d="M2.08838 16.672L2.13383 16.4617L3.14899 16.6948L2.3106 15.6891L2.37878 15.3901L3.0707 16.2439L4.46969 15.8588L4.40909 16.1299L3.23232 16.444L3.49747 16.7733L4.22474 16.938L4.17676 17.1508L2.08838 16.672Z" fill="white"/>
<path d="M4.50758 15.1544C4.44445 15.3495 4.31818 15.4635 4.13132 15.4964C3.94697 15.5319 3.74243 15.5065 3.51515 15.4305C3.23485 15.3343 3.03536 15.2152 2.92425 15.0657C2.81566 14.9137 2.78283 14.7592 2.83839 14.5996C2.89394 14.4375 3.00758 14.3336 3.1894 14.288C3.36869 14.2424 3.57576 14.2601 3.81566 14.3412C4.04293 14.4197 4.2298 14.5312 4.37879 14.6705C4.52526 14.8124 4.56818 14.9771 4.50505 15.1569L4.50758 15.1544ZM2.59596 14.5312C2.50758 14.7871 2.56566 15.0227 2.77273 15.2431C2.93687 15.4103 3.15152 15.5395 3.42425 15.6357C3.7298 15.7371 4.00253 15.7624 4.2399 15.7143C4.4899 15.6484 4.65657 15.4964 4.73738 15.2659C4.82071 15.0151 4.76768 14.7795 4.57829 14.5641C4.41919 14.3767 4.18435 14.2373 3.88132 14.1335C3.60101 14.0372 3.35354 14.0093 3.13889 14.0524C2.86616 14.1031 2.68435 14.2627 2.59344 14.5337" fill="white"/>
<path d="M4.00505 13.7433L3.34596 13.4393L3.56313 12.9656C3.59343 12.8997 3.63384 12.8516 3.67677 12.8262C3.7601 12.7781 3.87121 12.7832 4.00758 12.8465C4.13384 12.9048 4.21212 12.9732 4.23485 13.0466C4.2601 13.1226 4.25253 13.2037 4.2096 13.2974L4.00505 13.7433ZM4.96717 14.4298L5.05808 14.2322L4.22222 13.8472L4.42424 13.4064C4.4596 13.3278 4.49748 13.2746 4.53788 13.2518C4.61111 13.2062 4.71212 13.2113 4.84091 13.2645L5.17172 13.4013C5.24748 13.4342 5.30303 13.4545 5.32828 13.4596C5.35606 13.4672 5.38131 13.4748 5.39899 13.4748L5.5101 13.2316L5.4697 13.2138C5.43687 13.2366 5.38636 13.2366 5.32071 13.2214C5.2803 13.2138 5.22222 13.191 5.14646 13.1606L4.88131 13.0466C4.76768 12.9985 4.67929 12.9757 4.61364 12.9808C4.55303 12.9858 4.48737 13.0112 4.43434 13.0542C4.41919 12.9681 4.38131 12.8921 4.32576 12.8212C4.26768 12.7502 4.17929 12.6844 4.06313 12.6312C3.84091 12.5298 3.65909 12.5273 3.5101 12.6236C3.43434 12.6742 3.37374 12.7553 3.32323 12.8642L3.0202 13.528L4.96212 14.4298" fill="white"/>
<path d="M3.71716 12.0689L4.30807 11.0581L4.53534 11.1924L4.05302 12.0182L4.61363 12.3476L5.05807 11.58L5.27272 11.7041L4.82575 12.4717L5.45706 12.8416L5.94444 12.0056L6.16413 12.1297L5.56565 13.1582L3.71716 12.0689Z" fill="white"/>
<path d="M5.68177 11.2886L5.06308 10.5261L5.9747 10.8782L5.68177 11.2886ZM6.12369 12.1804L6.25753 11.9954L5.83834 11.4812L6.2045 10.9669L6.82319 11.2076L6.96207 11.01L4.88127 10.2373L4.7348 10.44L6.12369 12.1829" fill="white"/>
<path d="M5.34595 9.60643L5.51009 9.4139L7.351 9.9459L6.04292 8.8059L6.17423 8.65137L7.79039 10.065L7.63635 10.2474L5.78787 9.7255L7.09342 10.8655L6.95958 11.02L5.34595 9.60643Z" fill="white"/>
<path d="M8.20708 8.70955C8.28789 8.79822 8.3687 8.86155 8.44193 8.89955C8.58587 8.96035 8.72728 8.93755 8.86112 8.82608C8.9192 8.77542 8.96213 8.71968 8.99496 8.65382C9.05051 8.52715 9.02779 8.40048 8.9293 8.28395C8.85354 8.19275 8.78031 8.14462 8.70961 8.14208C8.6389 8.14208 8.54546 8.15982 8.43688 8.20795L8.23738 8.28902C8.10607 8.34475 8.00001 8.37008 7.92425 8.36248C7.79294 8.36248 7.6692 8.28395 7.55556 8.14968C7.43183 8.00022 7.36617 7.84568 7.36112 7.68862C7.35607 7.53155 7.4192 7.39475 7.55556 7.28075C7.6793 7.17435 7.82577 7.12622 7.97981 7.14142C8.13637 7.14902 8.29041 7.24782 8.44193 7.43275L8.28536 7.55942C8.20203 7.48088 8.13132 7.43022 8.06567 7.40235C7.94698 7.35675 7.83082 7.38462 7.70961 7.48088C7.6187 7.55942 7.57324 7.64048 7.57829 7.73168C7.58082 7.82288 7.61617 7.90648 7.67678 7.97742C7.74496 8.06102 7.81567 8.09902 7.899 8.09395C7.9495 8.09142 8.04546 8.05848 8.1894 8.00275L8.40152 7.91408C8.50253 7.87102 8.59344 7.85582 8.67425 7.86342C8.81567 7.87608 8.94445 7.95715 9.06819 8.10662C9.21971 8.28648 9.28031 8.45875 9.25001 8.61835C9.21971 8.77795 9.14142 8.90968 9.01011 9.01862C8.86365 9.14275 8.70203 9.18835 8.53031 9.15288C8.35859 9.11995 8.1995 9.01355 8.05556 8.83115L8.2096 8.70195" fill="white"/>
<path d="M10.0151 7.94712C9.84592 8.05858 9.67925 8.07378 9.51511 7.99018C9.34592 7.90405 9.19693 7.76218 9.06057 7.56205C8.89643 7.31632 8.81057 7.09845 8.81309 6.91098C8.81309 6.72352 8.88632 6.58672 9.02269 6.49045C9.1641 6.39165 9.32067 6.38152 9.48986 6.45245C9.65905 6.52592 9.81562 6.66525 9.95703 6.87552C10.0934 7.07312 10.1767 7.27072 10.207 7.47592C10.2373 7.67858 10.1767 7.83312 10.0151 7.94712ZM8.86865 6.28525C8.6439 6.43978 8.55047 6.66525 8.58329 6.96165C8.61107 7.19472 8.70451 7.43032 8.86865 7.66845C9.05047 7.93698 9.25249 8.12445 9.47218 8.22578C9.71208 8.32712 9.9343 8.30685 10.1363 8.17005C10.356 8.02058 10.4545 7.80018 10.4318 7.51645C10.4116 7.27072 10.3131 7.01485 10.1338 6.74885C9.96966 6.50058 9.78784 6.32832 9.5934 6.23458C9.3434 6.10792 9.1035 6.12818 8.86612 6.28525" fill="white"/>
<path d="M10.8636 5.35549C11.0278 5.42895 11.1616 5.54042 11.2576 5.69495L11.0707 5.79629C10.9848 5.68229 10.8914 5.61135 10.7904 5.57589C10.6894 5.53789 10.5833 5.55055 10.4697 5.61389C10.3333 5.68482 10.2576 5.81149 10.2399 5.99135C10.2222 6.16615 10.2904 6.39162 10.4343 6.66269C10.5556 6.88309 10.6919 7.04269 10.8384 7.14149C10.9899 7.23775 11.1389 7.24282 11.2904 7.15922C11.4318 7.08069 11.4975 6.95402 11.495 6.77162C11.4899 6.67535 11.4621 6.55882 11.4192 6.42202L11.6035 6.32069C11.6944 6.53095 11.7298 6.72602 11.7096 6.91095C11.6843 7.13642 11.5758 7.29855 11.3889 7.39989C11.2273 7.48855 11.053 7.49362 10.8712 7.42269C10.6313 7.32895 10.4116 7.09082 10.2146 6.72602C10.0657 6.44482 9.99748 6.18642 10.0126 5.94829C10.0253 5.68989 10.1364 5.50495 10.346 5.39349C10.5253 5.29469 10.6944 5.28709 10.8611 5.36055" fill="white"/>
<path d="M11.2146 5.02138L11.4141 4.93018L12.303 6.88844L12.106 6.97204L11.2146 5.02138Z" fill="white"/>
<path d="M11.697 4.79816L12.7904 4.37256L12.8838 4.62083L11.9975 4.96283L12.2273 5.57336L13.0505 5.25163L13.1364 5.48216L12.3156 5.80389L12.5783 6.48536L13.4823 6.13576L13.5732 6.37389L12.4697 6.80203L11.697 4.79816Z" fill="white"/>
<path d="M14.1768 3.96484L14.2475 4.21058L13.7273 4.36004L14.25 6.17644L14.0454 6.23978L13.5177 4.42084L12.9949 4.57284L12.9268 4.32711L14.1768 3.96484Z" fill="white"/>
<path d="M14.2323 3.94459L14.4798 3.89646L15.1338 4.81859L15.3838 3.71659L15.6288 3.66846L15.2879 5.04152L15.4545 5.89526L15.2449 5.93326L15.0757 5.08712L14.2323 3.94459Z" fill="white"/>
<path d="M20.8485 5.69029C20.6515 5.65483 20.5202 5.54843 20.4621 5.36856C20.404 5.19629 20.3939 4.98603 20.4394 4.75043C20.4924 4.45656 20.5833 4.24629 20.7197 4.11203C20.8459 3.98283 20.9975 3.92963 21.1616 3.96003C21.3308 3.99043 21.4495 4.09176 21.5227 4.26149C21.5909 4.43629 21.606 4.64656 21.5555 4.89483C21.5126 5.13043 21.4318 5.33309 21.3156 5.50029C21.1995 5.66243 21.0429 5.72829 20.851 5.69283L20.8485 5.69029ZM21.1944 3.70669C20.9268 3.65603 20.6995 3.74976 20.5151 3.98789C20.3737 4.16776 20.2752 4.40336 20.2247 4.68963C20.1641 5.00629 20.1793 5.27989 20.2626 5.51043C20.3636 5.75363 20.5353 5.89296 20.7778 5.94109C21.0379 5.98923 21.2601 5.90309 21.4495 5.68269C21.606 5.49523 21.7146 5.24696 21.7727 4.93029C21.8257 4.63643 21.8182 4.39069 21.7449 4.18296C21.6565 3.91696 21.4722 3.75736 21.1944 3.70923" fill="white"/>
<path d="M22.2197 3.98242L23.2929 4.28896L23.2222 4.54229L22.356 4.29402L22.1793 4.92229L22.9444 5.14269L22.8763 5.38589L22.1111 5.16802L21.8459 6.11042L21.6364 6.05216L22.2197 3.98242Z" fill="white"/>
<path d="M24.0227 6.11803C23.9747 6.2295 23.9545 6.3283 23.9545 6.4119C23.9596 6.5715 24.0404 6.6855 24.1995 6.75896C24.2702 6.78936 24.3384 6.8071 24.4116 6.80456C24.5505 6.7995 24.654 6.72856 24.7172 6.5867C24.7651 6.47776 24.7752 6.3891 24.7475 6.32323C24.7197 6.25736 24.6616 6.18643 24.5732 6.10536L24.4116 5.96096C24.303 5.86216 24.2348 5.77856 24.2045 5.71016C24.1515 5.58603 24.1641 5.4391 24.2399 5.2795C24.3182 5.09963 24.4318 4.97803 24.5682 4.9071C24.7096 4.8311 24.8586 4.8311 25.0202 4.9071C25.1717 4.97296 25.2752 5.0819 25.3333 5.2263C25.3914 5.37323 25.3712 5.55563 25.2702 5.77096L25.0858 5.6899C25.1237 5.58096 25.1414 5.4923 25.1338 5.4239C25.1237 5.29723 25.048 5.20096 24.9116 5.13763C24.8005 5.08696 24.7045 5.08443 24.6237 5.12496C24.5454 5.1655 24.4848 5.2339 24.447 5.32256C24.404 5.41883 24.4015 5.50243 24.4394 5.57336C24.4646 5.61643 24.5328 5.69243 24.6464 5.7963L24.8156 5.94576C24.8964 6.02176 24.9495 6.09523 24.9798 6.17123C25.0252 6.30803 25.0101 6.46003 24.9318 6.6323C24.8333 6.84763 24.7045 6.97683 24.548 7.0199C24.3889 7.06296 24.2374 7.04776 24.0858 6.97683C23.9091 6.89576 23.798 6.77163 23.755 6.59936C23.7121 6.43216 23.7399 6.24216 23.8358 6.02936L24.0227 6.11803Z" fill="white"/>
<path d="M26.0505 5.48238L25.3889 6.63504C25.3157 6.77184 25.2651 6.89344 25.2576 7.00238C25.2348 7.17211 25.2904 7.29624 25.4268 7.37224C25.5859 7.46598 25.7374 7.45584 25.8813 7.34184C25.9571 7.28358 26.0354 7.18224 26.1136 7.04798L26.7727 5.89784L26.9596 6.00424L26.3586 7.05051C26.2273 7.28358 26.1061 7.44318 25.9874 7.53944C25.7727 7.71678 25.548 7.73704 25.3157 7.60024C25.0783 7.46598 24.9848 7.26078 25.0303 6.98971C25.053 6.83771 25.1313 6.64771 25.2626 6.41971L25.8636 5.37598L26.0505 5.48238Z" fill="white"/>
<path d="M26.8661 7.12916L27.2878 6.5389L27.7096 6.84036C27.7702 6.88343 27.8081 6.92903 27.8257 6.9797C27.856 7.0709 27.8333 7.1773 27.7449 7.30143C27.6616 7.41543 27.5808 7.47876 27.505 7.4889C27.4242 7.49903 27.3459 7.47116 27.2651 7.41543L26.8661 7.12916ZM26.0101 7.9525L26.1894 8.07663L26.7247 7.32676L27.1161 7.60796C27.1868 7.65863 27.2298 7.70423 27.25 7.74983C27.2803 7.83343 27.255 7.93223 27.1793 8.04623L26.9798 8.3477C26.9368 8.4161 26.904 8.46423 26.8939 8.4921C26.8788 8.51743 26.8687 8.54276 26.8687 8.56556L27.0808 8.71756L27.1111 8.6821C27.0959 8.64663 27.101 8.5985 27.1313 8.53516C27.1464 8.49716 27.1767 8.44396 27.2247 8.37556L27.3838 8.1349C27.452 8.03103 27.4924 7.94743 27.4974 7.8841C27.5025 7.81823 27.4924 7.7549 27.4596 7.68903C27.5429 7.69156 27.6313 7.6713 27.7096 7.62823C27.7904 7.58516 27.8661 7.5117 27.9444 7.40783C28.0858 7.20516 28.1212 7.0253 28.0555 6.86316C28.0176 6.77956 27.952 6.70356 27.8535 6.63263L27.2601 6.20703L26.0126 7.95756" fill="white"/>
<path d="M28.596 7.1975L27.7551 8.88724L29.2955 7.8055L29.4823 7.9651L27.6338 9.2039L27.4596 9.0519L28.4141 7.04297L28.596 7.1975Z" fill="white"/>
<path d="M29.6262 8.11426L30.4394 8.95532L30.2525 9.13772L29.5909 8.45119L29.1212 8.90466L29.7374 9.54052L29.5555 9.71279L28.9419 9.07693L28.4192 9.58359L29.0909 10.2828L28.9091 10.4601L28.0833 9.60639L29.6262 8.11426Z" fill="white"/>
<path d="M30.553 9.07959L30.7096 9.27719L30.1995 10.2855L31.2879 9.99919L31.4445 10.1943L30.0707 10.5261L29.399 11.0683L29.2626 10.896L29.9318 10.3539L30.553 9.07959Z" fill="white"/>
<path d="M31.5378 10.354L31.6616 10.5263L29.9141 11.7676L29.7878 11.5903L31.5378 10.354Z" fill="white"/>
<path d="M31.8434 10.772L31.9772 10.9898L30.9166 12.5884L32.399 11.6789L32.5025 11.8537L30.6767 12.976L30.5505 12.7708L31.5984 11.1621L30.1237 12.0665L30.0176 11.8942L31.8434 10.772Z" fill="white"/>
<path d="M33.0909 13.166C33.058 13.3611 32.9267 13.5333 32.6893 13.6828L32.5934 13.4877C32.7247 13.3965 32.803 13.3028 32.8333 13.1964C32.8611 13.0925 32.8484 12.9811 32.7954 12.8696C32.7348 12.7379 32.6111 12.6543 32.4394 12.6315C32.2601 12.6061 32.0378 12.6543 31.7752 12.7809C31.5429 12.8899 31.3737 13.014 31.2651 13.1584C31.1565 13.3003 31.1414 13.4573 31.2222 13.6296C31.2828 13.7588 31.3863 13.8449 31.5252 13.8804C31.6666 13.9184 31.851 13.8804 32.0757 13.7791L31.8611 13.3231L32.0782 13.2192L32.3813 13.8576L31.3434 14.3516L31.2828 14.2249L31.5151 14.0552C31.3863 14.0375 31.2904 14.0121 31.2298 13.9792C31.1237 13.926 31.0378 13.8323 30.9747 13.698C30.8939 13.5308 30.8989 13.3459 30.9899 13.1533C31.1111 12.9329 31.3358 12.7429 31.6641 12.5884C31.9848 12.4339 32.2752 12.3781 32.5303 12.4136C32.7727 12.4516 32.9419 12.5656 33.0353 12.7657C33.0959 12.9 33.1161 13.0368 33.0934 13.1635" fill="white"/>
<path d="M34.308 17.3964C34.2247 17.5687 34.0479 17.7004 33.7803 17.7815L33.7449 17.5636C33.8964 17.5155 33.9949 17.4395 34.053 17.3483C34.1085 17.2571 34.1262 17.1507 34.1085 17.0266C34.0833 16.8796 33.9899 16.7732 33.8282 16.6972C33.6641 16.6187 33.4368 16.606 33.1439 16.6567C32.8939 16.6972 32.6969 16.7732 32.5555 16.8796C32.4141 16.9886 32.356 17.1355 32.3863 17.323C32.409 17.4648 32.4848 17.5738 32.6085 17.6498C32.7348 17.7207 32.9217 17.741 33.1666 17.703L33.0833 17.2039L33.3232 17.1634L33.4368 17.86L32.3055 18.05L32.2803 17.9158L32.5505 17.817C32.4318 17.7638 32.3459 17.7131 32.2954 17.665C32.2045 17.5788 32.1489 17.4699 32.1262 17.323C32.0959 17.138 32.1489 16.9658 32.2904 16.8011C32.4671 16.6187 32.7348 16.4996 33.0909 16.4414C33.4444 16.3806 33.7373 16.4084 33.9722 16.5148C34.1969 16.6162 34.3232 16.7732 34.3585 16.9911C34.3838 17.138 34.3686 17.2698 34.3106 17.3939" fill="white"/>
<path d="M34.4495 18.0757L34.5252 19.2512L34.2651 19.2664L34.202 18.3087L33.553 18.3543L33.6111 19.2385L33.3661 19.2537L33.3106 18.367L32.5808 18.4177L32.6464 19.388L32.3889 19.4031L32.3131 18.215L34.4495 18.0757Z" fill="white"/>
<path d="M32.5555 20.224C32.5656 20.0213 32.6515 19.8744 32.8207 19.7908C32.9874 19.7072 33.1894 19.6667 33.4267 19.6768C33.7273 19.6895 33.9495 19.7503 34.0985 19.8617C34.25 19.9732 34.3182 20.1125 34.3131 20.2823C34.3055 20.452 34.2247 20.5863 34.0656 20.6825C33.9091 20.7763 33.702 20.8219 33.4495 20.8117C33.2071 20.8016 32.9975 20.7484 32.8156 20.6521C32.6363 20.5609 32.5505 20.414 32.5555 20.224ZM34.5656 20.2797C34.5808 20.0061 34.4545 19.7959 34.1944 19.6464C33.9924 19.5324 33.7475 19.4665 33.4596 19.4589C33.1363 19.4463 32.8687 19.4969 32.654 19.6185C32.4318 19.7503 32.3156 19.9403 32.3055 20.1885C32.2954 20.452 32.4116 20.6648 32.6565 20.8143C32.8636 20.946 33.1262 21.0195 33.447 21.0321C33.7424 21.0423 33.9874 20.9992 34.1818 20.8979C34.4318 20.7712 34.5606 20.5609 34.5682 20.2797" fill="white"/>
<path d="M32.5404 21.2855L34.1641 21.5211L34.1111 21.9011C34.0833 22.0733 33.9924 22.1873 33.8358 22.2456C33.6793 22.3013 33.4697 22.3089 33.2096 22.2735C33.1414 22.2633 33.0682 22.2456 32.9899 22.2228C32.8586 22.1873 32.7525 22.1392 32.6742 22.0885C32.5757 22.0176 32.5151 21.9391 32.4848 21.8479C32.4722 21.7997 32.4722 21.7389 32.4848 21.6655L32.5404 21.2829V21.2855ZM32.3257 21.0347L32.2323 21.6731C32.1969 21.9441 32.3283 22.1595 32.6313 22.3165C32.8055 22.4077 33.005 22.4685 33.2298 22.504C33.5202 22.5445 33.7651 22.5243 33.9722 22.4457C34.1944 22.3571 34.3232 22.2025 34.3535 21.9847L34.447 21.3412L32.3257 21.0347Z" fill="white"/>
<path d="M34.1944 22.9625L33.9116 24.1076L33.6591 24.0442L33.8863 23.112L33.255 22.9549L33.0429 23.8137L32.8055 23.7554L33.0151 22.8941L32.308 22.7218L32.0757 23.6642L31.8282 23.606L32.1136 22.4482L34.1944 22.9625Z" fill="white"/>
<path d="M32.4116 24.0391C32.298 24.0036 32.1995 23.9884 32.1136 24.0011C31.9571 24.0188 31.851 24.1075 31.7904 24.2696C31.7677 24.3456 31.7576 24.4165 31.7677 24.49C31.7828 24.6293 31.8636 24.7231 32.0126 24.7763C32.1237 24.8117 32.2096 24.8117 32.2752 24.7864C32.3384 24.7484 32.404 24.6825 32.4773 24.5863L32.6035 24.4115C32.6894 24.2949 32.7651 24.2189 32.8333 24.1835C32.947 24.1227 33.0909 24.1201 33.2601 24.1759C33.4444 24.2417 33.5758 24.338 33.6641 24.4723C33.75 24.6065 33.7651 24.756 33.7045 24.9257C33.654 25.0752 33.5556 25.1917 33.4141 25.2627C33.2752 25.3361 33.0909 25.3311 32.8662 25.2551L32.9318 25.0625C33.0455 25.0904 33.1364 25.098 33.202 25.0879C33.3283 25.0625 33.4167 24.9789 33.4646 24.8371C33.5076 24.718 33.5025 24.6243 33.452 24.5483C33.4015 24.4723 33.3308 24.4165 33.2424 24.3887C33.1439 24.3532 33.0606 24.3608 32.9924 24.4039C32.9495 24.4317 32.8838 24.5103 32.7904 24.6344L32.654 24.8143C32.5884 24.9029 32.5202 24.9663 32.447 25.0017C32.3182 25.0625 32.1641 25.0625 31.9848 24.9967C31.7601 24.9207 31.6237 24.8016 31.5657 24.6496C31.5126 24.4951 31.5126 24.338 31.5657 24.186C31.6313 24.0011 31.7424 23.8795 31.9091 23.8187C32.0732 23.7604 32.2651 23.7705 32.4848 23.8465L32.4141 24.0416" fill="white"/>
<path d="M33.3763 25.6805L33.2727 25.911L32.1439 25.9009L32.8889 26.7521L32.7853 26.9826L31.8712 25.8958L31.0884 25.5361L31.1768 25.3359L31.9621 25.6982L33.3763 25.6805Z" fill="white"/>
<path d="M30.5202 29.3334C30.4116 29.2473 30.3535 29.1637 30.3434 29.0801C30.3359 28.999 30.3611 28.9205 30.4217 28.842L30.6818 28.4974L31.2702 28.9458L31.0101 29.2904C30.9545 29.3588 30.9066 29.3993 30.8535 29.4221C30.7576 29.4576 30.6439 29.4246 30.5177 29.3334H30.5202ZM29.899 27.6285L29.7702 27.8008L30.4874 28.348L30.1843 28.7508C30.0884 28.8774 30.0657 29.0142 30.1136 29.151C30.1667 29.2878 30.2576 29.4094 30.3914 29.5082C30.548 29.6248 30.6944 29.683 30.8333 29.683C30.9722 29.678 31.0859 29.6172 31.1692 29.5006L31.6061 28.9256L29.899 27.626" fill="white"/>
<path d="M30.702 30.0936L30.5556 30.2583L29.904 29.6528L29.3434 30.2684L29.9924 30.8688L29.846 31.0284L28.2702 29.5743L28.4167 29.4172L29.1515 30.0936L29.7197 29.478L28.9798 28.7991L29.1263 28.6445L30.702 30.0936Z" fill="white"/>
<path d="M27.7677 30.2888C27.9192 30.152 28.0833 30.1165 28.2601 30.1799C28.4369 30.2432 28.6035 30.3623 28.7601 30.5421C28.9596 30.7701 29.0682 30.9753 29.0909 31.1603C29.1136 31.3452 29.0606 31.4921 28.9344 31.6036C28.803 31.7176 28.654 31.7505 28.4748 31.7024C28.298 31.6517 28.1263 31.5301 27.9596 31.3401C27.803 31.1628 27.6945 30.9753 27.6338 30.7777C27.5758 30.5801 27.6187 30.418 27.7652 30.2939L27.7677 30.2888ZM29.1136 31.786C29.3182 31.6036 29.3813 31.3705 29.3106 31.0767C29.2551 30.8563 29.1313 30.6283 28.9369 30.4104C28.7248 30.1647 28.5025 30.0101 28.2702 29.9392C28.0177 29.8657 27.8005 29.9139 27.6162 30.0785C27.4167 30.2533 27.3485 30.4839 27.4066 30.7651C27.4546 31.0032 27.5833 31.2464 27.7955 31.4845C27.9899 31.7075 28.1894 31.8569 28.3965 31.9279C28.6591 32.0216 28.899 31.9709 29.1111 31.7835" fill="white"/>
<path d="M27.3384 33.0984L27.1894 32.8932L27.6263 32.5765L26.5202 31.0413L26.6919 30.9121L27.8056 32.4448L28.2424 32.1256L28.3914 32.3333L27.3384 33.0984Z" fill="white"/>
<path d="M25.5985 31.8719C25.7752 31.7655 25.9419 31.7655 26.1035 31.8592C26.2651 31.9529 26.4091 32.1049 26.5277 32.3101C26.6843 32.5685 26.7525 32.7889 26.7424 32.9764C26.7298 33.1613 26.649 33.2931 26.5075 33.3843C26.356 33.4704 26.202 33.4729 26.0353 33.3893C25.8712 33.3083 25.7222 33.1613 25.5934 32.9435C25.4697 32.7357 25.4015 32.5305 25.3788 32.3253C25.3586 32.1227 25.4318 31.9707 25.5959 31.8719H25.5985ZM26.649 33.5945C26.8813 33.4552 26.9899 33.2373 26.9697 32.9409C26.957 32.7028 26.8762 32.4621 26.7272 32.2139C26.5631 31.9327 26.3762 31.7401 26.1616 31.6236C25.9242 31.5071 25.702 31.5147 25.4924 31.6413C25.2651 31.7731 25.1515 31.9884 25.1565 32.2772C25.1616 32.5204 25.2449 32.7813 25.4065 33.06C25.558 33.3184 25.7298 33.4957 25.9192 33.6047C26.1616 33.7465 26.404 33.744 26.649 33.5971" fill="white"/>
<path d="M24.6995 34.466C24.5101 34.433 24.3409 34.2937 24.1919 34.053L24.3888 33.9644C24.4747 34.091 24.5732 34.1746 24.6767 34.205C24.7777 34.2354 24.8888 34.2278 25 34.1772C25.1338 34.1164 25.2146 33.9922 25.2449 33.8174C25.2727 33.6401 25.2247 33.4172 25.1035 33.1461C24.9949 32.9181 24.8737 32.7433 24.7298 32.6318C24.5909 32.5204 24.4318 32.5052 24.2651 32.5812C24.1313 32.642 24.0454 32.7408 24.0101 32.8826C23.9722 33.022 24.0025 33.2094 24.1035 33.4374L24.5631 33.2272L24.6641 33.4476L24.0227 33.744L23.5454 32.6977L23.6717 32.6394L23.8358 32.875C23.856 32.7458 23.8813 32.6496 23.9141 32.5862C23.9722 32.4798 24.0656 32.3937 24.1969 32.3354C24.3661 32.2569 24.5479 32.2645 24.7399 32.3582C24.9596 32.4824 25.1464 32.7129 25.2954 33.0422C25.4444 33.3665 25.5 33.6578 25.457 33.9137C25.4166 34.1518 25.2954 34.3165 25.101 34.4102C24.9646 34.4736 24.8308 34.4938 24.6995 34.466Z" fill="white"/>
<path d="M23.5555 33.9293L23.7904 34.6183L23.298 34.783C23.2273 34.8083 23.1666 34.8134 23.1187 34.8033C23.0252 34.7779 22.9545 34.6918 22.904 34.5474C22.8586 34.4157 22.8535 34.3093 22.8889 34.2409C22.9293 34.1725 22.9949 34.1218 23.0909 34.0889L23.5555 33.9318V33.9293ZM23.3863 32.7563L23.1793 32.8247L23.4773 33.7013L23.0202 33.8558C22.9419 33.8811 22.8762 33.8938 22.8283 33.8786C22.7449 33.8558 22.6793 33.7798 22.6313 33.6455L22.5025 33.3086C22.4747 33.2301 22.4495 33.1794 22.4368 33.1541C22.4217 33.1237 22.4091 33.1034 22.3939 33.0907L22.1439 33.1769L22.1591 33.225C22.1944 33.2301 22.2298 33.2655 22.2677 33.3263C22.2879 33.3618 22.3131 33.415 22.3384 33.491L22.4394 33.7621C22.4848 33.8786 22.5303 33.9622 22.5783 34.0053C22.6237 34.0458 22.6868 34.0737 22.755 34.0863C22.702 34.1573 22.6717 34.2358 22.6591 34.327C22.6464 34.4182 22.6641 34.5221 22.7045 34.6462C22.7828 34.8818 22.9091 35.0161 23.0808 35.0566C23.1692 35.0743 23.2702 35.0693 23.3838 35.0287L24.0757 34.7906L23.3863 32.7563Z" fill="white"/>
<path d="M21.9646 34.1243L21.9318 35.1098L21.4747 34.2383L21.9646 34.1243ZM22.2172 33.1616L21.9924 33.2123L21.9722 33.876L21.3611 34.0255L21.0505 33.4378L20.8182 33.4935L21.8788 35.4518L22.1263 35.396L22.2197 33.1642" fill="white"/>
<path d="M21.1136 35.6213L20.808 35.6618L20.1136 33.9214L19.8939 35.7885L19.5883 35.8265L19.308 33.6934L19.5101 33.6681L19.6767 34.9271C19.6818 34.9702 19.6894 35.0411 19.6969 35.145C19.7096 35.2438 19.7197 35.3502 19.7348 35.4693L19.9646 33.6098L20.1793 33.5794L20.8762 35.3173L20.8687 35.2489C20.8611 35.1957 20.8484 35.1197 20.8308 35.0107C20.8156 34.9043 20.8055 34.8258 20.7979 34.7777L20.6313 33.5186L20.8333 33.4907L21.1136 35.6213Z" fill="white"/>
<path d="M19.2399 35.8493L18.9343 35.8543L18.4369 34.0481L18.0101 35.8746L17.702 35.8822L17.6641 33.7339L17.8661 33.7289L17.8889 35.0006V35.2159C17.8863 35.3173 17.8863 35.4262 17.8889 35.5453L18.3232 33.7187H18.5429L19.0404 35.5225V35.4566C19.0353 35.4034 19.0353 35.3223 19.0303 35.2134C19.0227 35.107 19.0202 35.0285 19.0202 34.9753L18.9975 33.7111L19.1995 33.7061L19.2399 35.8518" fill="white"/>
<path d="M17.3485 35.8572L16.1793 35.7584L16.1995 35.4975L17.154 35.5735L17.207 34.925L16.3257 34.854L16.3485 34.6032L17.2272 34.6792L17.2878 33.9496L16.3232 33.8711L16.3459 33.6152L17.5252 33.7115L17.3485 35.8572Z" fill="white"/>
<path d="M14.755 35.5253L14.7954 35.272L15.3308 35.3657L15.6464 33.4961L15.8611 33.5341L15.5479 35.4012L16.0808 35.4898L16.0404 35.7381L14.755 35.5253Z" fill="white"/>
<path d="M14.5859 34.474L14.399 35.1782L13.9015 35.044C13.8308 35.0262 13.7778 34.9958 13.7424 34.9578C13.6793 34.8844 13.6641 34.7754 13.7045 34.626C13.7399 34.4892 13.7929 34.4005 13.8611 34.365C13.9293 34.3296 14.0152 34.3194 14.1111 34.3473L14.5859 34.4714V34.474ZM15.0909 33.3973L14.8813 33.3441L14.6465 34.2358L14.1793 34.1142C14.096 34.094 14.0379 34.0636 14.0076 34.0281C13.9495 33.9648 13.9369 33.8634 13.9672 33.7292L14.0455 33.3745C14.0631 33.2909 14.0732 33.2377 14.0783 33.2073C14.0783 33.1769 14.0783 33.1541 14.0783 33.1313L13.8232 33.0654L13.8106 33.111C13.8384 33.1389 13.8485 33.1845 13.846 33.2554C13.8409 33.2985 13.8333 33.3618 13.8157 33.4353L13.75 33.7216C13.7247 33.8432 13.7172 33.9369 13.7349 33.9977C13.75 34.0585 13.7828 34.1168 13.8359 34.1649C13.7551 34.1953 13.6843 34.2409 13.6237 34.3144C13.5657 34.3828 13.5177 34.4816 13.4874 34.6057C13.4242 34.8438 13.4545 35.0262 13.5783 35.1529C13.6389 35.2137 13.7298 35.2644 13.8434 35.2973L14.5505 35.4822L15.096 33.4024" fill="white"/>
<path d="M13.1742 35.1097L12.9394 35.0261L12.8561 33.8963L12.0732 34.7095L11.8384 34.6233L12.8409 33.6277L13.1364 32.812L13.3409 32.8855L13.0454 33.6987L13.1742 35.1097Z" fill="white"/>
<path d="M11.7626 32.4116C11.8258 32.4394 11.8712 32.5002 11.899 32.5813C11.9293 32.6674 11.9141 32.7586 11.8636 32.86C11.8157 32.9537 11.755 33.0221 11.6793 33.0652C11.6313 33.0956 11.5379 33.1285 11.4066 33.164L11.3485 32.4698C11.404 32.4293 11.4697 32.3989 11.5429 32.3812C11.6187 32.3634 11.6894 32.3736 11.7626 32.409V32.4116ZM11.2096 33.3996C11.2172 33.506 11.2247 33.5845 11.2222 33.6478C11.2197 33.7086 11.2045 33.7618 11.1768 33.815C11.1616 33.8556 11.1338 33.886 11.1035 33.9138C11.0429 33.9645 10.9747 33.9721 10.9015 33.9341C10.8535 33.9088 10.8258 33.8708 10.8182 33.815C10.8081 33.7593 10.8207 33.7061 10.8485 33.6478C10.8864 33.5769 10.9369 33.5186 11.005 33.4781C11.048 33.4528 11.1136 33.4274 11.2096 33.3996ZM11.4217 33.3768C11.5758 33.3464 11.6843 33.3084 11.755 33.2678C11.8712 33.207 11.9646 33.1006 12.0353 32.9562C12.101 32.8245 12.1313 32.6826 12.1162 32.5382C12.101 32.3964 12.0227 32.29 11.8737 32.2165C11.7727 32.1633 11.6717 32.1506 11.5606 32.1734C11.4975 32.1836 11.4217 32.2165 11.3308 32.2672L11.303 31.986L11.0808 31.8745L11.1263 32.409C11.1389 32.3913 11.0985 32.4268 11.0076 32.5205C10.9167 32.6193 10.8359 32.7257 10.7626 32.8448L10.9318 32.9284C10.9697 32.8701 11 32.827 11.0227 32.7916C11.0505 32.7637 11.0859 32.7181 11.1389 32.6522L11.1894 33.202C11.0758 33.2324 10.9874 33.2653 10.9268 33.3058C10.8207 33.3666 10.7374 33.4578 10.6768 33.5845C10.6237 33.6884 10.6086 33.7948 10.6237 33.8986C10.6389 34.0025 10.6995 34.081 10.798 34.1317C10.904 34.1849 11.0101 34.1874 11.1111 34.1368C11.2121 34.0861 11.298 33.9974 11.3586 33.8758C11.3889 33.8176 11.4116 33.7517 11.4217 33.6732C11.4318 33.6022 11.4318 33.5009 11.4217 33.3793" fill="white"/>
<path d="M8.62374 32.6446C8.61112 32.4673 8.64899 32.2925 8.7399 32.1354L8.91162 32.2519C8.85859 32.3811 8.83334 32.5002 8.84849 32.6041C8.86617 32.7105 8.92425 32.7991 9.03031 32.8751C9.15909 32.9587 9.30556 32.9714 9.4697 32.9005C9.63132 32.8321 9.80051 32.6674 9.97223 32.4166C10.1111 32.2089 10.1869 32.0163 10.2045 31.8365C10.2197 31.6566 10.1566 31.5198 10.0126 31.421C9.88132 31.3349 9.73738 31.3349 9.57324 31.421C9.48738 31.4717 9.39647 31.5502 9.30303 31.6541L9.12374 31.5375C9.26768 31.3577 9.42425 31.2361 9.59849 31.1651C9.80556 31.0815 9.99748 31.1043 10.1768 31.2234C10.3308 31.3298 10.4141 31.4767 10.4369 31.6743C10.4647 31.9327 10.3611 32.2393 10.1288 32.5813C9.95202 32.8422 9.75505 33.0246 9.53788 33.1234C9.30303 33.2323 9.08839 33.2197 8.89142 33.0829C8.72475 32.9739 8.63384 32.827 8.62122 32.6446" fill="white"/>
<path d="M8.71209 31.3073L7.91159 31.8824L8.32321 30.9932L8.71209 31.3099V31.3073ZM9.63129 30.9248L9.45452 30.7779L8.91411 31.1655L8.42927 30.7652L8.70452 30.1597L8.5227 30.0103L7.61108 32.042L7.80553 32.2041L9.63129 30.9248Z" fill="white"/>
<path d="M7.53788 30.6715L7.02778 31.1883L6.65909 30.8209C6.60859 30.7703 6.57576 30.7196 6.56566 30.6715C6.54798 30.5727 6.59091 30.4713 6.69697 30.3624C6.79546 30.2636 6.88637 30.2104 6.96465 30.2155C7.04293 30.2155 7.11869 30.256 7.1894 30.3269L7.53536 30.674L7.53788 30.6715ZM8.5101 29.9976L8.35859 29.8456L7.7096 30.4992L7.36616 30.1597C7.30556 30.0989 7.2702 30.0483 7.2601 29.9951C7.24495 29.9115 7.28536 29.8203 7.37626 29.7164L7.62121 29.4529C7.67424 29.3871 7.71212 29.344 7.7298 29.3187C7.74748 29.2959 7.7601 29.2731 7.76515 29.2553L7.57576 29.0679L7.54546 29.1008C7.55556 29.1413 7.54041 29.1869 7.50253 29.2427C7.4798 29.2781 7.44192 29.3263 7.38384 29.3871L7.18687 29.5999C7.10354 29.6911 7.05051 29.7671 7.03536 29.8279C7.0202 29.8912 7.0202 29.952 7.04041 30.028C6.95455 30.0077 6.87121 30.0179 6.78283 30.0483C6.69697 30.0761 6.60859 30.1369 6.51768 30.2307C6.34596 30.4004 6.28031 30.5752 6.32323 30.75C6.34344 30.8361 6.39647 30.9248 6.48233 31.0084L7 31.5277L8.50758 30.0001" fill="white"/>
<path d="M5.17419 29.5288L5.36864 29.3641L5.71965 29.7846L7.15904 28.561L7.30046 28.7282L5.85601 29.9442L6.20702 30.3622L6.0151 30.5294L5.17419 29.5288Z" fill="white"/>
<path d="M6.27272 27.6998C6.38635 27.867 6.40151 28.0342 6.3207 28.2014C6.23736 28.3686 6.09847 28.5231 5.90151 28.6625C5.65656 28.8322 5.44191 28.9158 5.25757 28.9183C5.07322 28.9183 4.92928 28.8474 4.83332 28.7081C4.73736 28.5687 4.72221 28.4117 4.79039 28.2419C4.8611 28.0697 4.99999 27.9126 5.20959 27.7657C5.40403 27.6289 5.60353 27.5402 5.80555 27.5073C6.00504 27.4718 6.16161 27.5326 6.27272 27.6947V27.6998ZM4.6313 28.8702C4.78534 29.0931 5.01262 29.1869 5.30807 29.1489C5.54039 29.1159 5.77524 29.0197 6.01514 28.8525C6.27777 28.6675 6.45959 28.4649 6.5606 28.2394C6.65908 27.9962 6.63888 27.7758 6.49494 27.5731C6.34595 27.3527 6.12625 27.2565 5.8409 27.2818C5.59847 27.3046 5.34342 27.4059 5.0808 27.5883C4.83837 27.7581 4.66918 27.943 4.57322 28.1381C4.45201 28.3914 4.47221 28.6346 4.63383 28.8702" fill="white"/>
<path d="M3.62622 26.9751C3.64642 26.7826 3.77269 26.6053 4.00248 26.4381L4.10349 26.6281C3.97976 26.7243 3.904 26.8257 3.8838 26.9321C3.86107 27.0435 3.87622 27.1449 3.93683 27.2563C4.00501 27.3881 4.13127 27.4565 4.30804 27.4717C4.48733 27.4894 4.7045 27.4311 4.96208 27.2867C5.18683 27.1677 5.34844 27.0283 5.44945 26.8789C5.55046 26.7294 5.55299 26.5698 5.46461 26.4102C5.39642 26.281 5.28784 26.205 5.14642 26.1721C5.00248 26.1467 4.82319 26.1923 4.60097 26.3063L4.84339 26.7522L4.63127 26.8687L4.29289 26.2455L5.30299 25.6958L5.36865 25.8174L5.14895 25.9998C5.27774 26.0125 5.37622 26.0302 5.44188 26.0606C5.55046 26.1113 5.63885 26.1974 5.70956 26.3266C5.79794 26.4913 5.80299 26.6737 5.72723 26.8687C5.61612 27.0993 5.40147 27.3019 5.08329 27.4742C4.77016 27.6465 4.48481 27.7199 4.22723 27.6946C3.98228 27.6718 3.81057 27.5654 3.70703 27.3729C3.63885 27.2411 3.60855 27.1069 3.6237 26.9751" fill="white"/>
<path d="M4.08582 25.7867L3.4141 26.0679L3.21713 25.5841C3.18935 25.5207 3.17925 25.4599 3.18935 25.4042C3.20956 25.3079 3.29036 25.2345 3.42925 25.1737C3.55804 25.1179 3.66158 25.1053 3.73228 25.1407C3.80299 25.1737 3.86107 25.237 3.89642 25.3282L4.08582 25.7842V25.7867ZM5.24238 25.5461L5.16158 25.3409L4.30804 25.6981L4.12622 25.2522C4.09087 25.1686 4.08077 25.1053 4.08834 25.0571C4.10349 24.971 4.17925 24.9026 4.30299 24.8443L4.63127 24.6974C4.7045 24.6645 4.75501 24.6341 4.78279 24.6189C4.80804 24.6037 4.82572 24.5885 4.84087 24.5733L4.73986 24.3301L4.69693 24.3427C4.68935 24.3858 4.65905 24.4187 4.59844 24.4618C4.56562 24.4821 4.51259 24.515 4.43935 24.5429L4.17673 24.6645C4.06057 24.7126 3.98481 24.7658 3.9444 24.8165C3.904 24.8646 3.8838 24.9254 3.87622 24.9989C3.80551 24.9482 3.72218 24.9254 3.62875 24.9178C3.54036 24.9127 3.4343 24.933 3.31562 24.9837C3.08834 25.0749 2.96208 25.2117 2.9343 25.3865C2.92168 25.4751 2.9343 25.5765 2.98481 25.6879L3.26511 26.3694L5.24238 25.5486" fill="white"/>
<path d="M3.78783 24.2063L2.80803 24.2367L3.64137 23.725L3.79036 24.2088L3.78783 24.2063ZM4.76258 24.3988L4.69692 24.1784L4.03278 24.1987L3.85096 23.5932L4.41662 23.2462L4.34591 23.0156L2.4646 24.2038L2.53783 24.447L4.76258 24.3988Z" fill="white"/>
<path d="M2.65908 22.3468C2.79797 22.3189 2.89645 22.3316 2.96463 22.3822C3.03029 22.4278 3.0707 22.5038 3.0909 22.5976L3.17423 23.0181L2.45201 23.1701L2.36615 22.742C2.34847 22.6584 2.351 22.5951 2.3712 22.5393C2.40655 22.4431 2.50504 22.3822 2.65655 22.3442L2.65908 22.3468ZM4.34847 23.0029L4.30554 22.7901L3.41918 22.97L3.31817 22.4734C3.28534 22.3164 3.20453 22.21 3.06564 22.1593C2.92676 22.1087 2.77777 22.0985 2.61362 22.1289C2.42423 22.1694 2.28282 22.2429 2.19443 22.3519C2.10605 22.4608 2.07827 22.5824 2.10352 22.7242L2.24999 23.4285L4.34595 23.0004" fill="white"/>
<path d="M1.96735 21.9744L1.94462 21.7565L2.82846 21.6653L2.74008 20.8344L1.86129 20.9281L1.83856 20.7077L3.96988 20.4873L3.9926 20.7052L2.99765 20.8116L3.08351 21.6374L4.07594 21.5336L4.09866 21.7514L1.96735 21.9744Z" fill="white"/>
<path d="M1.82321 20.4925L1.82069 20.2391L2.84594 19.7654L1.81564 19.3145L1.81311 19.0586L3.09846 19.659L3.95958 19.6514V19.8667L3.09846 19.8718L1.82321 20.4925Z" fill="white"/>
<path d="M30.197 19.6458L27.1263 18.8706V20.459L30.197 19.6458Z" fill="white"/>
<path d="M27.1263 20.6288C27.0884 20.6288 27.0531 20.6161 27.0227 20.5933C26.9798 20.5604 26.9571 20.5097 26.9571 20.459V18.8706C26.9571 18.8174 26.9823 18.7693 27.0227 18.7364C27.0632 18.7034 27.1187 18.6933 27.1692 18.706L30.2399 19.4837C30.3157 19.504 30.3687 19.5698 30.3687 19.6484C30.3687 19.7269 30.3182 19.7953 30.2424 19.8156L27.1717 20.6288C27.1566 20.6313 27.144 20.6338 27.1288 20.6338L27.1263 20.6288ZM27.2955 19.0885V20.2361L29.5152 19.6484L27.2955 19.086V19.0885Z" fill="white"/>
<path d="M6.15155 19.6818L9.22478 20.4595V18.8711L6.15155 19.6818Z" fill="white"/>
<path d="M9.22476 20.629C9.20961 20.629 9.19698 20.629 9.18436 20.624L6.11365 19.8462C6.03789 19.826 5.98486 19.7601 5.98486 19.6816C5.98486 19.603 6.03537 19.5346 6.11113 19.5144L9.18183 18.7012C9.23234 18.6885 9.28789 18.7012 9.3283 18.7316C9.37123 18.7645 9.39395 18.8152 9.39395 18.8658V20.4542C9.39395 20.5074 9.3687 20.5556 9.3283 20.5885C9.29799 20.6113 9.26012 20.624 9.22476 20.624V20.629ZM6.83587 19.679L9.05557 20.2414V19.0938L6.83587 19.6816V19.679Z" fill="white"/>
<path d="M18.2651 31.7988L19.0404 28.7183H17.4545L18.2651 31.7988Z" fill="white"/>
<path d="M18.2651 31.9683C18.1868 31.9683 18.1212 31.9151 18.101 31.8417L17.2904 28.7611C17.2778 28.7105 17.2904 28.6547 17.3207 28.6142C17.3535 28.5711 17.4015 28.5483 17.4545 28.5483H19.0379C19.0909 28.5483 19.1389 28.5737 19.1717 28.6142C19.2045 28.6547 19.2146 28.7105 19.202 28.7611L18.4267 31.8417C18.4091 31.9177 18.3409 31.9709 18.2626 31.9709L18.2651 31.9683ZM17.6767 28.8878L18.2626 31.1146L18.8232 28.8878H17.6793H17.6767Z" fill="white"/>
<path d="M5.74998 19.7321H5.4621C5.4621 12.3475 11.3257 7.49866 16.9949 7.07812L17.0151 7.36692C11.4772 7.77732 5.74745 12.5172 5.74745 19.7321H5.74998Z" fill="white"/>
<path d="M30.8737 19.7321H30.5859C30.5859 12.5147 24.8586 7.77732 19.3182 7.36692L19.3384 7.07812C25.0076 7.49866 30.8712 12.3475 30.8712 19.7321H30.8737Z" fill="white"/>
<path d="M20.6389 1.55322H15.745V2.08016H20.6389V1.55322Z" fill="#172D9D"/>
<path d="M20.745 2.18904H15.6389V1.44678H20.745V2.18904ZM15.851 1.97371H20.5303V1.66211H15.851V1.97371Z" fill="white"/>
<path d="M20.8566 1.55322H20.6465V2.08016H20.8566V1.55322Z" fill="white"/>
<path d="M20.9646 1.44678H20.5404V2.18904H20.9646V1.44678Z" fill="white"/>
<path d="M15.6975 1.55322H15.4874V2.08016H15.6975V1.55322Z" fill="white"/>
<path d="M15.8055 1.44678H15.3813V2.18904H15.8055V1.44678Z" fill="white"/>
<path d="M42.6665 19.3399H46.1286V17.6021H48.3862V19.3399H51.8811L51.8635 21.1665H42.6665V19.3399ZM47.265 28.047C45.0074 28.047 43.4291 26.7702 43.4291 24.8905C43.4291 23.0107 45.0074 21.7517 47.265 21.7517C49.5226 21.7517 51.1008 23.0462 51.1008 24.8905C51.1008 26.7347 49.4897 28.047 47.265 28.047ZM55.5301 33.6684H44.8913V28.9337H47.1311V31.8065H55.5301V33.6684ZM47.265 26.2737C48.2827 26.2737 48.962 25.7949 48.962 24.8905C48.962 23.9861 48.2827 23.525 47.265 23.525C46.2473 23.525 45.568 23.9861 45.568 24.8905C45.568 25.7949 46.2473 26.2737 47.265 26.2737ZM54.9695 24.5358V29.8381H52.7296V17.6173H54.9695V22.6003H57.0402V24.5332H54.9695V24.5358Z" fill="white"/>
<path d="M71.6488 28.1181V33.9523H69.3913V29.9623H60.5503V28.1181H65.0655V25.8127H59.1261V23.9507H69.0705C69.3584 22.4611 69.4089 21.273 69.4089 20.1913H60.8736V18.3115H71.616V19.6238C71.616 20.8474 71.6337 22.1774 71.3104 23.9507H73.2776V25.8127H67.3054V28.1181H71.6488Z" fill="white"/>
<path d="M75.5857 27.5863V25.7243H89.7044V27.5863H75.5857ZM81.3559 20.954H76.9266V19.1452H81.5074V17.6733H83.7473V19.1452H88.3458V20.954H83.9165C84.1892 22.0889 85.664 23.1352 89.0756 23.3657L88.414 25.1036C85.4114 24.8908 83.6109 24.0396 82.6438 22.7451C81.6261 24.0396 79.7751 24.8908 76.8407 25.1036L76.1791 23.3657C79.5907 23.1352 81.0832 22.0889 81.3559 20.954ZM88.0074 33.9728H85.7675V30.6389H77.1463V28.7947H88.0074V33.9728Z" fill="white"/>
<path d="M92.5908 20.4574V18.5777H99.717V23.4899H94.8307V24.9085C97.3584 24.9085 99.0908 24.7844 101.043 24.412L101.23 26.2917C99.0756 26.7173 97.0554 26.7882 93.9493 26.7882H92.6084V21.752H97.5125V20.4574H92.5908ZM104.502 30.8669C104.502 32.7998 102.449 33.9702 99.2069 33.9702C95.9645 33.9702 93.9115 32.7998 93.9115 30.8669C93.9115 28.934 95.9317 27.7636 99.2069 27.7636C102.482 27.7636 104.502 28.8808 104.502 30.8669ZM102.295 30.8669C102.295 29.998 101.26 29.5547 99.2069 29.5547C97.1539 29.5547 96.1185 29.998 96.1185 30.8669C96.1185 31.7358 97.1539 32.1792 99.2069 32.1792C101.26 32.1792 102.295 31.7358 102.295 30.8669ZM106.419 23.2593V25.1568H104.348V27.4621H102.108V17.6201H104.348V19.8191H106.419V21.7165H104.348V23.2593H106.419Z" fill="white"/>
<path d="M108.507 19.0563H111.97V17.5312H114.227V19.0563H117.707V20.9006H108.51V19.0563H108.507ZM113.106 27.4265C110.848 27.4265 109.27 26.1851 109.27 24.4118C109.27 22.6385 110.848 21.4149 113.106 21.4149C115.363 21.4149 116.942 22.6385 116.942 24.4118C116.942 26.1851 115.363 27.4265 113.106 27.4265ZM120.81 33.97H118.571V30.4057H110.391V28.5259H120.81V33.97ZM113.106 25.6531C114.124 25.6531 114.803 25.2453 114.803 24.4118C114.803 23.5783 114.124 23.1882 113.106 23.1882C112.088 23.1882 111.409 23.5783 111.409 24.4118C111.409 25.2453 112.088 25.6531 113.106 25.6531ZM120.81 27.8521H118.571V17.6199H120.81V21.8227H122.881V23.7557H120.81V27.8521Z" fill="white"/>
<path d="M134.947 28.8804L135.116 30.5651C131.704 31.2212 128.073 31.2389 125.326 31.2389L125.053 29.3415C126.225 29.3415 127.512 29.3592 128.939 29.306V27.9228C127.242 27.5859 126.174 26.4864 126.174 24.9791C126.174 23.1348 127.77 21.8935 130.06 21.8935C132.351 21.8935 133.929 23.1348 133.929 24.9791C133.929 26.4864 132.876 27.5859 131.179 27.9228V29.2173C132.47 29.1464 133.725 29.0755 134.947 28.8804ZM125.358 19.4285H128.939V17.6729H131.179V19.4285H134.742V21.2551H125.358V19.4285ZM130.058 26.2736C131.144 26.2736 131.805 25.8125 131.805 24.9791C131.805 24.1456 131.144 23.6668 130.058 23.6668C128.972 23.6668 128.31 24.1279 128.31 24.9791C128.31 25.8303 129.023 26.2736 130.058 26.2736ZM135.76 33.9521V17.6172H138V33.9521H135.76Z" fill="white"/>
<path d="M48.3584 10.6638L47.7473 11.4947C46.8054 10.9779 46.1084 10.0254 45.7296 8.79923C45.3508 10.0659 44.6236 11.1299 43.616 11.667L43.0049 10.8259C44.3811 10.1267 45.2246 8.39389 45.2246 6.70163V5.20189H46.2246V6.70163C46.2246 8.33309 47.0478 9.99496 48.3584 10.6638ZM49.9392 8.93096V13.5923H48.9392V4.44189H49.9392V8.06963H51.3079V8.93096H49.9392Z" fill="white"/>
<path d="M53.6336 9.49831H52.9266V5.19164H56.8256V6.04284H53.9266V8.63697C55.5857 8.63697 56.5251 8.58631 57.5831 8.34311L57.6791 9.18417C56.5352 9.42737 55.5175 9.49831 53.6336 9.49831ZM59.7523 12.5687V13.4199H53.8559V10.39H54.8634V12.5687H59.7523ZM60.6437 7.91751H59.4013V11.0588H58.4013V4.43164H59.4013V7.05617H60.6437V7.91751Z" fill="white"/>
<path d="M69.2271 9.45777H68.2271V7.47164H66.4039V9.14364H62.3685V4.89777H63.3584V6.19484H65.4241V4.90791H66.4039V6.62044H68.2271V4.43164L69.2271 4.44177V9.45777ZM63.3584 7.00551V8.29244H65.4241V7.00551H63.3584ZM69.2271 9.87324V13.4706H63.5352V9.87324H64.5251V10.846H68.2296V9.87324H69.2296H69.2271ZM64.5226 11.6668V12.6295H68.2271V11.6668H64.5226Z" fill="white"/>
<path d="M73.8711 9.63016C72.5529 9.63016 71.5428 8.66749 71.5428 7.34003C71.5428 6.01256 72.5504 5.04989 73.8711 5.04989C75.1918 5.04989 76.1892 5.99229 76.1892 7.34003C76.1892 8.68776 75.1893 9.63016 73.8711 9.63016ZM73.8711 8.72829C74.6362 8.72829 75.2196 8.17096 75.2196 7.34003C75.2196 6.50909 74.6387 5.95176 73.8711 5.95176C73.1034 5.95176 72.5226 6.48883 72.5226 7.34003C72.5226 8.19123 73.0958 8.72829 73.8711 8.72829ZM78.8458 13.42H72.8711V10.4206H73.8786V12.5688H78.8433V13.42H78.8458ZM77.5958 11.0894V4.44189H78.5958V11.0894H77.5958Z" fill="white"/>
</svg>
