<svg width="218" height="60" viewBox="0 0 218 60" fill="none" xmlns="http://www.w3.org/2000/svg">
<g clip-path="url(#clip0_366_1039)">
<path d="M28.7739 59.9999C12.9089 59.9999 0 46.9919 0 30.9999C0 23.8679 2.48924 17.0719 7.01296 11.8599C11.4968 6.6919 17.7797 3.2999 24.6969 2.3079L24.8445 3.3599C11.0659 5.3319 1.05713 16.9599 1.05713 30.9999C1.05713 46.4039 13.4914 58.9399 28.7739 58.9399C44.0564 58.9399 56.4946 46.4079 56.4946 30.9999C56.4946 16.9999 46.4698 5.3719 32.6593 3.3479L32.8109 2.2959C47.148 4.3959 57.5517 16.4679 57.5517 30.9999C57.5517 46.9919 44.6428 59.9999 28.7739 59.9999Z" fill="#1D1D1D"/>
<path d="M33.8723 42.9602C33.8563 42.9322 32.125 40.1642 28.7023 40.1642C25.2796 40.1642 23.1694 42.7562 23.1494 42.7802L22.6747 42.4042C22.7665 42.2882 24.9525 39.5562 28.7063 39.5562C32.4601 39.5562 34.3191 42.5202 34.3949 42.6442L33.8763 42.9602H33.8723ZM39.3414 38.4002C27.4258 31.4762 18.1071 38.3082 18.0154 38.3802L17.6523 37.8922C17.7481 37.8202 27.3899 30.7442 39.6446 37.8722L39.3414 38.4002Z" fill="#1D1D1D"/>
<path d="M28.7022 51.2319C17.6363 51.2319 8.63672 42.2239 8.63672 31.1519H9.09148C9.09148 41.9719 17.8876 50.7759 28.7022 50.7759C39.5169 50.7759 48.317 41.9719 48.317 31.1519H48.7717C48.7717 42.2239 39.7682 51.2319 28.7022 51.2319Z" fill="#1D1D1D"/>
<path d="M28.7098 44.2919C21.4615 44.2919 15.5615 38.3959 15.5615 31.1479C15.5615 23.8999 21.4615 18.0239 28.7098 18.0239C35.9581 18.0239 41.8621 23.9119 41.8621 31.1479C41.8621 38.3839 35.9621 44.2919 28.7098 44.2919ZM28.7098 18.6359C21.7926 18.6359 16.1679 24.2519 16.1679 31.1519C16.1679 38.0519 21.7926 43.6879 28.7098 43.6879C35.627 43.6879 41.2557 38.0639 41.2557 31.1519C41.2557 24.2399 35.627 18.6359 28.7098 18.6359Z" fill="#1D1D1D"/>
<path d="M29.0771 3.22412H28.4707V48.5601H29.0771V3.22412Z" fill="#1D1D1D"/>
<path d="M32.9199 2.776L17.9492 23.582L18.4409 23.9378L33.4116 3.13174L32.9199 2.776Z" fill="#1D1D1D"/>
<path d="M24.5514 2.75119L24.0586 3.10547L39.2419 24.3395L39.7347 23.9853L24.5514 2.75119Z" fill="#1D1D1D"/>
<path d="M28.5105 44.2198C24.4335 40.7478 22.2954 36.7918 22.1557 32.4598C21.9004 24.6078 28.4307 18.1758 28.4945 18.1118L28.9174 18.5478C28.8535 18.6118 22.5148 24.8638 22.7621 32.4438C22.8977 36.5918 24.9641 40.3998 28.9014 43.7558L28.5105 44.2198Z" fill="#1D1D1D"/>
<path d="M29.2243 44.2198L28.8333 43.7558C32.7706 40.3998 34.837 36.5918 34.9727 32.4438C35.22 24.8638 28.8812 18.6078 28.8174 18.5478L29.2402 18.1118C29.3081 18.1758 35.8343 24.6078 35.579 32.4598C35.4394 36.7878 33.3012 40.7438 29.2243 44.2198Z" fill="#1D1D1D"/>
<path d="M43.3825 30.8481H13.5156V31.4561H43.3825V30.8481Z" fill="#1D1D1D"/>
<path d="M28.7025 22.752C24.9527 22.752 22.7626 20.032 22.6709 19.916L23.1456 19.54C23.1656 19.564 25.2479 22.148 28.6985 22.148C32.1492 22.148 33.8525 19.384 33.8685 19.356L34.3871 19.672C34.3113 19.8 32.4723 22.756 28.6985 22.756L28.7025 22.752Z" fill="#1D1D1D"/>
<path d="M28.4869 27.6122C22.0085 27.6122 17.7162 24.4642 17.6523 24.4162L18.0154 23.9282C18.1071 23.9962 27.4418 30.8242 39.3414 23.9082L39.6446 24.4362C35.5477 26.8202 31.7381 27.6122 28.4829 27.6122H28.4869Z" fill="#1D1D1D"/>
<path d="M33.4489 2.952H32.8426V0.608H24.6728V2.856H24.0664V0H33.4489V2.952Z" fill="#1D1D1D"/>
<path d="M13.1682 35.9201C13.236 36.0321 13.3158 36.2001 13.3956 36.4161C13.4793 36.6401 13.5232 36.8201 13.5392 36.9681C13.5551 37.1681 13.5033 37.2881 13.3876 37.3361C13.2759 37.3721 13.1562 37.3121 13.0206 37.1441C12.9129 37.0041 12.8211 36.8361 12.7413 36.6241C12.6616 36.4041 12.6097 36.2121 12.5977 36.0481C12.5858 35.8361 12.6376 35.7121 12.7493 35.6681C12.8849 35.6201 13.0206 35.7041 13.1642 35.9201H13.1682ZM13.2839 35.4521C13.0565 35.2241 12.8251 35.1641 12.5897 35.2521C12.3504 35.3401 12.2227 35.5441 12.2068 35.8641C12.1948 36.1201 12.2467 36.4081 12.3703 36.7361C12.502 37.0721 12.6496 37.3321 12.8291 37.5121C13.0525 37.7441 13.2879 37.8041 13.5312 37.7161C13.7785 37.6201 13.9102 37.4201 13.9261 37.1041C13.9421 36.8561 13.8822 36.5681 13.7626 36.2361L13.7506 36.2041C13.6309 35.8801 13.4753 35.6281 13.2879 35.4441L13.2839 35.4521ZM14.8396 36.4801C14.8636 36.5481 14.9035 36.5961 14.9513 36.6201C15.0032 36.6361 15.0551 36.6401 15.1029 36.6241C15.1508 36.6081 15.1867 36.5721 15.2066 36.5201C15.2266 36.4721 15.2226 36.4121 15.2027 36.3481L14.7559 35.1681C14.7359 35.1121 14.704 35.0721 14.6521 35.0561C14.6003 35.0321 14.5564 35.0281 14.5085 35.0561C14.4647 35.0721 14.4288 35.1081 14.4048 35.1601C14.3809 35.2001 14.3809 35.2601 14.4048 35.3241L14.8396 36.4841V36.4801ZM14.3849 37.3241C14.4048 37.3921 14.4447 37.4321 14.4966 37.4561C14.5524 37.4761 14.6003 37.4801 14.6442 37.4641C14.7 37.4401 14.7319 37.4081 14.7559 37.3561C14.7758 37.3081 14.7758 37.2521 14.7479 37.1881L13.8543 34.8001C13.8304 34.7401 13.7905 34.6961 13.7426 34.6801C13.6908 34.6601 13.6469 34.6561 13.595 34.6801C13.5471 34.6961 13.5073 34.7281 13.4873 34.7841C13.4634 34.8401 13.4634 34.8921 13.4873 34.9601L14.3809 37.3241H14.3849ZM11.9515 35.8681C11.9754 35.8121 11.9754 35.7561 11.9515 35.6961C11.9315 35.6361 11.8916 35.5921 11.8398 35.5641C11.7879 35.5361 11.7321 35.5361 11.6643 35.5561L11.0818 35.7801C10.8385 35.8721 10.7707 36.0441 10.8624 36.3001L11.9794 39.2801C12.0033 39.3401 12.0432 39.3841 12.0911 39.3961C12.139 39.4201 12.1908 39.4201 12.2387 39.3961C12.2945 39.3841 12.3305 39.3521 12.3504 39.3001C12.3743 39.2601 12.3743 39.2001 12.3504 39.1401L11.3012 36.3521C11.2773 36.2801 11.2653 36.2401 11.2773 36.2241C11.2853 36.2041 11.3212 36.1841 11.381 36.1641L11.8278 35.9961C11.8956 35.9721 11.9355 35.9281 11.9555 35.8721L11.9515 35.8681ZM15.7851 37.9201C15.805 37.8601 15.805 37.8041 15.7851 37.7481C15.7611 37.6881 15.7292 37.6521 15.6774 37.6161C15.6295 37.5961 15.5736 37.5921 15.5098 37.6121L12.9129 38.6001C12.849 38.6241 12.8052 38.6641 12.7812 38.7241C12.7613 38.7801 12.7613 38.8361 12.7852 38.8961C12.8052 38.9481 12.8411 38.9961 12.8889 39.0201C12.9448 39.0521 12.9966 39.0521 13.0645 39.0281L14.0418 38.6561L14.1336 38.9041C14.1575 38.9761 14.1934 39.0201 14.2453 39.0401C14.2971 39.0601 14.349 39.0601 14.4008 39.0401C14.4447 39.0241 14.4806 38.9921 14.5045 38.9481C14.5285 38.9001 14.5285 38.8401 14.5045 38.7761L14.4048 38.5201L15.6494 38.0481C15.7173 38.0281 15.7571 37.9801 15.7771 37.9241" fill="#1D1D1D"/>
<path d="M16.6391 45.26L16.9462 44.952C16.9941 44.908 17.0101 44.876 17.0021 44.852C17.0021 44.832 16.9702 44.796 16.9263 44.744L14.8599 42.644C14.812 42.596 14.7881 42.548 14.7881 42.488C14.7881 42.428 14.812 42.384 14.8479 42.344C14.8918 42.3 14.9357 42.288 14.9875 42.288C15.0394 42.288 15.0913 42.308 15.1431 42.364L17.385 44.644C17.4848 44.74 17.5406 44.824 17.5566 44.892C17.5725 44.948 17.5446 45.016 17.4768 45.072L16.9941 45.552C16.9382 45.612 16.8824 45.636 16.8146 45.624C16.7547 45.62 16.7029 45.596 16.655 45.548C16.6111 45.508 16.5912 45.46 16.5792 45.404C16.5792 45.344 16.5952 45.296 16.6391 45.252V45.26ZM19.0764 42.876C19.1163 42.836 19.1363 42.808 19.1323 42.788C19.1323 42.768 19.1084 42.74 19.0725 42.7L16.9662 40.556C16.9223 40.508 16.8984 40.46 16.8984 40.4C16.8984 40.344 16.9223 40.304 16.9622 40.264C16.9981 40.224 17.046 40.208 17.0978 40.208C17.1497 40.208 17.2015 40.228 17.2494 40.276L19.4993 42.564C19.591 42.664 19.6349 42.748 19.6309 42.824C19.6309 42.9 19.5871 42.984 19.5033 43.064L18.8052 43.624C18.7414 43.664 18.6815 43.688 18.6257 43.684C18.5698 43.68 18.5219 43.66 18.486 43.624C18.3943 43.524 18.4063 43.432 18.5219 43.32L19.0764 42.872V42.876ZM18.2986 44.28L17.1377 43.1L16.7268 43.508C16.679 43.556 16.6231 43.58 16.5712 43.572C16.5114 43.568 16.4595 43.54 16.4117 43.5C16.3718 43.452 16.3518 43.404 16.3439 43.344C16.3399 43.28 16.3598 43.228 16.4117 43.18L16.8186 42.776L15.6497 41.588C15.6059 41.54 15.5819 41.484 15.5819 41.432C15.5819 41.38 15.6019 41.328 15.6378 41.296C15.6777 41.252 15.7255 41.232 15.7774 41.232C15.8332 41.224 15.8811 41.252 15.925 41.296L18.5858 44C18.6336 44.052 18.6536 44.1 18.6536 44.152C18.6536 44.204 18.6336 44.248 18.6017 44.288C18.5618 44.328 18.514 44.348 18.4581 44.352C18.4023 44.352 18.3504 44.328 18.3025 44.28" fill="#1D1D1D"/>
<path d="M22.7223 44.8879C22.6584 44.8599 22.6185 44.8239 22.5946 44.7759C22.5747 44.7279 22.5747 44.6799 22.5946 44.6279C22.6106 44.5759 22.6505 44.5439 22.6983 44.5199C22.7462 44.4999 22.802 44.4999 22.8579 44.5159L24.1225 45.0239C24.1863 45.0479 24.2262 45.0839 24.2461 45.1279C24.2701 45.1799 24.2701 45.2279 24.2461 45.2719C24.2222 45.3319 24.1943 45.3679 24.1464 45.3959C24.0985 45.4119 24.0427 45.4119 23.9749 45.3879L22.7183 44.8879H22.7223ZM23.8911 46.5119C24.0267 46.6239 24.1743 46.7319 24.3419 46.8319C24.3937 46.8559 24.4536 46.8919 24.5174 46.9239C24.5852 46.9559 24.6251 46.9999 24.6371 47.0479C24.653 47.0879 24.653 47.1319 24.6371 47.1719C24.6211 47.2239 24.5772 47.2639 24.5254 47.2879C24.4695 47.3119 24.4137 47.3119 24.3419 47.2839C24.2302 47.2439 24.1025 47.1719 23.9589 47.0679C23.8193 46.9679 23.6836 46.8679 23.568 46.7719C23.4044 46.6279 23.2608 46.4639 23.1371 46.2839C23.0972 46.2279 23.0534 46.1439 23.0015 46.0399C22.7582 46.1439 22.459 46.1919 22.1159 46.1799C21.7728 46.1719 21.4657 46.1159 21.2024 46.0119C21.1386 45.9839 21.0947 45.9479 21.0707 45.8999C21.0508 45.8479 21.0468 45.7959 21.0668 45.7479C21.0827 45.6999 21.1146 45.6639 21.1585 45.6479C21.1984 45.6279 21.2503 45.6239 21.3181 45.6279C21.3779 45.6559 21.4338 45.6759 21.4736 45.6879C21.713 45.7559 21.9563 45.7879 22.1797 45.7879C22.3712 45.7879 22.5427 45.7639 22.6824 45.7159C22.7302 45.6999 22.7861 45.6759 22.8499 45.6359L21.5933 45.1439C21.5255 45.1159 21.4856 45.0839 21.4617 45.0319C21.4417 44.9839 21.4457 44.9319 21.4657 44.8799C21.4856 44.8319 21.5215 44.7959 21.5614 44.7679C21.6133 44.7439 21.6691 44.7439 21.729 44.7759L24.8006 45.9919C24.8644 46.0119 24.9043 46.0559 24.9283 46.0999C24.9482 46.1479 24.9522 46.1999 24.9283 46.2479C24.9083 46.2959 24.8764 46.3279 24.8245 46.3559C24.7727 46.3759 24.7129 46.3759 24.649 46.3559L23.3645 45.8519C23.3924 45.9199 23.4243 45.9919 23.4563 46.0399C23.56 46.1999 23.6916 46.3599 23.8711 46.5159L23.8911 46.5119ZM23.3845 48.9479L23.5001 48.6559C23.5201 48.6119 23.5281 48.5839 23.5281 48.5759C23.5281 48.5359 23.5001 48.5039 23.4403 48.4799L20.6279 47.3679C20.5641 47.3439 20.5202 47.3039 20.5043 47.2559C20.4803 47.2079 20.4803 47.1599 20.5043 47.1079C20.5242 47.0599 20.5561 47.0199 20.604 46.9999C20.6519 46.9679 20.7077 46.9719 20.7755 46.9999L23.8033 48.1999C23.903 48.2319 23.9749 48.2959 24.0147 48.3719C24.0506 48.4479 24.0506 48.5319 24.0147 48.6199L23.8193 49.1239C23.7914 49.1959 23.7515 49.2399 23.6956 49.2559C23.6398 49.2799 23.5839 49.2799 23.5241 49.2559C23.4642 49.2319 23.4204 49.1919 23.3924 49.1399C23.3645 49.0799 23.3645 49.0199 23.3924 48.9479H23.3845ZM20.9989 46.2119L24.4017 47.5639C24.4695 47.5879 24.5134 47.6239 24.5293 47.6719C24.5493 47.7159 24.5493 47.7679 24.5293 47.8239C24.5094 47.8719 24.4735 47.9159 24.4336 47.9359C24.3857 47.9559 24.3379 47.9559 24.274 47.9359L20.8513 46.5759C20.7915 46.5519 20.7476 46.5159 20.7277 46.4679C20.7037 46.4199 20.7037 46.3719 20.7277 46.3199C20.7516 46.2759 20.7835 46.2319 20.8314 46.2039C20.8793 46.1839 20.9351 46.1839 21.0029 46.2079" fill="#1D1D1D"/>
<path d="M37.0991 46.8402C37.4222 46.7482 37.6057 46.7522 37.6576 46.8602C37.7135 46.9682 37.5898 47.1242 37.2866 47.3202C37.1151 47.4362 36.8518 47.5722 36.5207 47.7322C36.3133 47.8282 36.1058 47.9162 35.8984 47.9882C35.4396 48.1602 35.1763 48.1842 35.1125 48.0482C35.0567 47.9322 35.1803 47.7802 35.4835 47.5842C35.655 47.4722 35.9223 47.3362 36.2813 47.1682C36.5965 47.0202 36.8717 46.9122 37.1031 46.8442L37.0991 46.8402ZM34.2987 46.3922C34.2588 46.3162 34.2788 46.2602 34.3426 46.2322L35.667 45.6082C35.7707 45.5562 35.8385 45.4922 35.8625 45.3962C35.8864 45.3162 35.8705 45.2282 35.8306 45.1282L35.5234 44.4762C35.4795 44.3882 35.4157 44.3242 35.3279 44.3082C35.2442 44.2882 35.1644 44.2922 35.0846 44.3322L33.4012 45.1242C33.3453 45.1482 33.3094 45.1922 33.2935 45.2362C33.2775 45.2842 33.2855 45.3322 33.3094 45.3842C33.3294 45.4282 33.3693 45.4642 33.4131 45.4882C33.461 45.5082 33.5129 45.5082 33.5767 45.4802L35.0208 44.7962C35.1006 44.7602 35.1524 44.7762 35.1883 44.8442L35.3479 45.1922C35.3718 45.2282 35.3718 45.2602 35.3598 45.2802C35.3439 45.3042 35.32 45.3242 35.2841 45.3362L33.9876 45.9522C33.8799 46.0042 33.8081 46.0682 33.7722 46.1442C33.7363 46.2242 33.7402 46.3042 33.7841 46.4002L34.0833 47.0362C34.1312 47.1402 34.195 47.2042 34.2788 47.2362C34.3665 47.2642 34.4663 47.2482 34.5939 47.1882C35.0447 46.9762 35.4396 46.7842 35.7588 46.6122C36.0859 46.4482 36.3851 46.2602 36.6683 46.0682C36.7162 46.0282 36.7441 45.9962 36.7521 45.9482C36.768 45.9082 36.76 45.8722 36.7441 45.8282C36.7202 45.7802 36.6842 45.7482 36.6404 45.7322C36.5965 45.7122 36.5446 45.7122 36.4888 45.7362L36.4569 45.7522C36.3771 45.8122 36.3013 45.8682 36.2375 45.9042C36.046 46.0202 35.8425 46.1322 35.6191 46.2402C35.4596 46.3162 35.2761 46.4082 35.0766 46.5082C34.8772 46.6162 34.7655 46.6682 34.7495 46.6802L34.6697 46.7202C34.5939 46.7562 34.5421 46.7682 34.5141 46.7642C34.4862 46.7642 34.4583 46.7322 34.4264 46.6762L34.2907 46.3842L34.2987 46.3922ZM36.9914 44.4962L37.2427 44.3762C37.3066 44.3402 37.3544 44.3082 37.3664 44.2562C37.3824 44.2002 37.3744 44.1522 37.3544 44.1042C37.3385 44.0522 37.2946 44.0202 37.2507 44.0002C37.1989 43.9842 37.147 43.9882 37.0832 44.0202L36.8279 44.1362L36.6284 43.7122C36.6005 43.6482 36.5566 43.6082 36.4968 43.5962C36.4409 43.5842 36.3851 43.5882 36.3252 43.6162C36.2694 43.6362 36.2295 43.6802 36.2056 43.7282C36.1816 43.7882 36.1816 43.8442 36.2175 43.9042L37.1949 45.9962C37.2228 46.0562 37.2667 46.0922 37.3265 46.1042C37.3863 46.1202 37.4422 46.1162 37.498 46.0882C37.5539 46.0642 37.5898 46.0242 37.6137 45.9682C37.6377 45.9122 37.6377 45.8602 37.6057 45.8002L37.506 45.5802L37.7494 45.4602C37.8132 45.4282 37.8531 45.3882 37.873 45.3442C37.885 45.2922 37.881 45.2402 37.8611 45.1922C37.8371 45.1362 37.8012 45.1042 37.7573 45.0842C37.7055 45.0722 37.6536 45.0722 37.5858 45.1002L37.3425 45.2202L36.9954 44.4882L36.9914 44.4962ZM37.2507 46.4402C36.9116 46.5002 36.5167 46.6402 36.0779 46.8402C35.8066 46.9722 35.5513 47.1162 35.308 47.2722C35.0646 47.4162 34.8811 47.5762 34.7615 47.7322C34.6099 47.9322 34.574 48.1122 34.6538 48.2762C34.7335 48.4482 34.9051 48.5362 35.1644 48.5322C35.3678 48.5322 35.6311 48.4842 35.9502 48.3682C36.1617 48.3002 36.409 48.1962 36.6922 48.0602C36.9755 47.9282 37.2068 47.8042 37.3863 47.6922C37.6496 47.5202 37.8491 47.3562 37.9648 47.2002C38.1124 47.0002 38.1443 46.8162 38.0605 46.6402C37.9608 46.4202 37.6895 46.3602 37.2507 46.4362" fill="#1D1D1D"/>
<path d="M40.3904 42.6362C40.4542 42.5282 40.554 42.3802 40.6976 42.2082C40.8452 42.0362 40.9848 41.9082 41.1085 41.8282C41.276 41.7242 41.4116 41.7202 41.5114 41.8002C41.6231 41.9002 41.627 42.0362 41.5393 42.2242C41.4834 42.3322 41.3717 42.4882 41.2042 42.6922C41.0446 42.8762 40.905 43.0042 40.7933 43.0842C40.6258 43.1922 40.4901 43.2042 40.3864 43.1082C40.2747 43.0162 40.2747 42.8602 40.3944 42.6362H40.3904ZM39.9476 42.7682C39.8519 43.0522 39.8957 43.2802 40.0832 43.4482C40.2947 43.6282 40.554 43.6242 40.8691 43.4442C41.0805 43.3202 41.2959 43.1282 41.5193 42.8762C41.7427 42.6162 41.8943 42.3642 41.9621 42.1362C42.0539 41.8562 42.002 41.6282 41.8105 41.4682C41.6111 41.3002 41.3797 41.2802 41.1045 41.4282C40.889 41.5362 40.6696 41.7242 40.4343 41.9922L40.3944 42.0402C40.167 42.3082 40.0194 42.5442 39.9476 42.7722V42.7682ZM40.0912 40.9602C40.1351 40.9122 40.155 40.8482 40.1471 40.7962C40.1391 40.7402 40.1151 40.6922 40.0753 40.6562C40.0394 40.6282 39.9955 40.6122 39.9396 40.6162C39.8918 40.6202 39.8399 40.6442 39.8 40.6962L38.9782 41.6562C38.9383 41.7042 38.9224 41.7562 38.9264 41.8042C38.9383 41.8562 38.9583 41.9002 38.9942 41.9402C39.0341 41.9682 39.082 41.9882 39.1338 41.9802C39.1897 41.9722 39.2375 41.9482 39.2854 41.8922L40.0912 40.9562V40.9602ZM41.0765 40.9002C41.1204 40.8482 41.1404 40.7962 41.1364 40.7402C41.1284 40.6882 41.1005 40.6402 41.0606 40.6002C41.0247 40.5642 40.9728 40.5522 40.921 40.5562C40.8691 40.5562 40.8212 40.5882 40.7773 40.6322L39.1218 42.5722C39.082 42.6242 39.062 42.6722 39.07 42.7242C39.074 42.7802 39.0979 42.8282 39.1378 42.8602C39.1817 42.9002 39.2296 42.9082 39.2814 42.9002C39.3373 42.9002 39.3851 42.8722 39.429 42.8202L41.0725 40.8962L41.0765 40.9002ZM43.7692 42.3242C43.8251 42.3162 43.8729 42.2882 43.9168 42.2402C43.9607 42.1922 43.9806 42.1362 43.9767 42.0762C43.9767 42.0202 43.9447 41.9642 43.8849 41.9162L43.4381 41.5322C43.3583 41.4562 43.2825 41.4282 43.2028 41.4482C43.131 41.4642 43.0552 41.5202 42.9714 41.6162L40.897 44.0402C40.8531 44.0882 40.8372 44.1402 40.8412 44.1962C40.8492 44.2562 40.8731 44.2922 40.917 44.3362C40.9569 44.3642 40.9968 44.3802 41.0526 44.3802C41.1005 44.3802 41.1523 44.3562 41.1922 44.3082L43.103 42.0722C43.1509 42.0162 43.1828 41.9882 43.2068 41.9802C43.2347 41.9722 43.2666 41.9962 43.3145 42.0362L43.5977 42.2762C43.6495 42.3242 43.7054 42.3402 43.7612 42.3322L43.7692 42.3242ZM40.8811 39.4162C40.8212 39.4242 40.7694 39.4562 40.7255 39.5042C40.6936 39.5482 40.6696 39.5962 40.6696 39.6522C40.6696 39.7122 40.6936 39.7602 40.7494 39.8082L42.5366 41.3522C42.5924 41.4002 42.6483 41.4162 42.7121 41.4082C42.7759 41.4002 42.8278 41.3722 42.8717 41.3202C42.9076 41.2762 42.9275 41.2202 42.9275 41.1642C42.9235 41.1122 42.8956 41.0602 42.8397 41.0082L42.1855 40.4442L42.361 40.2322C42.4129 40.1722 42.4329 40.1202 42.4249 40.0642C42.4169 40.0162 42.393 39.9722 42.3531 39.9282C42.3132 39.8922 42.2613 39.8762 42.2095 39.8842C42.1616 39.8842 42.1097 39.9202 42.0658 39.9642L41.8823 40.1802L41.0526 39.4602C40.9968 39.4162 40.9409 39.3962 40.8811 39.4122" fill="#1D1D1D"/>
<path d="M44.02 36.9359C43.9841 36.7959 44.016 36.5879 44.0918 36.3359C44.1676 36.0799 44.2634 35.8879 44.3711 35.7639C44.4868 35.6359 44.6104 35.5959 44.75 35.6359C44.9096 35.6879 44.9974 35.7959 45.0173 35.9759C45.0293 36.1119 44.9974 36.3119 44.9256 36.5679C44.8617 36.7799 44.778 36.9519 44.6742 37.0679C44.5546 37.2119 44.4189 37.2599 44.2793 37.2119C44.1397 37.1639 44.0519 37.0799 44.024 36.9359H44.02ZM43.0387 35.3839C43.0626 35.3199 43.0586 35.2599 43.0347 35.2199C43.0108 35.1719 42.9709 35.1359 42.923 35.1239C42.8751 35.1119 42.8273 35.1159 42.7834 35.1359C42.7395 35.1639 42.7036 35.2079 42.6797 35.2799L42.3286 36.4439C42.3127 36.5119 42.3206 36.5639 42.3446 36.6079C42.3765 36.6519 42.4084 36.6839 42.4523 36.6919C42.5001 36.7079 42.556 36.7039 42.5999 36.6759C42.6438 36.6519 42.6757 36.6079 42.6996 36.5439L43.0387 35.3879V35.3839ZM43.9402 34.9079C43.9642 34.8399 43.9602 34.7839 43.9362 34.7319C43.9123 34.6839 43.8684 34.6519 43.8166 34.6399C43.7647 34.6239 43.7168 34.6279 43.673 34.6519C43.6251 34.6759 43.5932 34.7239 43.5732 34.7879L42.8352 37.2319C42.8233 37.2919 42.8233 37.3399 42.8512 37.3919C42.8791 37.4359 42.915 37.4679 42.9629 37.4799C43.0147 37.4959 43.0666 37.4919 43.1145 37.4719C43.1624 37.4399 43.1943 37.3959 43.2182 37.3319L43.9402 34.9119V34.9079ZM43.1743 33.6439C43.1225 33.6759 43.0905 33.7239 43.0706 33.7879C43.0507 33.8479 43.0546 33.9079 43.0786 33.9599C43.1025 34.0159 43.1504 34.0479 43.2222 34.0719L46.7925 35.1559C46.8723 35.1799 46.9321 35.1719 46.984 35.1359C47.0318 35.1119 47.0757 35.0639 47.0877 34.9999C47.1076 34.9399 47.1036 34.8879 47.0717 34.8319C47.0438 34.7759 46.9919 34.7399 46.9241 34.7159L43.3578 33.6319C43.282 33.6119 43.2182 33.6119 43.1703 33.6439H43.1743ZM45.9268 37.0839L45.6197 38.2039C45.6037 38.2599 45.6037 38.3119 45.6277 38.3519C45.6516 38.3839 45.6875 38.4119 45.7274 38.4239C45.7753 38.4359 45.8191 38.4279 45.871 38.4159C45.9229 38.3839 45.9548 38.3519 45.9667 38.2879L45.9907 38.2159C46.1462 37.6919 46.2739 37.2199 46.3816 36.7999C46.4813 36.3759 46.5571 35.9719 46.601 35.5759C46.601 35.5199 46.589 35.4759 46.5651 35.4399C46.5372 35.4039 46.5093 35.3759 46.4773 35.3679C46.4255 35.3559 46.3816 35.3559 46.3377 35.3799C46.2938 35.3999 46.2699 35.4319 46.254 35.4759V35.4919C46.2181 35.7199 46.1702 35.9759 46.1143 36.2599C46.0944 36.3559 46.0665 36.4879 46.0306 36.6479L45.3723 36.4439C45.4521 36.1679 45.4601 35.9239 45.3883 35.7079C45.3085 35.4559 45.125 35.2879 44.8498 35.1959C44.6423 35.1359 44.4429 35.1799 44.2634 35.3239C44.044 35.5079 43.8724 35.8079 43.7488 36.2239C43.6371 36.5799 43.6171 36.8879 43.677 37.1519C43.7408 37.4079 43.8924 37.5679 44.1237 37.6399C44.3751 37.7199 44.6064 37.6599 44.8218 37.4759C44.9814 37.3359 45.125 37.1319 45.2447 36.8679L45.9268 37.0799" fill="#1D1D1D"/>
<path d="M51.8832 23.7201C51.9071 23.8001 51.8991 23.8801 51.8552 23.9561C51.8153 24.0281 51.7475 24.0801 51.6677 24.1121C51.568 24.1481 51.4802 24.1521 51.4045 24.1201C51.3247 24.0921 51.2688 24.0441 51.2449 23.9601C51.217 23.8841 51.221 23.8001 51.2569 23.7281C51.3007 23.6601 51.3685 23.6041 51.4603 23.5641C51.5521 23.5281 51.6358 23.5281 51.7156 23.5641C51.7954 23.5921 51.8512 23.6481 51.8792 23.7201" fill="#1D1D1D"/>
<path d="M50.3075 42.8002C50.2756 42.7202 50.2157 42.6522 50.1319 42.6042C50.0442 42.5562 49.9564 42.5402 49.8766 42.5602C49.7929 42.5802 49.733 42.6322 49.6931 42.7042C49.6532 42.7802 49.6493 42.8522 49.6772 42.9322C49.7131 43.0082 49.7689 43.0722 49.8607 43.1242C49.9405 43.1642 50.0203 43.1802 50.104 43.1642C50.1918 43.1482 50.2516 43.1002 50.2955 43.0282C50.3314 42.9562 50.3314 42.8802 50.3075 42.8042" fill="#1D1D1D"/>
<path d="M4.2168 28.5082C4.22478 28.4202 4.26467 28.3562 4.34046 28.3122C4.41626 28.2562 4.49205 28.2442 4.57981 28.2522C4.68353 28.2602 4.75932 28.2922 4.82315 28.3562C4.88299 28.4162 4.90692 28.4882 4.89496 28.5762C4.88698 28.6562 4.84709 28.7242 4.78326 28.7762C4.71544 28.8202 4.62768 28.8362 4.53194 28.8322C4.4362 28.8202 4.35243 28.7842 4.29259 28.7162C4.23674 28.6562 4.21281 28.5842 4.22079 28.5082" fill="#1D1D1D"/>
<path d="M3.29883 26.3238L3.37063 25.9918L4.97428 26.3598L3.64987 24.7718L3.75758 24.2998L4.85061 25.6478L7.06061 25.0398L6.96487 25.4678L5.10592 25.9638L5.52478 26.4838L6.67366 26.7438L6.59787 27.0798L3.29883 26.3238Z" fill="#1D1D1D"/>
<path d="M7.12097 23.9278C7.02124 24.2358 6.82178 24.4158 6.52658 24.4678C6.23537 24.5238 5.91225 24.4838 5.55322 24.3638C5.11043 24.2118 4.79528 24.0238 4.61976 23.7878C4.44822 23.5478 4.39637 23.3038 4.48413 23.0518C4.57189 22.7958 4.7514 22.6318 5.03862 22.5598C5.32185 22.4878 5.64896 22.5158 6.02793 22.6438C6.38696 22.7678 6.68216 22.9438 6.91752 23.1638C7.14889 23.3878 7.21671 23.6478 7.11698 23.9318L7.12097 23.9278ZM4.10117 22.9438C3.96155 23.3478 4.0533 23.7198 4.38041 24.0678C4.6397 24.3318 4.97878 24.5358 5.40961 24.6878C5.8923 24.8478 6.32313 24.8878 6.69812 24.8118C7.09304 24.7078 7.35633 24.4678 7.48398 24.1038C7.61562 23.7078 7.53185 23.3358 7.23266 22.9958C6.98135 22.6998 6.61035 22.4798 6.13165 22.3158C5.68886 22.1638 5.29792 22.1198 4.95884 22.1878C4.52801 22.2678 4.24079 22.5198 4.09718 22.9478" fill="#1D1D1D"/>
<path d="M6.32726 21.6999L5.28609 21.2199L5.62916 20.4719C5.67703 20.3679 5.74085 20.2919 5.80867 20.2519C5.94031 20.1759 6.11583 20.1839 6.33125 20.2839C6.53071 20.3759 6.65437 20.4839 6.69027 20.5999C6.73017 20.7199 6.7182 20.8479 6.65038 20.9959L6.32726 21.6999ZM7.84713 22.7839L7.99074 22.4719L6.67033 21.8639L6.98946 21.1679C7.04531 21.0439 7.10515 20.9599 7.16897 20.9239C7.28466 20.8519 7.44423 20.8599 7.64767 20.9439L8.17025 21.1599C8.28993 21.2119 8.37769 21.2439 8.41758 21.2519C8.46146 21.2639 8.50136 21.2759 8.52928 21.2759L8.7048 20.8919L8.64098 20.8639C8.58912 20.8999 8.50933 20.8999 8.40562 20.8759C8.34179 20.8639 8.25004 20.8279 8.13036 20.7799L7.7115 20.5999C7.53199 20.5239 7.39237 20.4879 7.28865 20.4959C7.19291 20.5039 7.08919 20.5439 7.00542 20.6119C6.98148 20.4759 6.92165 20.3559 6.83388 20.2439C6.74213 20.1319 6.60251 20.0279 6.41901 19.9439C6.06796 19.7839 5.78074 19.7799 5.54538 19.9319C5.42571 20.0119 5.32997 20.1399 5.25018 20.3119L4.77148 21.3599L7.83915 22.7839" fill="#1D1D1D"/>
<path d="M5.87207 19.056L6.80554 17.46L7.16456 17.672L6.40263 18.976L7.28822 19.496L7.99032 18.284L8.3294 18.48L7.62331 19.692L8.62061 20.276L9.39052 18.956L9.73757 19.152L8.79214 20.776L5.87207 19.056Z" fill="#1D1D1D"/>
<path d="M8.97543 17.8241L7.99808 16.6201L9.43817 17.1761L8.97543 17.8241ZM9.67353 19.2321L9.88496 18.9401L9.22276 18.1281L9.80119 17.3161L10.7785 17.6961L10.9979 17.3841L7.71086 16.1641L7.47949 16.4841L9.67353 19.2361" fill="#1D1D1D"/>
<path d="M8.44531 15.1682L8.70461 14.8642L11.6127 15.7042L9.54632 13.9042L9.75376 13.6602L12.3068 15.8922L12.0635 16.1802L9.14342 15.3562L11.2058 17.1562L10.9944 17.4002L8.44531 15.1682Z" fill="#1D1D1D"/>
<path d="M12.9647 13.7518C13.0924 13.8918 13.2201 13.9918 13.3357 14.0518C13.5631 14.1478 13.7865 14.1118 13.9979 13.9358C14.0897 13.8558 14.1575 13.7678 14.2094 13.6638C14.2971 13.4638 14.2612 13.2638 14.1056 13.0798C13.986 12.9358 13.8703 12.8598 13.7586 12.8558C13.6469 12.8558 13.4993 12.8838 13.3278 12.9598L13.0126 13.0878C12.8052 13.1758 12.6376 13.2158 12.518 13.2038C12.3105 13.2038 12.1151 13.0798 11.9355 12.8678C11.7401 12.6318 11.6364 12.3878 11.6284 12.1398C11.6204 11.8918 11.7201 11.6758 11.9355 11.4958C12.131 11.3278 12.3624 11.2518 12.6057 11.2758C12.853 11.2878 13.0964 11.4438 13.3357 11.7358L13.0884 11.9358C12.9568 11.8118 12.8451 11.7318 12.7414 11.6878C12.5539 11.6158 12.3704 11.6598 12.1789 11.8118C12.0353 11.9358 11.9635 12.0638 11.9714 12.2078C11.9754 12.3518 12.0313 12.4838 12.127 12.5958C12.2347 12.7278 12.3464 12.7878 12.4781 12.7798C12.5578 12.7758 12.7094 12.7238 12.9368 12.6358L13.2719 12.4958C13.4315 12.4278 13.5751 12.4038 13.7027 12.4158C13.9261 12.4358 14.1296 12.5638 14.325 12.7998C14.5644 13.0838 14.6601 13.3558 14.6123 13.6078C14.5644 13.8598 14.4407 14.0678 14.2333 14.2398C14.0019 14.4358 13.7466 14.5078 13.4754 14.4518C13.2041 14.3998 12.9528 14.2318 12.7254 13.9438L12.9687 13.7398" fill="#1D1D1D"/>
<path d="M15.8208 12.548C15.5535 12.724 15.2902 12.748 15.0309 12.616C14.7637 12.48 14.5283 12.256 14.3129 11.94C14.0536 11.552 13.9179 11.208 13.9219 10.912C13.9219 10.616 14.0376 10.4 14.253 10.248C14.4764 10.092 14.7238 10.076 14.991 10.188C15.2583 10.304 15.5056 10.524 15.729 10.856C15.9444 11.168 16.0761 11.48 16.124 11.804C16.1718 12.124 16.0761 12.368 15.8208 12.548ZM14.0097 9.924C13.6547 10.168 13.5071 10.524 13.5589 10.992C13.6028 11.36 13.7504 11.732 14.0097 12.108C14.2969 12.532 14.6161 12.828 14.9631 12.988C15.3421 13.148 15.6931 13.116 16.0123 12.9C16.3593 12.664 16.5149 12.316 16.479 11.868C16.4471 11.48 16.2915 11.076 16.0083 10.656C15.749 10.264 15.4618 9.992 15.1546 9.844C14.7597 9.644 14.3807 9.676 14.0057 9.924" fill="#1D1D1D"/>
<path d="M17.1611 8.45613C17.4204 8.57213 17.6318 8.74813 17.7834 8.99213L17.4882 9.15213C17.3526 8.97213 17.205 8.86013 17.0454 8.80413C16.8858 8.74413 16.7183 8.76413 16.5388 8.86413C16.3234 8.97613 16.2037 9.17613 16.1758 9.46013C16.1478 9.73613 16.2556 10.0921 16.4829 10.5201C16.6744 10.8681 16.8898 11.1201 17.1212 11.2761C17.3605 11.4281 17.5959 11.4361 17.8353 11.3041C18.0587 11.1801 18.1624 10.9801 18.1584 10.6921C18.1504 10.5401 18.1065 10.3561 18.0387 10.1401L18.3299 9.98013C18.4735 10.3121 18.5294 10.6201 18.4975 10.9121C18.4576 11.2681 18.286 11.5241 17.9908 11.6841C17.7355 11.8241 17.4603 11.8321 17.1731 11.7201C16.7941 11.5721 16.447 11.1961 16.1359 10.6201C15.9005 10.1761 15.7928 9.76813 15.8167 9.39213C15.8367 8.98413 16.0122 8.69213 16.3433 8.51613C16.6265 8.36013 16.8938 8.34813 17.1571 8.46413" fill="#1D1D1D"/>
<path d="M17.7158 7.92818L18.031 7.78418L19.4352 10.8762L19.124 11.0082L17.7158 7.92818Z" fill="#1D1D1D"/>
<path d="M18.4775 7.57581L20.2048 6.90381L20.3524 7.29581L18.9522 7.83581L19.3153 8.79981L20.6157 8.29181L20.7514 8.65581L19.4549 9.16381L19.8698 10.2398L21.2979 9.68781L21.4415 10.0638L19.6982 10.7398L18.4775 7.57581Z" fill="#1D1D1D"/>
<path d="M22.3955 6.25977L22.5072 6.64777L21.6855 6.88377L22.5112 9.75177L22.1881 9.85177L21.3544 6.97977L20.5286 7.21977L20.4209 6.83177L22.3955 6.25977Z" fill="#1D1D1D"/>
<path d="M22.4834 6.22799L22.8743 6.15199L23.9075 7.60799L24.3025 5.86799L24.6894 5.79199L24.1509 7.95999L24.4142 9.30799L24.0831 9.36799L23.8158 8.03199L22.4834 6.22799Z" fill="#1D1D1D"/>
<path d="M32.9342 8.98411C32.623 8.92811 32.4156 8.76011 32.3238 8.47611C32.2321 8.20411 32.2161 7.87211 32.2879 7.50011C32.3717 7.03611 32.5153 6.70411 32.7307 6.49211C32.9302 6.28811 33.1695 6.20411 33.4288 6.25211C33.6961 6.30011 33.8836 6.46011 33.9993 6.72811C34.107 7.00411 34.1309 7.33611 34.0512 7.72811C33.9833 8.10011 33.8557 8.42011 33.6722 8.68411C33.4887 8.94011 33.2414 9.04411 32.9382 8.98811L32.9342 8.98411ZM33.4807 5.85211C33.0578 5.77211 32.6988 5.92011 32.4076 6.29611C32.1842 6.58011 32.0286 6.95211 31.9489 7.40411C31.8531 7.90411 31.8771 8.33611 32.0087 8.70011C32.1683 9.08411 32.4395 9.30411 32.8225 9.38011C33.2334 9.45611 33.5844 9.32011 33.8836 8.97211C34.1309 8.67611 34.3025 8.28411 34.3942 7.78411C34.478 7.32011 34.466 6.93211 34.3503 6.60411C34.2107 6.18411 33.9195 5.93211 33.4807 5.85611" fill="#1D1D1D"/>
<path d="M35.1012 6.28809L36.7966 6.77209L36.6849 7.17209L35.3166 6.78009L35.0374 7.77209L36.2461 8.12009L36.1384 8.50409L34.9296 8.16009L34.5108 9.64809L34.1797 9.55609L35.1012 6.28809Z" fill="#1D1D1D"/>
<path d="M37.949 9.6602C37.8732 9.8362 37.8413 9.9922 37.8413 10.1242C37.8492 10.3762 37.9769 10.5562 38.2282 10.6722C38.3399 10.7202 38.4476 10.7482 38.5633 10.7442C38.7827 10.7362 38.9463 10.6242 39.046 10.4002C39.1218 10.2282 39.1377 10.0882 39.0939 9.9842C39.05 9.8802 38.9582 9.7682 38.8186 9.6402L38.5633 9.4122C38.3918 9.2562 38.2841 9.1242 38.2362 9.0162C38.1524 8.8202 38.1724 8.5882 38.292 8.3362C38.4157 8.0522 38.5952 7.8602 38.8106 7.7482C39.034 7.6282 39.2694 7.6282 39.5247 7.7482C39.764 7.8522 39.9276 8.0242 40.0193 8.2522C40.1111 8.4842 40.0792 8.7722 39.9196 9.1122L39.6284 8.9842C39.6882 8.8122 39.7162 8.6722 39.7042 8.5642C39.6882 8.3642 39.5686 8.2122 39.3531 8.1122C39.1776 8.0322 39.026 8.0282 38.8984 8.0922C38.7747 8.1562 38.679 8.2642 38.6191 8.4042C38.5513 8.5562 38.5473 8.6882 38.6072 8.8002C38.6471 8.8682 38.7548 8.9882 38.9343 9.1522L39.2016 9.3882C39.3292 9.5082 39.413 9.6242 39.4609 9.7442C39.5327 9.9602 39.5087 10.2002 39.3851 10.4722C39.2295 10.8122 39.026 11.0162 38.7787 11.0842C38.5274 11.1522 38.288 11.1282 38.0487 11.0162C37.7694 10.8882 37.5939 10.6922 37.5261 10.4202C37.4583 10.1562 37.5022 9.8562 37.6538 9.5202L37.949 9.6602Z" fill="#1D1D1D"/>
<path d="M41.1527 8.65579L40.1075 10.4758C39.9918 10.6918 39.912 10.8838 39.9001 11.0558C39.8641 11.3238 39.9519 11.5198 40.1673 11.6398C40.4186 11.7878 40.658 11.7718 40.8854 11.5918C41.005 11.4998 41.1287 11.3398 41.2524 11.1278L42.2936 9.31179L42.5888 9.47979L41.6393 11.1318C41.4319 11.4998 41.2404 11.7518 41.0529 11.9038C40.7138 12.1838 40.3588 12.2158 39.9918 11.9998C39.6168 11.7878 39.4692 11.4638 39.541 11.0358C39.5769 10.7958 39.7006 10.4958 39.908 10.1358L40.8575 8.48779L41.1527 8.65579Z" fill="#1D1D1D"/>
<path d="M42.4412 11.2558L43.1074 10.3238L43.7736 10.7998C43.8693 10.8678 43.9292 10.9398 43.9571 11.0198C44.0049 11.1638 43.969 11.3318 43.8294 11.5278C43.6978 11.7078 43.5701 11.8078 43.4505 11.8238C43.3228 11.8398 43.1991 11.7958 43.0715 11.7078L42.4412 11.2558ZM41.0889 12.5558L41.3721 12.7518L42.2178 11.5678L42.8361 12.0118C42.9478 12.0918 43.0156 12.1638 43.0475 12.2358C43.0954 12.3678 43.0555 12.5238 42.9359 12.7038L42.6207 13.1798C42.5529 13.2878 42.501 13.3638 42.4851 13.4078C42.4611 13.4478 42.4452 13.4878 42.4452 13.5238L42.7803 13.7638L42.8281 13.7078C42.8042 13.6518 42.8122 13.5758 42.8601 13.4758C42.884 13.4158 42.9319 13.3318 43.0077 13.2238L43.259 12.8438C43.3667 12.6798 43.4305 12.5478 43.4385 12.4478C43.4465 12.3438 43.4305 12.2438 43.3786 12.1398C43.5103 12.1438 43.6499 12.1118 43.7736 12.0438C43.9012 11.9758 44.0209 11.8598 44.1446 11.6958C44.368 11.3758 44.4238 11.0918 44.3201 10.8358C44.2603 10.7038 44.1565 10.5838 44.001 10.4718L43.0635 9.7998L41.0929 12.5638" fill="#1D1D1D"/>
<path d="M45.1731 11.3641L43.8447 14.0321L46.2781 12.3241L46.5733 12.5761L43.6532 14.5321L43.3779 14.2921L44.8858 11.1201L45.1731 11.3641Z" fill="#1D1D1D"/>
<path d="M46.8007 12.812L48.0852 14.14L47.79 14.428L46.7448 13.344L46.0028 14.06L46.9762 15.064L46.689 15.336L45.7196 14.332L44.8938 15.132L45.955 16.236L45.6677 16.516L44.3633 15.168L46.8007 12.812Z" fill="#1D1D1D"/>
<path d="M48.265 14.3359L48.5124 14.6479L47.7065 16.2399L49.4259 15.7879L49.6732 16.0959L47.5031 16.6199L46.442 17.4759L46.2266 17.2039L47.2837 16.3479L48.265 14.3359Z" fill="#1D1D1D"/>
<path d="M49.8211 16.3481L50.0166 16.6201L47.2561 18.5801L47.0566 18.3001L49.8211 16.3481Z" fill="#1D1D1D"/>
<path d="M50.3031 17.0078L50.5145 17.3518L48.8391 19.8758L51.1807 18.4398L51.3443 18.7158L48.4601 20.4878L48.2607 20.1638L49.9162 17.6238L47.5865 19.0518L47.4189 18.7798L50.3031 17.0078Z" fill="#1D1D1D"/>
<path d="M52.2738 20.7882C52.222 21.0962 52.0146 21.3682 51.6396 21.6042L51.488 21.2962C51.6954 21.1522 51.8191 21.0042 51.867 20.8362C51.9108 20.6722 51.8909 20.4962 51.8071 20.3202C51.7114 20.1122 51.5159 19.9802 51.2446 19.9442C50.9614 19.9042 50.6104 19.9802 50.1955 20.1802C49.8285 20.3522 49.5612 20.5482 49.3897 20.7762C49.2181 21.0002 49.1942 21.2482 49.3219 21.5202C49.4176 21.7242 49.5812 21.8602 49.8006 21.9162C50.024 21.9762 50.3152 21.9162 50.6702 21.7562L50.3311 21.0362L50.6742 20.8722L51.1529 21.8802L49.5133 22.6602L49.4176 22.4602L49.7846 22.1922C49.5812 22.1642 49.4296 22.1242 49.3338 22.0722C49.1663 21.9882 49.0307 21.8402 48.9309 21.6282C48.8033 21.3642 48.8113 21.0722 48.9549 20.7682C49.1463 20.4202 49.5014 20.1202 50.02 19.8762C50.5266 19.6322 50.9854 19.5442 51.3883 19.6002C51.7712 19.6602 52.0385 19.8402 52.1861 20.1562C52.2818 20.3682 52.3137 20.5842 52.2778 20.7842" fill="#1D1D1D"/>
<path d="M54.197 27.4682C54.0653 27.7402 53.7861 27.9482 53.3632 28.0762L53.3074 27.7322C53.5467 27.6562 53.7023 27.5362 53.794 27.3922C53.8818 27.2482 53.9097 27.0802 53.8818 26.8842C53.8419 26.6522 53.6943 26.4842 53.439 26.3642C53.1797 26.2402 52.8207 26.2202 52.3579 26.3002C51.963 26.3642 51.6519 26.4842 51.4285 26.6522C51.2051 26.8242 51.1133 27.0562 51.1612 27.3522C51.1971 27.5762 51.3168 27.7482 51.5122 27.8682C51.7117 27.9802 52.0069 28.0122 52.3938 27.9522L52.2622 27.1642L52.6412 27.1002L52.8207 28.2002L51.0335 28.5002L50.9937 28.2882L51.4205 28.1322C51.233 28.0482 51.0974 27.9682 51.0176 27.8922C50.874 27.7562 50.7862 27.5842 50.7503 27.3522C50.7024 27.0602 50.7862 26.7882 51.0096 26.5282C51.2889 26.2402 51.7117 26.0522 52.2742 25.9602C52.8327 25.8642 53.2954 25.9082 53.6664 26.0762C54.0214 26.2362 54.2209 26.4842 54.2767 26.8282C54.3166 27.0602 54.2927 27.2682 54.2009 27.4642" fill="#1D1D1D"/>
<path d="M54.4207 28.54L54.5404 30.396L54.1295 30.42L54.0298 28.908L53.0046 28.98L53.0963 30.376L52.7094 30.4L52.6216 29L51.4688 29.08L51.5725 30.612L51.1656 30.636L51.0459 28.76L54.4207 28.54Z" fill="#1D1D1D"/>
<path d="M51.4281 31.9322C51.4441 31.6122 51.5797 31.3802 51.847 31.2482C52.1103 31.1162 52.4294 31.0522 52.8044 31.0682C53.2791 31.0882 53.6301 31.1842 53.8655 31.3602C54.1048 31.5362 54.2126 31.7562 54.2046 32.0242C54.1926 32.2922 54.0649 32.5042 53.8136 32.6562C53.5663 32.8042 53.2392 32.8762 52.8403 32.8602C52.4573 32.8442 52.1262 32.7602 51.839 32.6082C51.5558 32.4642 51.4201 32.2322 51.4281 31.9322ZM54.6035 32.0202C54.6274 31.5882 54.428 31.2562 54.0171 31.0202C53.6979 30.8402 53.311 30.7362 52.8562 30.7242C52.3456 30.7042 51.9228 30.7842 51.5837 30.9762C51.2326 31.1842 51.0491 31.4842 51.0332 31.8762C51.0172 32.2922 51.2007 32.6282 51.5877 32.8642C51.9148 33.0722 52.3297 33.1882 52.8363 33.2082C53.303 33.2242 53.69 33.1562 53.9971 32.9962C54.3921 32.7962 54.5955 32.4642 54.6075 32.0202" fill="#1D1D1D"/>
<path d="M51.4047 33.6079L53.9698 33.9799L53.886 34.5799C53.8421 34.8519 53.6985 35.0319 53.4512 35.1239C53.2039 35.2119 52.8727 35.2239 52.4619 35.1679C52.3542 35.1519 52.2385 35.1239 52.1148 35.0879C51.9074 35.0319 51.7398 34.9559 51.6162 34.8759C51.4606 34.7639 51.3648 34.6399 51.317 34.4959C51.297 34.4199 51.297 34.3239 51.317 34.2079L51.4047 33.6039V33.6079ZM51.0657 33.2119L50.9181 34.2199C50.8622 34.6479 51.0696 34.9879 51.5483 35.2359C51.8236 35.3799 52.1387 35.4759 52.4938 35.5319C52.9525 35.5959 53.3395 35.5639 53.6666 35.4399C54.0176 35.2999 54.2211 35.0559 54.269 34.7119L54.4166 33.6959L51.0657 33.2119Z" fill="#1D1D1D"/>
<path d="M54.0171 36.2558L53.5704 38.0638L53.1714 37.9638L53.5305 36.4918L52.5332 36.2438L52.1981 37.5998L51.8231 37.5078L52.1542 36.1478L51.0372 35.8758L50.6702 37.3638L50.2793 37.2718L50.7301 35.4438L54.0171 36.2558Z" fill="#1D1D1D"/>
<path d="M51.201 37.9559C51.0214 37.8999 50.8659 37.8759 50.7302 37.8959C50.4829 37.9239 50.3154 38.0639 50.2196 38.3199C50.1837 38.4399 50.1678 38.5519 50.1837 38.6679C50.2077 38.8879 50.3353 39.0359 50.5707 39.1199C50.7462 39.1759 50.8818 39.1759 50.9855 39.1359C51.0853 39.0759 51.189 38.9719 51.3047 38.8199L51.5041 38.5439C51.6398 38.3599 51.7594 38.2399 51.8672 38.1839C52.0467 38.0879 52.274 38.0839 52.5413 38.1719C52.8325 38.2759 53.04 38.4279 53.1796 38.6399C53.3152 38.8519 53.3392 39.0879 53.2434 39.3559C53.1636 39.5919 53.0081 39.7759 52.7847 39.8879C52.5653 40.0039 52.274 39.9959 51.919 39.8759L52.0227 39.5719C52.2022 39.6159 52.3458 39.6279 52.4496 39.6119C52.649 39.5719 52.7886 39.4399 52.8644 39.2159C52.9323 39.0279 52.9243 38.8799 52.8445 38.7599C52.7647 38.6399 52.653 38.5519 52.5134 38.5079C52.3578 38.4519 52.2262 38.4639 52.1185 38.5319C52.0506 38.5759 51.9469 38.6999 51.7993 38.8959L51.5839 39.1799C51.4802 39.3199 51.3725 39.4199 51.2568 39.4759C51.0534 39.5719 50.81 39.5719 50.5268 39.4679C50.1718 39.3479 49.9563 39.1599 49.8646 38.9199C49.7808 38.6759 49.7808 38.4279 49.8646 38.1879C49.9683 37.8959 50.1438 37.7039 50.4071 37.6079C50.6664 37.5159 50.9696 37.5319 51.3166 37.6519L51.2049 37.9599" fill="#1D1D1D"/>
<path d="M52.7245 40.5479L52.561 40.9119L50.7778 40.8959L51.9546 42.2399L51.7911 42.6039L50.347 40.8879L49.1104 40.3199L49.25 40.0039L50.4906 40.5759L52.7245 40.5479Z" fill="#1D1D1D"/>
<path d="M48.2131 46.3161C48.0416 46.1801 47.9498 46.0481 47.9339 45.9161C47.9219 45.7881 47.9618 45.6641 48.0575 45.5401L48.4684 44.9961L49.3979 45.7041L48.987 46.2481C48.8992 46.3561 48.8234 46.4201 48.7397 46.4561C48.5881 46.5121 48.4086 46.4601 48.2091 46.3161H48.2131ZM47.2318 43.6241L47.0283 43.8961L48.1612 44.7601L47.6825 45.3961C47.531 45.5961 47.4951 45.8121 47.5708 46.0281C47.6546 46.2441 47.7982 46.4361 48.0097 46.5921C48.257 46.7761 48.4884 46.8681 48.7078 46.8681C48.9272 46.8601 49.1067 46.7641 49.2383 46.5801L49.9284 45.6721L47.2318 43.6201" fill="#1D1D1D"/>
<path d="M48.5007 47.516L48.2694 47.776L47.2402 46.82L46.3546 47.792L47.3798 48.74L47.1484 48.992L44.6592 46.696L44.8906 46.448L46.0514 47.516L46.949 46.544L45.7801 45.472L46.0115 45.228L48.5007 47.516Z" fill="#1D1D1D"/>
<path d="M43.8647 47.824C44.1041 47.608 44.3634 47.552 44.6426 47.652C44.9218 47.752 45.1851 47.94 45.4324 48.224C45.7476 48.584 45.9191 48.908 45.955 49.2C45.9909 49.492 45.9072 49.724 45.7077 49.9C45.5003 50.08 45.2649 50.132 44.9817 50.056C44.7024 49.976 44.4312 49.784 44.1679 49.484C43.9206 49.204 43.749 48.908 43.6533 48.596C43.5615 48.284 43.6293 48.028 43.8607 47.832L43.8647 47.824ZM45.9909 50.188C46.3141 49.9 46.4138 49.532 46.3021 49.068C46.2143 48.72 46.0189 48.36 45.7117 48.016C45.3766 47.628 45.0256 47.384 44.6585 47.272C44.2596 47.156 43.9166 47.232 43.6254 47.492C43.3102 47.768 43.2025 48.132 43.2943 48.576C43.37 48.952 43.5735 49.336 43.9086 49.712C44.2158 50.064 44.5309 50.3 44.858 50.412C45.2729 50.56 45.6519 50.48 45.9869 50.184" fill="#1D1D1D"/>
<path d="M43.187 52.2601L42.9517 51.9361L43.6418 51.4361L41.8945 49.0121L42.1658 48.8081L43.925 51.2281L44.6151 50.7241L44.8505 51.0521L43.187 52.2601Z" fill="#1D1D1D"/>
<path d="M40.4386 50.3241C40.7178 50.1561 40.9811 50.1561 41.2364 50.3041C41.4917 50.4521 41.7191 50.6921 41.9066 51.0161C42.1539 51.4241 42.2616 51.7721 42.2457 52.0681C42.2257 52.3601 42.0981 52.5681 41.8747 52.7121C41.6353 52.8481 41.392 52.8521 41.1287 52.7201C40.8694 52.5921 40.6341 52.3601 40.4306 52.0161C40.2351 51.6881 40.1274 51.3641 40.0915 51.0401C40.0596 50.7201 40.1753 50.4801 40.4346 50.3241H40.4386ZM42.0981 53.0441C42.4651 52.8241 42.6366 52.4801 42.6047 52.0121C42.5848 51.6361 42.4571 51.2561 42.2217 50.8641C41.9625 50.4201 41.6673 50.1161 41.3282 49.9321C40.9532 49.7481 40.6021 49.7601 40.271 49.9601C39.912 50.1681 39.7325 50.5081 39.7405 50.9641C39.7485 51.3481 39.8801 51.7601 40.1354 52.2001C40.3748 52.6081 40.646 52.8881 40.9452 53.0601C41.3282 53.2841 41.7111 53.2801 42.0981 53.0481" fill="#1D1D1D"/>
<path d="M39.0184 54.42C38.7192 54.368 38.4519 54.148 38.2165 53.768L38.5277 53.628C38.6633 53.828 38.8189 53.96 38.9825 54.008C39.142 54.056 39.3176 54.044 39.4931 53.964C39.7045 53.868 39.8322 53.672 39.88 53.396C39.9239 53.116 39.8481 52.764 39.6566 52.336C39.4851 51.976 39.2936 51.7 39.0662 51.524C38.8468 51.348 38.5955 51.324 38.3322 51.444C38.1208 51.54 37.9852 51.696 37.9293 51.92C37.8695 52.14 37.9174 52.436 38.0769 52.796L38.8029 52.464L38.9625 52.812L37.9493 53.28L37.1953 51.628L37.3948 51.536L37.6541 51.908C37.686 51.704 37.7259 51.552 37.7777 51.452C37.8695 51.284 38.0171 51.148 38.2245 51.056C38.4918 50.932 38.779 50.944 39.0822 51.092C39.4292 51.288 39.7244 51.652 39.9598 52.172C40.1952 52.684 40.2829 53.144 40.2151 53.548C40.1513 53.924 39.9598 54.184 39.6526 54.332C39.4372 54.432 39.2258 54.464 39.0184 54.42Z" fill="#1D1D1D"/>
<path d="M37.2114 53.5722L37.5824 54.6602L36.8045 54.9202C36.6928 54.9602 36.5971 54.9682 36.5213 54.9522C36.3737 54.9122 36.262 54.7762 36.1822 54.5482C36.1104 54.3402 36.1024 54.1722 36.1582 54.0642C36.2221 53.9562 36.3258 53.8762 36.4774 53.8242L37.2114 53.5762V53.5722ZM36.9441 51.7202L36.617 51.8282L37.0877 53.2122L36.3657 53.4562C36.242 53.4962 36.1383 53.5162 36.0625 53.4922C35.9309 53.4562 35.8271 53.3362 35.7514 53.1242L35.5479 52.5922C35.504 52.4682 35.4641 52.3882 35.4442 52.3482C35.4203 52.3002 35.4003 52.2682 35.3764 52.2482L34.9814 52.3842L35.0054 52.4602C35.0612 52.4682 35.1171 52.5242 35.1769 52.6202C35.2088 52.6762 35.2487 52.7602 35.2886 52.8802L35.4482 53.3082C35.52 53.4922 35.5918 53.6242 35.6676 53.6922C35.7394 53.7562 35.8391 53.8002 35.9468 53.8202C35.8631 53.9322 35.8152 54.0562 35.7952 54.2002C35.7753 54.3442 35.8032 54.5082 35.867 54.7042C35.9907 55.0762 36.1902 55.2882 36.4614 55.3522C36.601 55.3802 36.7606 55.3722 36.9401 55.3082L38.0332 54.9322L36.9441 51.7202Z" fill="#1D1D1D"/>
<path d="M34.6978 53.8799L34.6459 55.4359L33.9239 54.0599L34.6978 53.8799ZM35.0967 52.3599L34.7417 52.4399L34.7098 53.4879L33.7444 53.7239L33.2537 52.7959L32.8867 52.8839L34.5622 55.9759L34.9531 55.8879L35.1007 52.3639" fill="#1D1D1D"/>
<path d="M33.3532 56.2439L32.8705 56.3079L31.7735 53.5599L31.4265 56.5079L30.9438 56.5679L30.501 53.1999L30.8201 53.1599L31.0834 55.1479C31.0914 55.2159 31.1033 55.3279 31.1153 55.4919C31.1353 55.6479 31.1512 55.8159 31.1751 56.0039L31.5382 53.0679L31.8772 53.0199L32.9782 55.7639L32.9663 55.6559C32.9543 55.5719 32.9344 55.4519 32.9064 55.2799C32.8825 55.1119 32.8666 54.9879 32.8546 54.9119L32.5913 52.9239L32.9104 52.8799L33.3532 56.2439Z" fill="#1D1D1D"/>
<path d="M30.3935 56.6042L29.9109 56.6122L29.125 53.7602L28.4508 56.6442L27.9641 56.6562L27.9043 53.2642L28.2234 53.2562L28.2593 55.2642V55.6042C28.2553 55.7642 28.2553 55.9362 28.2593 56.1242L28.9455 53.2402H29.2925L30.0784 56.0882V55.9842C30.0704 55.9002 30.0704 55.7722 30.0624 55.6002C30.0505 55.4322 30.0465 55.3082 30.0465 55.2242L30.0106 53.2282L30.3297 53.2202L30.3935 56.6082" fill="#1D1D1D"/>
<path d="M27.4056 56.6162L25.5586 56.4602L25.5905 56.0482L27.0984 56.1682L27.1822 55.1442L25.79 55.0322L25.8259 54.6362L27.2141 54.7562L27.3098 53.6042L25.786 53.4802L25.8219 53.0762L27.6848 53.2282L27.4056 56.6162Z" fill="#1D1D1D"/>
<path d="M23.3086 56.0922L23.3724 55.6922L24.2181 55.8402L24.7168 52.8882L25.0558 52.9482L24.5612 55.8962L25.4029 56.0362L25.3391 56.4282L23.3086 56.0922Z" fill="#1D1D1D"/>
<path d="M23.0417 54.432L22.7465 55.544L21.9606 55.332C21.8489 55.304 21.7652 55.256 21.7093 55.196C21.6096 55.08 21.5856 54.908 21.6495 54.672C21.7053 54.456 21.7891 54.316 21.8968 54.26C22.0045 54.204 22.1401 54.188 22.2917 54.232L23.0417 54.428V54.432ZM23.8395 52.732L23.5084 52.648L23.1374 54.056L22.3994 53.864C22.2678 53.832 22.176 53.784 22.1282 53.728C22.0364 53.628 22.0165 53.468 22.0643 53.256L22.188 52.696C22.2159 52.564 22.2319 52.48 22.2399 52.432C22.2399 52.384 22.2399 52.348 22.2399 52.312L21.837 52.208L21.817 52.28C21.8609 52.324 21.8768 52.396 21.8729 52.508C21.8649 52.576 21.8529 52.676 21.825 52.792L21.7213 53.244C21.6814 53.436 21.6694 53.584 21.6973 53.68C21.7213 53.776 21.7731 53.868 21.8569 53.944C21.7292 53.992 21.6176 54.064 21.5218 54.18C21.4301 54.288 21.3543 54.444 21.3064 54.64C21.2067 55.016 21.2545 55.304 21.45 55.504C21.5457 55.6 21.6894 55.68 21.8689 55.732L22.9858 56.024L23.8475 52.74" fill="#1D1D1D"/>
<path d="M20.8114 55.4361L20.4404 55.3041L20.3088 53.5201L19.0722 54.8041L18.7012 54.6681L20.2849 53.0961L20.7516 51.8081L21.0747 51.9241L20.608 53.2081L20.8114 55.4361Z" fill="#1D1D1D"/>
<path d="M18.5813 51.1761C18.6811 51.2201 18.7529 51.3161 18.7968 51.4441C18.8446 51.5801 18.8207 51.7241 18.7409 51.8841C18.6651 52.0321 18.5694 52.1401 18.4497 52.2081C18.3739 52.2561 18.2263 52.3081 18.0189 52.3641L17.9271 51.2681C18.0149 51.2041 18.1186 51.1561 18.2343 51.1281C18.354 51.1001 18.4657 51.1161 18.5813 51.1721V51.1761ZM17.7077 52.7361C17.7197 52.9041 17.7317 53.0281 17.7277 53.1281C17.7237 53.2241 17.6997 53.3081 17.6559 53.3921C17.6319 53.4561 17.588 53.5041 17.5402 53.5481C17.4444 53.6281 17.3367 53.6401 17.221 53.5801C17.1452 53.5401 17.1014 53.4801 17.0894 53.3921C17.0734 53.3041 17.0934 53.2201 17.1373 53.1281C17.1971 53.0161 17.2769 52.9241 17.3846 52.8601C17.4524 52.8201 17.5561 52.7801 17.7077 52.7361ZM18.0428 52.7001C18.2862 52.6521 18.4577 52.5921 18.5694 52.5281C18.7529 52.4321 18.9005 52.2641 19.0122 52.0361C19.1159 51.8281 19.1638 51.6041 19.1398 51.3761C19.1159 51.1521 18.9922 50.9841 18.7569 50.8681C18.5973 50.7841 18.4377 50.7641 18.2622 50.8001C18.1625 50.8161 18.0428 50.8681 17.8992 50.9481L17.8553 50.5041L17.5043 50.3281L17.5761 51.1721C17.596 51.1441 17.5322 51.2001 17.3886 51.3481C17.245 51.5041 17.1173 51.6721 17.0016 51.8601L17.2689 51.9921C17.3288 51.9001 17.3766 51.8321 17.4125 51.7761C17.4564 51.7321 17.5123 51.6601 17.596 51.5561L17.6758 52.4241C17.4963 52.4721 17.3567 52.5241 17.2609 52.5881C17.0934 52.6841 16.9617 52.8281 16.866 53.0281C16.7822 53.1921 16.7583 53.3601 16.7822 53.5241C16.8062 53.6881 16.9019 53.8121 17.0575 53.8921C17.225 53.9761 17.3926 53.9801 17.5521 53.9001C17.7117 53.8201 17.8473 53.6801 17.9431 53.4881C17.991 53.3961 18.0269 53.2921 18.0428 53.1681C18.0588 53.0561 18.0588 52.8961 18.0428 52.7041" fill="#1D1D1D"/>
<path d="M13.6231 51.5442C13.6032 51.2642 13.663 50.9882 13.8066 50.7402L14.0779 50.9242C13.9941 51.1282 13.9542 51.3162 13.9782 51.4802C14.0061 51.6482 14.0978 51.7882 14.2654 51.9082C14.4688 52.0402 14.7002 52.0602 14.9595 51.9482C15.2148 51.8402 15.4821 51.5802 15.7533 51.1842C15.9728 50.8562 16.0924 50.5522 16.1203 50.2682C16.1443 49.9842 16.0446 49.7682 15.8172 49.6122C15.6097 49.4762 15.3824 49.4762 15.1231 49.6122C14.9874 49.6922 14.8438 49.8162 14.6962 49.9802L14.413 49.7962C14.6404 49.5122 14.8877 49.3202 15.1629 49.2082C15.4901 49.0762 15.7932 49.1122 16.0765 49.3002C16.3198 49.4682 16.4515 49.7002 16.4874 50.0122C16.5312 50.4202 16.3677 50.9042 16.0007 51.4442C15.7214 51.8562 15.4103 52.1442 15.0672 52.3002C14.6962 52.4722 14.3571 52.4522 14.046 52.2362C13.7827 52.0642 13.6391 51.8322 13.6191 51.5442" fill="#1D1D1D"/>
<path d="M13.7627 49.4318L12.4981 50.3398L13.1484 48.9358L13.7627 49.4358V49.4318ZM15.2148 48.8278L14.9355 48.5958L14.0818 49.2078L13.3159 48.5758L13.7507 47.6198L13.4635 47.3838L12.0234 50.5918L12.3306 50.8478L15.2148 48.8278Z" fill="#1D1D1D"/>
<path d="M11.9077 48.428L11.1019 49.244L10.5194 48.664C10.4397 48.584 10.3878 48.504 10.3718 48.428C10.3439 48.272 10.4117 48.112 10.5793 47.94C10.7349 47.784 10.8785 47.7 11.0021 47.708C11.1258 47.708 11.2455 47.772 11.3572 47.884L11.9037 48.432L11.9077 48.428ZM13.4435 47.364L13.2042 47.124L12.1789 48.156L11.6364 47.62C11.5407 47.524 11.4848 47.444 11.4689 47.36C11.4449 47.228 11.5088 47.084 11.6524 46.92L12.0393 46.504C12.1231 46.4 12.1829 46.332 12.2109 46.292C12.2388 46.256 12.2587 46.22 12.2667 46.192L11.9675 45.896L11.9196 45.948C11.9356 46.012 11.9117 46.084 11.8518 46.172C11.8159 46.228 11.7561 46.304 11.6643 46.4L11.3532 46.736C11.2215 46.88 11.1378 47 11.1138 47.096C11.0899 47.196 11.0899 47.292 11.1218 47.412C10.9862 47.38 10.8545 47.396 10.7149 47.444C10.5793 47.488 10.4397 47.584 10.2961 47.732C10.0248 48 9.92107 48.276 9.98889 48.552C10.0208 48.688 10.1046 48.828 10.2402 48.96L11.058 49.78L13.4395 47.368" fill="#1D1D1D"/>
<path d="M8.17383 46.6242L8.48099 46.3642L9.03549 47.0282L11.3093 45.0962L11.5327 45.3602L9.2509 47.2802L9.8054 47.9402L9.50222 48.2042L8.17383 46.6242Z" fill="#1D1D1D"/>
<path d="M9.90937 43.7361C10.0889 44.0001 10.1128 44.2641 9.98516 44.5281C9.85352 44.7921 9.63411 45.0361 9.32296 45.2561C8.93601 45.5241 8.59693 45.6561 8.30572 45.6601C8.01451 45.6601 7.78713 45.5481 7.63554 45.3281C7.48395 45.1081 7.46002 44.8601 7.56772 44.5921C7.67942 44.3201 7.89883 44.0721 8.22993 43.8401C8.53709 43.6241 8.85224 43.4841 9.17137 43.4321C9.48651 43.3761 9.73384 43.4721 9.90937 43.7281V43.7361ZM7.31641 45.5841C7.55975 45.9361 7.91877 46.0841 8.3855 46.0241C8.75251 45.9721 9.1235 45.8201 9.50247 45.5561C9.91734 45.2641 10.2046 44.9441 10.3641 44.5881C10.5197 44.2041 10.4878 43.8561 10.2604 43.5361C10.0251 43.1881 9.67799 43.0361 9.22722 43.0761C8.84426 43.1121 8.44135 43.2721 8.02648 43.5601C7.64352 43.8281 7.37625 44.1201 7.22466 44.4281C7.03318 44.8281 7.06509 45.2121 7.3204 45.5841" fill="#1D1D1D"/>
<path d="M5.72878 42.5918C5.76069 42.2878 5.96015 42.0078 6.32317 41.7438L6.48273 42.0438C6.28726 42.1958 6.16759 42.3558 6.13567 42.5238C6.09977 42.6998 6.12371 42.8598 6.21945 43.0358C6.32715 43.2438 6.52661 43.3518 6.80585 43.3758C7.08909 43.4038 7.43215 43.3118 7.83905 43.0838C8.19408 42.8958 8.44939 42.6758 8.60896 42.4398C8.76852 42.2038 8.77251 41.9518 8.63289 41.6998C8.52519 41.4958 8.35365 41.3758 8.13026 41.3238C7.90287 41.2838 7.61964 41.3558 7.2686 41.5358L7.65156 42.2398L7.31647 42.4238L6.78192 41.4398L8.37759 40.5718L8.4813 40.7638L8.13425 41.0518C8.33769 41.0718 8.49327 41.0998 8.59699 41.1478C8.76852 41.2278 8.90815 41.3638 9.01984 41.5678C9.15946 41.8278 9.16744 42.1158 9.04777 42.4238C8.87224 42.7878 8.53316 43.1078 8.03053 43.3798C7.53587 43.6518 7.0851 43.7678 6.6782 43.7278C6.29125 43.6918 6.01999 43.5238 5.85643 43.2198C5.74873 43.0118 5.70086 42.7998 5.72479 42.5918" fill="#1D1D1D"/>
<path d="M6.45418 40.716L5.39307 41.16L5.08191 40.396C5.03803 40.296 5.02207 40.2 5.03803 40.112C5.06994 39.96 5.1976 39.844 5.417 39.748C5.62045 39.66 5.784 39.64 5.8957 39.696C6.0074 39.748 6.09915 39.848 6.155 39.992L6.45418 40.712V40.716ZM8.28122 40.336L8.15357 40.012L6.80523 40.576L6.51801 39.872C6.46216 39.74 6.44621 39.64 6.45817 39.564C6.48211 39.428 6.60178 39.32 6.79725 39.228L7.31584 38.996C7.43153 38.944 7.51131 38.896 7.55519 38.872C7.59509 38.848 7.62301 38.824 7.64694 38.8L7.48738 38.416L7.41956 38.436C7.4076 38.504 7.35972 38.556 7.26398 38.624C7.21213 38.656 7.12835 38.708 7.01267 38.752L6.59779 38.944C6.41429 39.02 6.29462 39.104 6.23079 39.184C6.16696 39.26 6.13505 39.356 6.12308 39.472C6.01139 39.392 5.87974 39.356 5.73214 39.344C5.59252 39.336 5.42498 39.368 5.23749 39.448C4.87846 39.592 4.679 39.808 4.63512 40.084C4.61518 40.224 4.63512 40.384 4.71491 40.56L5.1577 41.636L8.28122 40.34" fill="#1D1D1D"/>
<path d="M5.98388 38.2198L4.43608 38.2678L5.75251 37.4598L5.98787 38.2238L5.98388 38.2198ZM7.5237 38.5238L7.41998 38.1758L6.37083 38.2078L6.08361 37.2518L6.97718 36.7038L6.86548 36.3398L3.89355 38.2158L4.00924 38.5998L7.5237 38.5238Z" fill="#1D1D1D"/>
<path d="M4.2003 35.2841C4.4197 35.2401 4.57528 35.2601 4.68299 35.3401C4.78671 35.4121 4.85053 35.5321 4.88245 35.6801L5.01409 36.3441L3.87319 36.5841L3.73756 35.9081C3.70963 35.7761 3.71362 35.6761 3.74554 35.5881C3.80138 35.4361 3.95696 35.3401 4.19631 35.2801L4.2003 35.2841ZM6.86905 36.3201L6.80124 35.9841L5.40104 36.2681L5.24147 35.4841C5.18961 35.2361 5.06196 35.0681 4.84256 34.9881C4.62315 34.9081 4.38779 34.8921 4.1285 34.9401C3.82931 35.0041 3.60591 35.1201 3.46629 35.2921C3.32667 35.4641 3.28279 35.6561 3.32268 35.8801L3.55405 36.9921L6.86506 36.3161" fill="#1D1D1D"/>
<path d="M3.10774 34.6961L3.07184 34.3521L4.46805 34.2081L4.32843 32.8961L2.9402 33.0441L2.9043 32.6961L6.27115 32.3481L6.30706 32.6921L4.73532 32.8601L4.87096 34.1641L6.4387 34.0001L6.4746 34.3441L3.10774 34.6961Z" fill="#1D1D1D"/>
<path d="M2.88021 32.3558L2.87623 31.9558L4.49583 31.2078L2.86825 30.4958L2.86426 30.0918L4.89474 31.0398L6.25505 31.0278V31.3678L4.89474 31.3758L2.88021 32.3558Z" fill="#1D1D1D"/>
<path d="M47.7024 31.0204L42.8516 29.7964V32.3044L47.7024 31.0204Z" fill="#1D1D1D"/>
<path d="M42.8513 32.5722C42.7914 32.5722 42.7356 32.5522 42.6877 32.5162C42.6199 32.4642 42.584 32.3842 42.584 32.3042V29.7962C42.584 29.7122 42.6239 29.6362 42.6877 29.5842C42.7515 29.5322 42.8393 29.5162 42.9191 29.5362L47.7699 30.7642C47.8896 30.7962 47.9734 30.9002 47.9734 31.0242C47.9734 31.1482 47.8936 31.2562 47.7739 31.2882L42.9231 32.5722C42.8991 32.5762 42.8792 32.5802 42.8552 32.5802L42.8513 32.5722ZM43.1185 30.1402V31.9522L46.625 31.0242L43.1185 30.1362V30.1402Z" fill="#1D1D1D"/>
<path d="M9.71777 31.0764L14.5726 32.3044V29.7964L9.71777 31.0764Z" fill="#1D1D1D"/>
<path d="M14.5722 32.5722C14.5483 32.5722 14.5283 32.5722 14.5084 32.5642L9.65755 31.3362C9.53787 31.3042 9.4541 31.2002 9.4541 31.0762C9.4541 30.9522 9.53388 30.8442 9.65356 30.8122L14.5044 29.5282C14.5842 29.5082 14.6719 29.5282 14.7358 29.5762C14.8036 29.6282 14.8395 29.7082 14.8395 29.7882V32.2962C14.8395 32.3802 14.7996 32.4562 14.7358 32.5082C14.6879 32.5442 14.6281 32.5642 14.5722 32.5642V32.5722ZM10.7985 31.0722L14.3049 31.9602V30.1482L10.7985 31.0762V31.0722Z" fill="#1D1D1D"/>
<path d="M28.8528 50.2082L30.0775 45.3442H27.5723L28.8528 50.2082Z" fill="#1D1D1D"/>
<path d="M28.8532 50.4762C28.7295 50.4762 28.6258 50.3922 28.5939 50.2762L27.3133 45.4122C27.2934 45.3322 27.3133 45.2442 27.3612 45.1802C27.4131 45.1122 27.4889 45.0762 27.5726 45.0762H30.0738C30.1576 45.0762 30.2334 45.1162 30.2853 45.1802C30.3371 45.2442 30.3531 45.3322 30.3331 45.4122L29.1085 50.2762C29.0805 50.3962 28.9728 50.4802 28.8492 50.4802L28.8532 50.4762ZM27.9237 45.6122L28.8492 49.1282L29.7348 45.6122H27.9277H27.9237Z" fill="#1D1D1D"/>
<path d="M9.08367 31.1558H8.62891C8.62891 19.4958 17.8918 11.8398 26.8474 11.1758L26.8793 11.6318C18.1311 12.2798 9.07968 19.7638 9.07968 31.1558H9.08367Z" fill="#1D1D1D"/>
<path d="M48.772 31.1558H48.3172C48.3172 19.7598 39.2698 12.2798 30.5176 11.6318L30.5495 11.1758C39.5052 11.8398 48.768 19.4958 48.768 31.1558H48.772Z" fill="#1D1D1D"/>
<path d="M32.6041 2.45215H24.873V3.28415H32.6041V2.45215Z" fill="white"/>
<path d="M32.7712 3.45618H24.7051V2.28418H32.7712V3.45618ZM25.0402 3.11618H32.4321V2.62418H25.0402V3.11618Z" fill="#1D1D1D"/>
<path d="M32.9482 2.45215H32.6162V3.28415H32.9482V2.45215Z" fill="#1D1D1D"/>
<path d="M33.1184 2.28418H32.4482V3.45618H33.1184V2.28418Z" fill="#1D1D1D"/>
<path d="M24.7978 2.45215H24.4658V3.28415H24.7978V2.45215Z" fill="#1D1D1D"/>
<path d="M24.968 2.28418H24.2979V3.45618H24.968V2.28418Z" fill="#1D1D1D"/>
<path d="M67.4014 30.536H72.8705V27.792H76.4368V30.536H81.9578L81.9299 33.42H67.4014V30.536ZM74.6656 44.284C71.0993 44.284 68.6061 42.268 68.6061 39.3C68.6061 36.332 71.0993 34.344 74.6656 34.344C78.232 34.344 80.7252 36.388 80.7252 39.3C80.7252 42.212 78.1801 44.284 74.6656 44.284ZM87.7222 53.16H70.9158V45.684H74.4542V50.22H87.7222V53.16ZM74.6656 41.484C76.2733 41.484 77.3464 40.728 77.3464 39.3C77.3464 37.872 76.2733 37.144 74.6656 37.144C73.058 37.144 71.9849 37.872 71.9849 39.3C71.9849 40.728 73.058 41.484 74.6656 41.484ZM86.8366 38.74V47.112H83.2982V27.816H86.8366V35.684H90.1077V38.736H86.8366V38.74Z" fill="#1D1D1D"/>
<path d="M113.185 44.3961V53.6081H109.618V47.3081H95.6522V44.3961H102.785V40.7561H93.4023V37.8161H109.112C109.566 35.4641 109.646 33.5881 109.646 31.8801H96.1628V28.9121H113.133V30.9841C113.133 32.9161 113.161 35.0161 112.65 37.8161H115.758V40.7561H106.323V44.3961H113.185Z" fill="#1D1D1D"/>
<path d="M119.404 43.5563V40.6163H141.708V43.5563H119.404ZM128.52 33.0843H121.523V30.2283H128.759V27.9043H132.297V30.2283H139.562V33.0843H132.565C132.995 34.8763 135.325 36.5283 140.714 36.8923L139.669 39.6363C134.926 39.3003 132.082 37.9563 130.554 35.9123C128.946 37.9563 126.022 39.3003 121.387 39.6363L120.342 36.8923C125.731 36.5283 128.089 34.8763 128.52 33.0843ZM139.027 53.6403H135.489V48.3763H121.87V45.4643H139.027V53.6403Z" fill="#1D1D1D"/>
<path d="M146.268 32.3003V29.3323H157.525V37.0883H149.806V39.3283C153.799 39.3283 156.536 39.1323 159.619 38.5443L159.915 41.5123C156.512 42.1843 153.32 42.2963 148.414 42.2963H146.296V34.3443H154.042V32.3003H146.268ZM165.084 48.7363C165.084 51.7883 161.841 53.6363 156.719 53.6363C151.597 53.6363 148.354 51.7883 148.354 48.7363C148.354 45.6843 151.545 43.8363 156.719 43.8363C161.893 43.8363 165.084 45.6003 165.084 48.7363ZM161.598 48.7363C161.598 47.3643 159.962 46.6643 156.719 46.6643C153.476 46.6643 151.84 47.3643 151.84 48.7363C151.84 50.1083 153.476 50.8083 156.719 50.8083C159.962 50.8083 161.598 50.1083 161.598 48.7363ZM168.112 36.7243V39.7203H164.841V43.3603H161.303V27.8203H164.841V31.2923H168.112V34.2883H164.841V36.7243H168.112Z" fill="#1D1D1D"/>
<path d="M171.411 30.0882H176.88V27.6802H180.447V30.0882H185.944V33.0002H171.415V30.0882H171.411ZM178.675 43.3042C175.109 43.3042 172.616 41.3442 172.616 38.5442C172.616 35.7442 175.109 33.8122 178.675 33.8122C182.242 33.8122 184.735 35.7442 184.735 38.5442C184.735 41.3442 182.242 43.3042 178.675 43.3042ZM190.846 53.6362H187.308V48.0082H174.387V45.0402H190.846V53.6362ZM178.675 40.5042C180.283 40.5042 181.356 39.8602 181.356 38.5442C181.356 37.2282 180.283 36.6122 178.675 36.6122C177.068 36.6122 175.995 37.2282 175.995 38.5442C175.995 39.8602 177.068 40.5042 178.675 40.5042ZM190.846 43.9762H187.308V27.8202H190.846V34.4562H194.117V37.5082H190.846V43.9762Z" fill="#1D1D1D"/>
<path d="M213.177 45.6004L213.445 48.2604C208.055 49.2964 202.319 49.3244 197.979 49.3244L197.548 46.3284C199.399 46.3284 201.433 46.3564 203.687 46.2724V44.0884C201.006 43.5564 199.319 41.8204 199.319 39.4404C199.319 36.5284 201.84 34.5684 205.458 34.5684C209.077 34.5684 211.57 36.5284 211.57 39.4404C211.57 41.8204 209.906 43.5564 207.226 44.0884V46.1324C209.264 46.0204 211.247 45.9084 213.177 45.6004ZM198.031 30.6764H203.687V27.9044H207.226V30.6764H212.854V33.5604H198.031V30.6764ZM205.454 41.4844C207.17 41.4844 208.215 40.7564 208.215 39.4404C208.215 38.1244 207.17 37.3684 205.454 37.3684C203.739 37.3684 202.694 38.0964 202.694 39.4404C202.694 40.7844 203.819 41.4844 205.454 41.4844ZM214.462 53.6084V27.8164H218V53.6084H214.462Z" fill="#1D1D1D"/>
<path d="M76.3926 16.8362L75.4272 18.1482C73.9392 17.3322 72.8382 15.8282 72.2399 13.8922C71.6415 15.8922 70.4926 17.5722 68.9009 18.4202L67.9355 17.0922C70.1096 15.9882 71.442 13.2522 71.442 10.5802V8.21221H73.0217V10.5802C73.0217 13.1562 74.3222 15.7802 76.3926 16.8362ZM78.8898 14.1002V21.4602H77.3101V7.01221H78.8898V12.7402H81.0519V14.1002H78.8898Z" fill="#1D1D1D"/>
<path d="M84.7263 14.9961H83.6094V8.19609H89.7687V9.54009H85.1891V13.6361C87.81 13.6361 89.2939 13.5561 90.9654 13.1721L91.117 14.5001C89.3099 14.8841 87.7023 14.9961 84.7263 14.9961ZM94.3921 19.8441V21.1881H85.0774V16.4041H86.6691V19.8441H94.3921ZM95.8003 12.5001H93.8376V17.4601H92.2579V6.99609H93.8376V11.1401H95.8003V12.5001Z" fill="#1D1D1D"/>
<path d="M109.359 14.9321H107.779V11.7961H104.899V14.4361H98.5244V7.73209H100.088V9.78009H103.351V7.74809H104.899V10.4521H107.779V6.99609L109.359 7.01209V14.9321ZM100.088 11.0601V13.0921H103.351V11.0601H100.088ZM109.359 15.5881V21.2681H100.367V15.5881H101.931V17.1241H107.783V15.5881H109.363H109.359ZM101.927 18.4201V19.9401H107.779V18.4201H101.927Z" fill="#1D1D1D"/>
<path d="M116.696 15.2042C114.613 15.2042 113.018 13.6842 113.018 11.5882C113.018 9.49221 114.609 7.97221 116.696 7.97221C118.782 7.97221 120.358 9.46021 120.358 11.5882C120.358 13.7162 118.778 15.2042 116.696 15.2042ZM116.696 13.7802C117.904 13.7802 118.826 12.9002 118.826 11.5882C118.826 10.2762 117.908 9.39621 116.696 9.39621C115.483 9.39621 114.565 10.2442 114.565 11.5882C114.565 12.9322 115.471 13.7802 116.696 13.7802ZM124.554 21.1882H115.116V16.4522H116.708V19.8442H124.55V21.1882H124.554ZM122.58 17.5082V7.01221H124.159V17.5082H122.58Z" fill="#1D1D1D"/>
</g>
<defs>
<clipPath id="clip0_366_1039">
<rect width="218" height="60" fill="white"/>
</clipPath>
</defs>
</svg>
