<svg width="30" height="30" viewBox="0 0 30 30" fill="none" xmlns="http://www.w3.org/2000/svg">
<path d="M14.5 27.5C12.7795 27.5 11.1598 27.1742 9.6408 26.5227C8.12179 25.8711 6.79441 24.9773 5.65865 23.8413C4.52266 22.7056 3.62889 21.3782 2.97734 19.8592C2.32578 18.3402 2 16.7205 2 15C2 13.2653 2.32578 11.6421 2.97734 10.1302C3.62889 8.61825 4.52266 7.29441 5.65865 6.15865C6.79441 5.02266 8.12179 4.12889 9.6408 3.47734C11.1598 2.82578 12.7795 2.5 14.5 2.5C16.2347 2.5 17.8579 2.82578 19.3698 3.47734C20.8818 4.12889 22.2056 5.02266 23.3413 6.15865C24.4773 7.29441 25.3711 8.61825 26.0227 10.1302C26.6742 11.6421 27 13.2653 27 15C27 16.7205 26.6742 18.3402 26.0227 19.8592C25.3711 21.3782 24.4773 22.7056 23.3413 23.8413C22.2056 24.9773 20.8818 25.8711 19.3698 26.5227C17.8579 27.1742 16.2347 27.5 14.5 27.5ZM14.5 25.6508C14.995 25.156 15.459 24.3499 15.8922 23.2325C16.3253 22.115 16.6582 20.8695 16.8908 19.4959H12.1092C12.3594 20.9048 12.6968 22.1679 13.1212 23.2854C13.5454 24.4028 14.005 25.1913 14.5 25.6508ZM12.2864 25.4791C11.8514 24.7922 11.4587 23.9277 11.1082 22.8853C10.7577 21.8427 10.4891 20.7129 10.3025 19.4959H4.78434C5.50984 21.0826 6.53434 22.4013 7.85783 23.4519C9.18132 24.5023 10.6575 25.178 12.2864 25.4791ZM16.7136 25.4791C18.3425 25.178 19.8187 24.5023 21.1422 23.4519C22.4657 22.4013 23.4902 21.0826 24.2157 19.4959H18.6975C18.4667 20.7216 18.1761 21.8558 17.8256 22.8984C17.4753 23.9409 17.1046 24.8012 16.7136 25.4791ZM4.16071 17.7102H10.1257C10.0623 17.2225 10.0225 16.7448 10.0065 16.2771C9.99073 15.8096 9.98283 15.361 9.98283 14.9313C9.98283 14.5016 9.99073 14.0644 10.0065 13.6198C10.0225 13.175 10.0623 12.7317 10.1257 12.2898H4.16071C4.02862 12.7335 3.93315 13.1843 3.87431 13.6422C3.81525 14.1 3.78571 14.5527 3.78571 15C3.78571 15.4473 3.81525 15.9 3.87431 16.3578C3.93315 16.8157 4.02862 17.2665 4.16071 17.7102ZM11.9454 17.7102H17.0546C17.1178 17.1996 17.1574 16.7264 17.1734 16.2905C17.1892 15.8546 17.1971 15.4245 17.1971 15C17.1971 14.5755 17.1892 14.1397 17.1734 13.6923C17.1574 13.245 17.1178 12.7775 17.0546 12.2898H11.9454C11.8822 12.7775 11.8426 13.245 11.8266 13.6923C11.8108 14.1397 11.8029 14.5755 11.8029 15C11.8029 15.4245 11.8108 15.8603 11.8266 16.3077C11.8426 16.755 11.8822 17.2225 11.9454 17.7102ZM18.8743 17.7102H24.8393C24.9714 17.2665 25.0668 16.8157 25.1257 16.3578C25.1848 15.9 25.2143 15.4473 25.2143 15C25.2143 14.5527 25.1848 14.0943 25.1257 13.625C25.0668 13.1557 24.9714 12.7106 24.8393 12.2898H18.8743C18.9377 12.7775 18.9774 13.2551 18.9935 13.7229C19.0093 14.1904 19.0172 14.639 19.0172 15.0687C19.0172 15.4984 19.0093 15.9356 18.9935 16.3801C18.9774 16.825 18.9377 17.2683 18.8743 17.7102ZM18.6975 10.5041H24.2157C23.4815 8.89973 22.4636 7.58104 21.1621 6.54808C19.8606 5.51534 18.3777 4.83517 16.7136 4.50756C17.1486 5.23832 17.5369 6.11847 17.8784 7.14801C18.2202 8.17731 18.4932 9.29602 18.6975 10.5041ZM12.1092 10.5041H16.8908C16.6406 9.10394 16.2967 7.83414 15.8592 6.69471C15.4215 5.55529 14.9684 4.77347 14.5 4.34924C14.0316 4.77347 13.5785 5.55529 13.1408 6.69471C12.7033 7.83414 12.3594 9.10394 12.1092 10.5041ZM4.78434 10.5041H10.3025C10.5068 9.29602 10.7798 8.17731 11.1216 7.14801C11.4631 6.11847 11.8514 5.23832 12.2864 4.50756C10.6133 4.83517 9.12832 5.51763 7.83139 6.55495C6.53423 7.59203 5.51854 8.90843 4.78434 10.5041Z" fill="#172D9D"/>
</svg>
