<svg xmlns="http://www.w3.org/2000/svg" xmlns:xlink="http://www.w3.org/1999/xlink" width="184.957" height="30" viewBox="0 0 184.957 30">
    <defs>
        <linearGradient id="linear-gradient" x1="-.023" y1=".32" x2=".819" y2="1.012" gradientUnits="objectBoundingBox">
            <stop offset=".006" stop-color="#ae0417"/>
            <stop offset=".088" stop-color="#be0b12"/>
            <stop offset=".182" stop-color="#ca100f"/>
            <stop offset=".281" stop-color="#ce120f"/>
            <stop offset="1" stop-color="#fcb400"/>
        </linearGradient>
        <linearGradient id="linear-gradient-2" x1="-42.077" y1="-1.61" x2="-37.794" y2="-1.61" gradientUnits="objectBoundingBox">
            <stop offset="0" stop-color="#c51611"/>
            <stop offset="1" stop-color="#fcb400"/>
        </linearGradient>
        <linearGradient id="linear-gradient-3" x1=".501" y1=".173" x2=".533" y2=".671" gradientUnits="objectBoundingBox">
            <stop offset=".006" stop-color="#d00010"/>
            <stop offset=".152" stop-color="#da000f"/>
            <stop offset="1" stop-color="#fcb400"/>
        </linearGradient>
        <linearGradient id="linear-gradient-4" x1="-5.587" y1=".5" x2="1.723" y2=".5" gradientUnits="objectBoundingBox">
            <stop offset="0" stop-color="#ce120f"/>
            <stop offset="1" stop-color="#fcb400"/>
        </linearGradient>
        <linearGradient id="linear-gradient-5" x1=".285" y1=".179" x2=".575" y2=".751" gradientUnits="objectBoundingBox">
            <stop offset=".006" stop-color="#bc0012"/>
            <stop offset=".135" stop-color="#ce120f"/>
            <stop offset="1" stop-color="#e89e00"/>
        </linearGradient>
        <linearGradient id="linear-gradient-6" x1="46.345" y1="79.239" x2="47.274" y2="79.239" gradientUnits="objectBoundingBox">
            <stop offset=".006" stop-color="#a50013"/>
            <stop offset=".281" stop-color="#ce120f"/>
            <stop offset="1" stop-color="#e89e00"/>
        </linearGradient>
        <linearGradient id="linear-gradient-7" x1=".421" y1=".84" x2=".764" y2=".024" gradientUnits="objectBoundingBox">
            <stop offset=".006" stop-color="#001b65"/>
            <stop offset=".335" stop-color="#011d67"/>
            <stop offset=".53" stop-color="#06256f"/>
            <stop offset=".69" stop-color="#0e347d"/>
            <stop offset=".831" stop-color="#194891"/>
            <stop offset=".959" stop-color="#2861aa"/>
            <stop offset="1" stop-color="#2e6cb4"/>
        </linearGradient>
        <linearGradient id="linear-gradient-8" x1="-25.915" y1="-3.515" x2="-23.972" y2="-3.515" gradientUnits="objectBoundingBox">
            <stop offset="0" stop-color="#3cb4ec"/>
            <stop offset=".5" stop-color="#008cd1"/>
            <stop offset="1" stop-color="#0076c0"/>
        </linearGradient>
        <linearGradient id="linear-gradient-9" y1=".5" x2="1" y2=".5" gradientUnits="objectBoundingBox">
            <stop offset="0" stop-color="#3cb4ec"/>
            <stop offset=".5" stop-color="#008cd1"/>
            <stop offset="1" stop-color="#004597"/>
        </linearGradient>
        <linearGradient id="linear-gradient-10" x1=".505" y1=".549" x2=".525" y2=".033" xlink:href="#linear-gradient-7"/>
        <linearGradient id="linear-gradient-11" x1="-25.887" y1="-9.572" x2="-23.008" y2="-9.572" xlink:href="#linear-gradient-8"/>
        <linearGradient id="linear-gradient-12" x1="-26.681" y1="-9.572" x2="-23.801" y2="-9.572" xlink:href="#linear-gradient-9"/>
        <linearGradient id="linear-gradient-13" x1=".402" y1=".547" x2=".008" y2=".209" xlink:href="#linear-gradient-7"/>
        <linearGradient id="linear-gradient-14" x1="23.056" y1="-6.321" x2="29.084" y2="-6.321" xlink:href="#linear-gradient-8"/>
        <linearGradient id="linear-gradient-15" x1="21.395" y1="-6.321" x2="27.424" y2="-6.321" xlink:href="#linear-gradient-9"/>
        <style>
            .cls-10{fill:#fff}.cls-17{fill:#1a1311}
        </style>
    </defs>
    <g id="그룹_24626" data-name="그룹 24626" transform="translate(-159.973 956.119)">
        <g id="그룹_24623" data-name="그룹 24623" transform="translate(159.973 -956.119)">
            <g id="그룹_24619" data-name="그룹 24619" transform="translate(15.442 13.669)">
                <path id="패스_37847" data-name="패스 37847" d="M463.022-697.525s-22.426 10.018-24.011-11.952a17.516 17.516 0 0 0 3.291 14.566c4.444 2.516 11.04 2.903 20.72-2.614z" transform="translate(-438.594 709.477)" style="fill:url(#linear-gradient)"/>
            </g>
            <path id="패스_37848" data-name="패스 37848" d="m435.352-761.612.018.009a17.73 17.73 0 0 1-2.077-18.462l-.026.021a17.727 17.727 0 0 0 2.085 18.432z" transform="translate(-416.553 789.822)" style="fill:url(#linear-gradient-2)"/>
            <path id="패스_37849" data-name="패스 37849" d="m176.687-848.338.026-.022q.131-.3.274-.605a26.028 26.028 0 0 1 1.933-3.4 21.389 21.389 0 0 1-3.119 3.418 21.248 21.248 0 0 1-5.2 3.47 10.842 10.842 0 0 1-8.87.505q-.916-.387-1.757-.841c6.012 3.578 10.318 2.287 10.318 2.287-.012 2.808 1.547 6.377 4.626 9.915a29.873 29.873 0 0 0 3.082 3.052c-7.551-10.762-3.44-16.013-1.313-17.779z" transform="translate(-159.973 858.116)" style="fill:url(#linear-gradient-3)"/>
            <path id="패스_37850" data-name="패스 37850" d="m409.556-764.885-.857-1.359c-3.187-6.948-.693-12.044.959-13.435-2.128 1.766-6.238 7.017 1.308 17.779q.377.323.761.633a18.669 18.669 0 0 1-2.171-3.618z" transform="translate(-392.943 789.459)" style="fill:url(#linear-gradient-4)"/>
            <path id="패스_37851" data-name="패스 37851" d="M409.556-764.885a17.787 17.787 0 0 1 .1-14.794c-2.128 1.766-6.238 7.017 1.308 17.779q.377.323.761.633a18.669 18.669 0 0 1-2.169-3.618z" transform="translate(-392.943 789.459)" style="fill:url(#linear-gradient-5)"/>
            <path id="패스_37852" data-name="패스 37852" d="M513.441-955.433a1.151 1.151 0 0 0-.1.056l-.049.03-.047.032a2.633 2.633 0 0 0-.179.136 3.228 3.228 0 0 0-.319.307 3.508 3.508 0 0 0-.278.345q-.064.091-.122.188l-.055.1a.975.975 0 0 0-.044.094l-.009-.009a.808.808 0 0 0-.521-.218c.01-.031.018-.062.025-.093l.023-.111q.02-.111.03-.222a3.533 3.533 0 0 0 .012-.442 3.187 3.187 0 0 0-.044-.44 2.452 2.452 0 0 0-.048-.219l-.016-.055-.017-.055a1.117 1.117 0 0 0-.042-.109h-.014a1.091 1.091 0 0 0-.033.112c0 .019-.009.037-.013.056l-.011.056a2.413 2.413 0 0 0-.03.222 3.2 3.2 0 0 0-.009.442 3.536 3.536 0 0 0 .047.44q.019.11.047.219c.01.036.02.073.032.109s.02.059.032.089a.821.821 0 0 0-.293.052.8.8 0 0 0-.25.15l-.037-.062a1.563 1.563 0 0 0-.063-.095q-.065-.093-.136-.178a3.519 3.519 0 0 0-.3-.321 3.184 3.184 0 0 0-.342-.28 2.432 2.432 0 0 0-.189-.121l-.05-.028-.051-.026a1.078 1.078 0 0 0-.107-.047l-.009.01a1.077 1.077 0 0 0 .056.1l.03.049.032.047c.043.062.088.121.136.178a3.2 3.2 0 0 0 .307.319 3.469 3.469 0 0 0 .345.278q.091.064.188.122c.033.019.065.037.1.055l.062.03a.812.812 0 0 0-.172.245.8.8 0 0 0-.069.285l-.047-.012a2.188 2.188 0 0 0-.111-.023q-.111-.02-.222-.03a3.527 3.527 0 0 0-.442-.012 3.171 3.171 0 0 0-.44.044 2.452 2.452 0 0 0-.219.048l-.055.015-.055.017a1.034 1.034 0 0 0-.109.042v.013a1.052 1.052 0 0 0 .112.033l.056.013.056.011c.074.013.148.023.222.03a3.225 3.225 0 0 0 .442.008 3.506 3.506 0 0 0 .44-.047q.11-.019.219-.047c.036-.01.073-.02.109-.032l.042-.014a.816.816 0 0 0 .065.3.816.816 0 0 0 .155.237l-.034.02c-.033.02-.064.041-.095.063q-.093.064-.178.136a3.5 3.5 0 0 0-.321.3 3.155 3.155 0 0 0-.28.342 2.432 2.432 0 0 0-.121.189l-.028.05c-.009.017-.018.033-.026.051a1.122 1.122 0 0 0-.047.106l.01.009a1.05 1.05 0 0 0 .1-.056l.049-.03.047-.032c.062-.043.121-.088.178-.136a3.211 3.211 0 0 0 .319-.307 3.48 3.48 0 0 0 .278-.345q.064-.091.121-.188c.019-.033.038-.065.055-.1l.016-.033a.817.817 0 0 0 .281.169.821.821 0 0 0 .262.045l-.011.044a2.188 2.188 0 0 0-.023.111q-.02.112-.03.222a3.515 3.515 0 0 0-.012.442 3.2 3.2 0 0 0 .044.44c.013.073.028.146.048.219l.016.055.017.055a1.076 1.076 0 0 0 .042.109h.013a1.086 1.086 0 0 0 .033-.112c0-.018.009-.037.013-.056l.011-.056c.014-.074.023-.148.03-.222a3.2 3.2 0 0 0 .008-.442 3.537 3.537 0 0 0-.047-.44q-.019-.11-.047-.219l-.031-.109-.014-.042h.01a.8.8 0 0 0 .316-.091.8.8 0 0 0 .2-.153l.035.059c.012.019.041.064.063.095q.065.093.136.178a3.5 3.5 0 0 0 .3.321 3.2 3.2 0 0 0 .342.28c.061.043.123.083.189.121l.049.028.051.026a1.106 1.106 0 0 0 .106.047l.009-.01a1.023 1.023 0 0 0-.056-.1l-.03-.049-.031-.047a2.388 2.388 0 0 0-.136-.178 3.2 3.2 0 0 0-.307-.319 3.5 3.5 0 0 0-.345-.278q-.091-.064-.188-.121a1.87 1.87 0 0 0-.1-.055l-.062-.03.016-.018a.8.8 0 0 0 .146-.276.814.814 0 0 0 .035-.249 1.527 1.527 0 0 0 .202.047q.111.019.222.03a3.506 3.506 0 0 0 .443.012 3.167 3.167 0 0 0 .44-.044c.073-.013.146-.028.219-.048l.055-.016.054-.017a1.075 1.075 0 0 0 .109-.042v-.014a1.1 1.1 0 0 0-.112-.033l-.056-.013-.056-.011a2.413 2.413 0 0 0-.222-.03 3.169 3.169 0 0 0-.442-.009 3.506 3.506 0 0 0-.44.047q-.11.019-.219.047c-.036.01-.073.02-.109.032s-.059.02-.089.032v-.025a.81.81 0 0 0-.229-.5 2.224 2.224 0 0 0 .186-.115q.092-.065.178-.136a3.5 3.5 0 0 0 .321-.3 3.211 3.211 0 0 0 .28-.342c.043-.061.083-.123.121-.189l.028-.05.026-.051a1.067 1.067 0 0 0 .047-.107zm-1.041 1.523a.693.693 0 0 1 .054.282.682.682 0 0 1-.063.275.689.689 0 0 1-.163.221.678.678 0 0 1-.228.137.7.7 0 0 1-.255.041.689.689 0 0 1-.456-.187.689.689 0 0 1-.216-.443.7.7 0 0 1 .025-.257.681.681 0 0 1 .122-.236.69.69 0 0 1 .21-.177.688.688 0 0 1 .27-.081.693.693 0 0 1 .285.036.7.7 0 0 1 .248.15l.012.011.01.009a.7.7 0 0 1 .145.219z" transform="translate(-489.821 956.119)" style="fill:url(#linear-gradient-6)"/>
            <g id="그룹_24620" data-name="그룹 24620" transform="translate(20.785 15.806)">
                <path id="패스_37853" data-name="패스 37853" d="M552.432-669.722a2.448 2.448 0 0 0-1.883-1.2 4.5 4.5 0 0 0-3.249 2.059q-.157.213-.31.426c-.475 3.644-4.112 8.018-11.709 6.791a.6.6 0 0 1-.268-.031c15.268 6.94 20.001-4.258 17.419-8.045z" transform="translate(-535.012 670.921)" style="fill:url(#linear-gradient-7)"/>
                <path id="패스_37854" data-name="패스 37854" d="M551.564-626.084a15.5 15.5 0 0 1-3.586 4.057A16.325 16.325 0 0 1 543-620c-.593.166-1.192.3-1.8.412a10.251 10.251 0 0 1-1.347.3c7.599 1.222 11.236-3.152 11.711-6.796z" transform="translate(-539.587 628.569)" style="fill:url(#linear-gradient-8);mix-blend-mode:multiply;isolation:isolate"/>
                <path id="패스_37855" data-name="패스 37855" d="M551.564-626.084a15.5 15.5 0 0 1-3.586 4.057A16.325 16.325 0 0 1 543-620c-.593.166-1.192.3-1.8.412a10.251 10.251 0 0 1-1.347.3c7.599 1.222 11.236-3.152 11.711-6.796z" transform="translate(-539.587 628.569)" style="fill:url(#linear-gradient-9);mix-blend-mode:multiply;isolation:isolate"/>
            </g>
            <path id="패스_37856" data-name="패스 37856" class="cls-10" d="M552.8-573.581c.128.143.869.061 1.094.07.416.016.836.021 1.267 0a11.85 11.85 0 0 0 4.085-.86c1.484-.63 2.756-2.028 4.16-2.8a3.463 3.463 0 0 1 2.557-.444 1.46 1.46 0 0 1 .86 1.307c-.066 2.948-6.382 6.234-14.023 2.727z" transform="translate(-531.027 598.678)"/>
            <g id="그룹_24621" data-name="그룹 24621" transform="translate(20.522 14.291)">
                <path id="패스_37857" data-name="패스 37857" d="M538.449-697.97a1.657 1.657 0 0 0-1.5-.168 3.043 3.043 0 0 0-1.361 2.219c-.022.117-.042.235-.062.351.8 2.357-.11 6.1-5.093 7.617a.408.408 0 0 1-.173.061c11.347-.331 10.887-8.548 8.189-10.08z" transform="translate(-530.259 698.253)" style="fill:url(#linear-gradient-10)"/>
                <path id="패스_37858" data-name="패스 37858" d="M538.466-649.777a10.5 10.5 0 0 1-.971 3.535 11.049 11.049 0 0 1-2.423 2.714c-.311.278-.636.536-.97.786a6.929 6.929 0 0 1-.73.582c4.984-1.518 5.891-5.26 5.094-7.617z" transform="translate(-533.2 652.464)" style="fill:url(#linear-gradient-11);mix-blend-mode:multiply;isolation:isolate"/>
                <path id="패스_37859" data-name="패스 37859" d="M538.466-649.777a10.5 10.5 0 0 1-.971 3.535 11.049 11.049 0 0 1-2.423 2.714c-.311.278-.636.536-.97.786a6.929 6.929 0 0 1-.73.582c4.984-1.518 5.891-5.26 5.094-7.617z" transform="translate(-533.2 652.464)" style="fill:url(#linear-gradient-12);mix-blend-mode:multiply;isolation:isolate"/>
            </g>
            <path id="패스_37860" data-name="패스 37860" class="cls-10" d="M541.317-624.824c.12.049.546-.221.686-.283.258-.114.514-.236.77-.377a8.023 8.023 0 0 0 2.226-1.74c.714-.825 1.071-2.054 1.694-2.942a2.344 2.344 0 0 1 1.422-1.032.988.988 0 0 1 .912.538c.84 1.811-2.288 5.627-7.71 5.836z" transform="translate(-520.182 649.214)"/>
            <g id="그룹_24622" data-name="그룹 24622" transform="translate(20.538 15.677)">
                <path id="패스_37861" data-name="패스 37861" d="M532.271-673.248a1.1 1.1 0 0 0-.938.365 2.026 2.026 0 0 0-.117 1.729q.035.114.072.226c1.2 1.144 1.819 3.631-.651 6.065a.273.273 0 0 1-.083.089c6.591-3.699 3.782-8.403 1.717-8.474z" transform="translate(-530.555 673.249)" style="fill:url(#linear-gradient-13)"/>
                <path id="패스_37862" data-name="패스 37862" d="M532.7-631.353a6.992 6.992 0 0 1 .519 2.384 7.356 7.356 0 0 1-.591 2.349c-.1.26-.21.512-.329.763a4.64 4.64 0 0 1-.251.569c2.474-2.434 1.852-4.921.652-6.065z" transform="translate(-531.969 633.675)" style="fill:url(#linear-gradient-14);mix-blend-mode:multiply;isolation:isolate"/>
                <path id="패스_37863" data-name="패스 37863" d="M532.7-631.353a6.992 6.992 0 0 1 .519 2.384 7.356 7.356 0 0 1-.591 2.349c-.1.26-.21.512-.329.763a4.64 4.64 0 0 1-.251.569c2.474-2.434 1.852-4.921.652-6.065z" transform="translate(-531.969 633.675)" style="fill:url(#linear-gradient-15);mix-blend-mode:multiply;isolation:isolate"/>
            </g>
            <path id="패스_37864" data-name="패스 37864" class="cls-10" d="M535.595-627.883c.086-.008.254-.3.317-.379.117-.147.23-.3.337-.46a5.343 5.343 0 0 0 .776-1.714c.166-.707 0-1.542.09-2.258a1.562 1.562 0 0 1 .52-1.048.658.658 0 0 1 .7.036c1.059.806.281 4.031-2.74 5.823z" transform="translate(-514.777 651.69)"/>
            <path id="패스_37865" data-name="패스 37865" class="cls-10" d="M395.653-745.71s-.451.529-1.057 1.145-.778-.328 1.057-1.145z" transform="translate(-381.198 757.371)"/>
        </g>
        <g id="그룹_24624" data-name="그룹 24624" transform="translate(204.116 -953.84)">
            <path id="패스_37866" data-name="패스 37866" class="cls-17" d="M959-733.366v11.209h-1.521v-5.6h-.913v5.1h-1.5v-3.25l-.9 1.2a4.453 4.453 0 0 1-2.045-2.556 4.809 4.809 0 0 1-2.069 2.97l-.962-1.217c1.667-.974 2.2-2.958 2.2-5.112v-.3h-1.838v-1.3h5.075v1.3h-1.679v.3c0 1.959.56 3.821 2.215 4.686v-7.254h1.5v4.114h.913v-4.3z" transform="translate(-949.09 733.366)"/>
            <path id="패스_37867" data-name="패스 37867" class="cls-17" d="M1194.6-727.205a22.626 22.626 0 0 1-5.136.365h-.937v-5.392h5.014v1.278h-3.42v2.824a20.314 20.314 0 0 0 4.321-.341zm-3.3 3.822h6.025v1.278h-7.631v-3.761h1.606zm7.108-6.682v1.314h-1.485v3.736h-1.607v-8.106h1.607v3.055z" transform="translate(-1175.658 733.12)"/>
            <path id="패스_37868" data-name="패스 37868" class="cls-17" d="M1425.029-733.12v6.146h-1.607v-2.3h-2v1.972h-5.294v-5.246h1.594v1.412h2.13v-1.412h1.57v1.984h2v-2.556zm-1.594 6.621h1.594v4.442h-7.429v-4.443h1.582v1h4.248zm-3.578-3.408h-2.13v1.327h2.13zm3.578 5.635h-4.248v.949h4.248z" transform="translate(-1416.132 747.498)"/>
            <path id="패스_37869" data-name="패스 37869" class="cls-17" d="M1639.406-726.484a2.893 2.893 0 0 1-3.055-2.836 2.888 2.888 0 0 1 3.055-2.848 2.877 2.877 0 0 1 3.043 2.848 2.883 2.883 0 0 1-3.043 2.836zm0-1.387a1.386 1.386 0 0 0 1.472-1.448 1.382 1.382 0 0 0-1.472-1.46 1.4 1.4 0 0 0-1.485 1.46 1.4 1.4 0 0 0 1.485 1.447zm6.377 4.722v1.278h-7.741v-3.749h1.607v2.471zm-.28-1.68h-1.619v-8.045h1.619z" transform="translate(-1623.486 747.252)"/>
        </g>
        <g id="그룹_24625" data-name="그룹 24625" transform="translate(231.281 -948.378)">
            <path id="패스_37870" data-name="패스 37870" class="cls-17" d="M1940.887-715.5v1.591h-13.006v-1.591h5.474v-.733c-2.417-.156-3.774-.827-3.774-2.027 0-1.357 1.731-2.043 4.8-2.043 3.088 0 4.819.686 4.819 2.043 0 1.2-1.357 1.871-3.789 2.027v.733zm-.686-5.193h-11.68v-1.544h4.834v-1.154h2.058v1.154h4.787zm-.857 9.575c0 1.466-1.825 2.214-4.99 2.214-3.15 0-4.975-.749-4.975-2.214s1.825-2.23 4.975-2.23c3.165.001 4.99.765 4.99 2.231zm-2.105 0c0-.53-.889-.748-2.885-.748s-2.885.218-2.885.748c0 .515.889.749 2.885.749s2.885-.231 2.885-.748zm-2.854-6.472c1.793 0 2.6-.2 2.6-.67s-.811-.655-2.6-.655c-1.778 0-2.6.187-2.6.655s.822.671 2.6.671z" transform="translate(-1927.882 723.39)"/>
            <path id="패스_37871" data-name="패스 37871" class="cls-17" d="M2167.971-701h-5.5v4.819h-2.058V-701H2155v-1.637h12.974zm-12.366-4.07c2.932-.359 4.46-1.762 4.663-3.134h-4.133v-1.637h10.651v1.637h-4.07c.2 1.372 1.716 2.776 4.631 3.134l-.733 1.606c-2.511-.343-4.273-1.419-5.13-2.885-.858 1.466-2.62 2.542-5.131 2.885z" transform="translate(-2140.619 710.7)"/>
            <path id="패스_37872" data-name="패스 37872" class="cls-17" d="M2394.135-705.326v1.622h-5.286v2.448h-2.059v-2.444h-5.661v-1.622zm-9.435 5.38h8v1.637h-10.058v-4.164h2.058zm7.781-6.518h-9.746v-5.349h9.746zm-2.027-3.743h-5.692v2.121h5.692z" transform="translate(-2352.436 712.546)"/>
            <path id="패스_37873" data-name="패스 37873" class="cls-17" d="M2611.071-711.221c1.107-.062 2.214-.14 3.243-.3l.156 1.482a45.829 45.829 0 0 1-8.686.593l-.25-1.669c1.03 0 2.214 0 3.477-.031v-1.216a2.73 2.73 0 0 1-2.479-2.589c0-1.622 1.45-2.713 3.509-2.713s3.509 1.092 3.509 2.713a2.73 2.73 0 0 1-2.479 2.589zm3.181-7h-8.452v-1.622h3.212v-1.512h2.059v1.512h3.181zm-4.21 4.429c.936 0 1.56-.405 1.56-1.154s-.624-1.154-1.56-1.154-1.559.405-1.559 1.154.623 1.152 1.559 1.152zm8.858-.078h-1.793v6.815h-2.059v-14.365h2.059v5.848h1.793z" transform="translate(-2562.636 721.545)"/>
            <path id="패스_37874" data-name="패스 37874" class="cls-17" d="M2840.368-713.448a52.126 52.126 0 0 1-8.764.624l-.187-1.637c.8 0 1.684 0 2.62-.016v-2.791h2.011v2.713a45.314 45.314 0 0 0 4.2-.359zm-3.087-2.277a20.425 20.425 0 0 0 .312-3.244h-5.349v-1.637h7.376v.889a22.294 22.294 0 0 1-.327 4.226zm-1.716 6.55h7.969v1.637h-10.027v-4.32h2.058zm9.232-8.109v1.7h-1.715v4.678h-2.059v-10.76h2.059v4.382z" transform="translate(-2774.219 721.775)"/>
            <path id="패스_37875" data-name="패스 37875" class="cls-17" d="M3066.994-713.81a55.92 55.92 0 0 1-8.749.546l-.2-1.637c.811 0 1.7 0 2.62-.016v-2.511h2.012v2.464a59.275 59.275 0 0 0 4.195-.312zm-3.073-2.277a17.411 17.411 0 0 0 .3-2.916h-5.333v-1.638h7.36v.936a17.259 17.259 0 0 1-.327 3.774zm5.91 6.3c0 1.7-1.917 2.713-4.959 2.713-3.072 0-4.99-1.014-4.99-2.713s1.919-2.713 4.99-2.713c3.042 0 4.959 1.014 4.959 2.714zm-2.1 0c0-.764-1.014-1.123-2.854-1.123-1.871 0-2.885.359-2.885 1.123s1.014 1.107 2.885 1.107c1.835.001 2.849-.343 2.849-1.106zm3.712-8.109v1.7h-1.731v3.54h-2.059v-8.764h2.059v3.524z" transform="translate(-2986.497 721.545)"/>
            <path id="패스_37876" data-name="패스 37876" class="cls-17" d="M3296.373-721.666v14.366h-1.949v-7.173h-1.17v6.534h-1.918v-4.164l-1.154 1.544a5.706 5.706 0 0 1-2.62-3.275 6.162 6.162 0 0 1-2.651 3.805l-1.232-1.559c2.136-1.248 2.823-3.79 2.823-6.55v-.39h-2.355v-1.672h6.5v1.669h-2.147v.39c0 2.511.717 4.9 2.838 6v-9.294h1.918v5.271h1.17v-5.5z" transform="translate(-3197.85 721.775)"/>
            <path id="패스_37877" data-name="패스 37877" class="cls-17" d="M3530.893-713.841a29 29 0 0 1-6.58.468h-1.2v-6.908h6.425v1.637h-4.382v3.618a26.029 26.029 0 0 0 5.536-.437zm-4.226 4.9h7.719v1.637h-9.777v-4.819h2.059zm9.107-8.561v1.684h-1.9v4.787h-2.058v-10.389h2.058v3.914z" transform="translate(-3422.125 721.545)"/>
        </g>
    </g>
</svg>
