<svg xmlns="http://www.w3.org/2000/svg" xmlns:xlink="http://www.w3.org/1999/xlink" width="217.878" height="35.34" viewBox="0 0 217.878 35.34">
    <defs>
        <linearGradient id="linear-gradient" x1="-.023" y1=".32" x2=".819" y2="1.012" gradientUnits="objectBoundingBox">
            <stop offset=".006" stop-color="#ae0417"/>
            <stop offset=".088" stop-color="#be0b12"/>
            <stop offset=".182" stop-color="#ca100f"/>
            <stop offset=".281" stop-color="#ce120f"/>
            <stop offset="1" stop-color="#fcb400"/>
        </linearGradient>
        <linearGradient id="linear-gradient-2" x1="-42.077" y1="-1.61" x2="-37.794" y2="-1.61" gradientUnits="objectBoundingBox">
            <stop offset="0" stop-color="#c51611"/>
            <stop offset="1" stop-color="#fcb400"/>
        </linearGradient>
        <linearGradient id="linear-gradient-3" x1=".501" y1=".173" x2=".533" y2=".671" gradientUnits="objectBoundingBox">
            <stop offset=".006" stop-color="#d00010"/>
            <stop offset=".152" stop-color="#da000f"/>
            <stop offset="1" stop-color="#fcb400"/>
        </linearGradient>
        <linearGradient id="linear-gradient-4" x1="-5.587" y1=".5" x2="1.723" y2=".5" gradientUnits="objectBoundingBox">
            <stop offset="0" stop-color="#ce120f"/>
            <stop offset="1" stop-color="#fcb400"/>
        </linearGradient>
        <linearGradient id="linear-gradient-5" x1=".285" y1=".179" x2=".575" y2=".751" gradientUnits="objectBoundingBox">
            <stop offset=".006" stop-color="#bc0012"/>
            <stop offset=".135" stop-color="#ce120f"/>
            <stop offset="1" stop-color="#e89e00"/>
        </linearGradient>
        <linearGradient id="linear-gradient-6" x1="46.345" y1="79.239" x2="47.274" y2="79.239" gradientUnits="objectBoundingBox">
            <stop offset=".006" stop-color="#a50013"/>
            <stop offset=".281" stop-color="#ce120f"/>
            <stop offset="1" stop-color="#e89e00"/>
        </linearGradient>
        <linearGradient id="linear-gradient-7" x1=".421" y1=".84" x2=".764" y2=".024" gradientUnits="objectBoundingBox">
            <stop offset=".006" stop-color="#001b65"/>
            <stop offset=".335" stop-color="#011d67"/>
            <stop offset=".53" stop-color="#06256f"/>
            <stop offset=".69" stop-color="#0e347d"/>
            <stop offset=".831" stop-color="#194891"/>
            <stop offset=".959" stop-color="#2861aa"/>
            <stop offset="1" stop-color="#2e6cb4"/>
        </linearGradient>
        <linearGradient id="linear-gradient-8" x1="-25.915" y1="-3.515" x2="-23.972" y2="-3.515" gradientUnits="objectBoundingBox">
            <stop offset="0" stop-color="#3cb4ec"/>
            <stop offset=".5" stop-color="#008cd1"/>
            <stop offset="1" stop-color="#0076c0"/>
        </linearGradient>
        <linearGradient id="linear-gradient-9" y1=".5" x2="1" y2=".5" gradientUnits="objectBoundingBox">
            <stop offset="0" stop-color="#3cb4ec"/>
            <stop offset=".5" stop-color="#008cd1"/>
            <stop offset="1" stop-color="#004597"/>
        </linearGradient>
        <linearGradient id="linear-gradient-10" x1=".505" y1=".549" x2=".525" y2=".033" xlink:href="#linear-gradient-7"/>
        <linearGradient id="linear-gradient-11" x1="-25.887" y1="-9.572" x2="-23.008" y2="-9.572" xlink:href="#linear-gradient-8"/>
        <linearGradient id="linear-gradient-12" x1="-26.681" y1="-9.572" x2="-23.801" y2="-9.572" xlink:href="#linear-gradient-9"/>
        <linearGradient id="linear-gradient-13" x1=".402" y1=".547" x2=".008" y2=".209" xlink:href="#linear-gradient-7"/>
        <linearGradient id="linear-gradient-14" x1="23.056" y1="-6.321" x2="29.084" y2="-6.321" xlink:href="#linear-gradient-8"/>
        <linearGradient id="linear-gradient-15" x1="21.395" y1="-6.321" x2="27.424" y2="-6.321" xlink:href="#linear-gradient-9"/>
        <style>
            .cls-10{fill:#fff}
        </style>
    </defs>
    <g id="그룹_24626" data-name="그룹 24626" transform="translate(-159.973 956.119)">
        <g id="그룹_24623" data-name="그룹 24623" transform="translate(159.973 -956.119)">
            <g id="그룹_24619" data-name="그룹 24619" transform="translate(18.19 16.103)">
                <path id="패스_37847" data-name="패스 37847" d="M467.37-695.4s-26.417 11.8-28.284-14.08a20.635 20.635 0 0 0 3.876 17.159c5.238 2.967 13.006 3.421 24.408-3.079z" transform="translate(-438.594 709.477)" style="fill:url(#linear-gradient)"/>
            </g>
            <path id="패스_37848" data-name="패스 37848" d="m436.019-758.328.021.011a20.886 20.886 0 0 1-2.447-21.748l-.03.025a20.883 20.883 0 0 0 2.456 21.712z" transform="translate(-413.873 791.559)" style="fill:url(#linear-gradient-2)"/>
            <path id="패스_37849" data-name="패스 37849" d="m179.662-847.621.03-.025q.155-.355.323-.713a30.663 30.663 0 0 1 2.277-4.007 25.2 25.2 0 0 1-3.675 4.026 25.029 25.029 0 0 1-6.127 4.088c-3.295 1.5-6.954 2.074-10.449.6q-1.079-.456-2.069-.99c7.082 4.214 12.154 2.694 12.154 2.694-.015 3.308 1.823 7.512 5.449 11.68a35.193 35.193 0 0 0 3.624 3.591c-8.885-12.678-4.043-18.863-1.537-20.944z" transform="translate(-159.973 859.14)" style="fill:url(#linear-gradient-3)"/>
            <path id="패스_37850" data-name="패스 37850" d="m410.08-762.252-1.01-1.6c-3.754-8.185-.816-14.188 1.129-15.826-2.506 2.08-7.348 8.266 1.541 20.943q.444.381.9.745a21.989 21.989 0 0 1-2.56-4.262z" transform="translate(-390.51 791.199)" style="fill:url(#linear-gradient-4)"/>
            <path id="패스_37851" data-name="패스 37851" d="M410.08-762.252a20.953 20.953 0 0 1 .12-17.428c-2.506 2.08-7.348 8.266 1.541 20.943q.444.381.9.745a21.989 21.989 0 0 1-2.561-4.26z" transform="translate(-390.51 791.199)" style="fill:url(#linear-gradient-5)"/>
            <path id="패스_37852" data-name="패스 37852" d="M514.2-955.311a1.32 1.32 0 0 0-.12.066l-.057.036-.056.037c-.073.05-.143.1-.21.16a3.766 3.766 0 0 0-.375.361 4.1 4.1 0 0 0-.327.406q-.076.107-.143.222c-.022.038-.044.077-.065.117s-.036.073-.052.111l-.011-.01a.952.952 0 0 0-.613-.257 2.49 2.49 0 0 0 .057-.241q.023-.131.035-.262a4.156 4.156 0 0 0 .014-.521 3.763 3.763 0 0 0-.052-.519 2.973 2.973 0 0 0-.056-.258l-.018-.064-.02-.064a1.3 1.3 0 0 0-.049-.128h-.016a1.3 1.3 0 0 0-.039.132l-.015.066-.013.066a2.939 2.939 0 0 0-.035.262 3.779 3.779 0 0 0-.01.521 4.169 4.169 0 0 0 .056.518q.022.129.056.258a2.082 2.082 0 0 0 .074.229.966.966 0 0 0-.345.061.943.943 0 0 0-.294.177c-.014-.025-.028-.05-.043-.073s-.048-.075-.074-.112q-.076-.109-.16-.21a4.133 4.133 0 0 0-.359-.378 3.758 3.758 0 0 0-.4-.33c-.072-.05-.145-.1-.222-.143l-.058-.032-.06-.031a1.261 1.261 0 0 0-.125-.056l-.011.012a1.262 1.262 0 0 0 .066.12c.011.02.024.038.036.057l.037.056c.05.073.1.143.16.21a3.771 3.771 0 0 0 .361.375 4.106 4.106 0 0 0 .406.327q.107.076.222.143c.038.022.077.044.117.065l.073.035a.955.955 0 0 0-.2.289.945.945 0 0 0-.081.336l-.055-.014a3.045 3.045 0 0 0-.131-.027q-.131-.023-.262-.035a4.156 4.156 0 0 0-.521-.014 3.755 3.755 0 0 0-.519.052 2.973 2.973 0 0 0-.258.056l-.064.018-.064.02a1.264 1.264 0 0 0-.128.049v.016a1.222 1.222 0 0 0 .132.039l.066.015.066.013c.087.016.175.027.262.035a3.772 3.772 0 0 0 .521.01 4.136 4.136 0 0 0 .518-.055q.129-.023.258-.056c.043-.011.086-.024.129-.037l.05-.017a.96.96 0 0 0 .076.359.961.961 0 0 0 .182.279l-.04.024-.112.074q-.109.076-.21.16a4.12 4.12 0 0 0-.378.359 3.722 3.722 0 0 0-.33.4c-.05.072-.1.145-.143.222l-.033.058-.031.06a1.319 1.319 0 0 0-.056.125l.012.011a1.233 1.233 0 0 0 .121-.066l.057-.036.056-.037c.073-.05.143-.1.21-.16a3.777 3.777 0 0 0 .375-.361 4.1 4.1 0 0 0 .327-.406q.076-.107.143-.222c.022-.038.044-.077.065-.117l.019-.039a.965.965 0 0 0 .331.2.962.962 0 0 0 .309.053c0 .018-.009.035-.013.052l-.027.131q-.023.131-.035.262a4.131 4.131 0 0 0-.014.521 3.77 3.77 0 0 0 .052.519c.015.086.033.172.056.258l.018.064.02.064a1.245 1.245 0 0 0 .049.128h.016a1.266 1.266 0 0 0 .039-.132l.015-.066.013-.066c.016-.087.027-.175.036-.262a3.763 3.763 0 0 0 .01-.521 4.158 4.158 0 0 0-.056-.518q-.022-.129-.056-.258a2.082 2.082 0 0 0-.037-.129l-.017-.05h.011a.949.949 0 0 0 .372-.107.952.952 0 0 0 .238-.18c.013.024.027.047.041.069l.074.112q.076.109.16.21a4.11 4.11 0 0 0 .359.378 3.767 3.767 0 0 0 .4.33c.072.05.145.1.222.143l.058.033.06.031a1.29 1.29 0 0 0 .125.056l.011-.012a1.224 1.224 0 0 0-.066-.121c-.011-.02-.024-.038-.036-.057l-.037-.056c-.05-.073-.1-.143-.16-.21a3.766 3.766 0 0 0-.361-.375 4.14 4.14 0 0 0-.406-.327q-.107-.075-.222-.143a3.236 3.236 0 0 0-.117-.065l-.073-.035.018-.021a.944.944 0 0 0 .173-.325.962.962 0 0 0 .041-.293c.036.011.072.02.107.029s.088.019.131.027q.131.023.262.035a4.135 4.135 0 0 0 .521.014 3.752 3.752 0 0 0 .519-.052c.086-.015.172-.033.258-.056l.064-.018.064-.02a1.255 1.255 0 0 0 .128-.049v-.016a1.28 1.28 0 0 0-.132-.039l-.066-.015-.066-.013a2.939 2.939 0 0 0-.262-.035 3.753 3.753 0 0 0-.521-.01 4.135 4.135 0 0 0-.518.056q-.129.022-.258.056a2.082 2.082 0 0 0-.229.074v-.03a.954.954 0 0 0-.27-.591 2.687 2.687 0 0 0 .219-.135q.109-.076.21-.16a4.141 4.141 0 0 0 .378-.359 3.768 3.768 0 0 0 .33-.4c.05-.072.1-.145.143-.222l.032-.058.031-.06a1.3 1.3 0 0 0 .056-.125zm-1.228 1.794a.82.82 0 0 1 .064.333.807.807 0 0 1-.074.324.815.815 0 0 1-.192.26.8.8 0 0 1-.269.161.825.825 0 0 1-.3.049.813.813 0 0 1-.537-.22.813.813 0 0 1-.254-.522.824.824 0 0 1 .029-.3.8.8 0 0 1 .144-.278.816.816 0 0 1 .247-.209.812.812 0 0 1 .319-.1.818.818 0 0 1 .336.042.823.823 0 0 1 .292.177l.014.013.012.011a.825.825 0 0 1 .169.259z" transform="translate(-486.377 956.119)" style="fill:url(#linear-gradient-6)"/>
            <g id="그룹_24620" data-name="그룹 24620" transform="translate(24.485 18.62)">
                <path id="패스_37853" data-name="패스 37853" d="M555.533-669.508a2.884 2.884 0 0 0-2.219-1.413c-1.541-.023-2.982 1.282-3.827 2.425q-.185.251-.366.5c-.559 4.293-4.844 9.445-13.793 8a.711.711 0 0 1-.316-.037c17.988 8.176 23.563-5.015 20.521-9.475z" transform="translate(-535.012 670.922)" style="fill:url(#linear-gradient-7)"/>
                <path id="패스_37854" data-name="패스 37854" d="M553.648-626.084a18.268 18.268 0 0 1-4.224 4.779 19.229 19.229 0 0 1-5.865 2.385c-.7.2-1.4.35-2.117.485a12.1 12.1 0 0 1-1.586.351c8.944 1.445 13.233-3.707 13.792-8z" transform="translate(-539.539 629.011)" style="fill:url(#linear-gradient-8);mix-blend-mode:multiply;isolation:isolate"/>
                <path id="패스_37855" data-name="패스 37855" d="M553.648-626.084a18.268 18.268 0 0 1-4.224 4.779 19.229 19.229 0 0 1-5.865 2.385c-.7.2-1.4.35-2.117.485a12.1 12.1 0 0 1-1.586.351c8.944 1.445 13.233-3.707 13.792-8z" transform="translate(-539.539 629.011)" style="fill:url(#linear-gradient-9);mix-blend-mode:multiply;isolation:isolate"/>
            </g>
            <path id="패스_37856" data-name="패스 37856" class="cls-10" d="M552.8-572.847c.15.168 1.023.072 1.289.083.49.019.984.025 1.492 0a13.957 13.957 0 0 0 4.812-1.013c1.748-.742 3.246-2.389 4.9-3.3a4.079 4.079 0 0 1 3.012-.523 1.72 1.72 0 0 1 1.013 1.539c-.076 3.475-7.518 7.345-16.518 3.214z" transform="translate(-527.152 602.411)"/>
            <g id="그룹_24621" data-name="그룹 24621" transform="translate(24.175 16.835)">
                <path id="패스_37857" data-name="패스 37857" d="M539.907-697.92a1.952 1.952 0 0 0-1.77-.2 3.585 3.585 0 0 0-1.6 2.615q-.038.208-.073.414c.939 2.776-.13 7.184-6 8.973a.482.482 0 0 1-.2.072c13.363-.39 12.822-10.069 9.643-11.874z" transform="translate(-530.259 698.253)" style="fill:url(#linear-gradient-10)"/>
                <path id="패스_37858" data-name="패스 37858" d="M539.372-649.777a12.367 12.367 0 0 1-1.143 4.164 13.015 13.015 0 0 1-2.854 3.2 17.22 17.22 0 0 1-1.142.926 8.186 8.186 0 0 1-.86.686c5.87-1.792 6.939-6.199 5.999-8.976z" transform="translate(-533.17 652.942)" style="fill:url(#linear-gradient-11);mix-blend-mode:multiply;isolation:isolate"/>
                <path id="패스_37859" data-name="패스 37859" d="M539.372-649.777a12.367 12.367 0 0 1-1.143 4.164 13.015 13.015 0 0 1-2.854 3.2 17.22 17.22 0 0 1-1.142.926 8.186 8.186 0 0 1-.86.686c5.87-1.792 6.939-6.199 5.999-8.976z" transform="translate(-533.17 652.942)" style="fill:url(#linear-gradient-12);mix-blend-mode:multiply;isolation:isolate"/>
            </g>
            <path id="패스_37860" data-name="패스 37860" class="cls-10" d="M541.317-623.688c.141.057.643-.261.808-.334.3-.135.606-.278.907-.444a9.45 9.45 0 0 0 2.623-2.05c.841-.972 1.261-2.42 2-3.465a2.762 2.762 0 0 1 1.675-1.216 1.164 1.164 0 0 1 1.074.634c.985 2.133-2.704 6.629-9.087 6.875z" transform="translate(-516.42 652.419)"/>
            <g id="그룹_24622" data-name="그룹 24622" transform="translate(24.194 18.468)">
                <path id="패스_37861" data-name="패스 37861" d="M532.577-673.247a1.3 1.3 0 0 0-1.1.43 2.387 2.387 0 0 0-.138 2.037l.085.267c1.411 1.347 2.143 4.277-.767 7.145a.321.321 0 0 1-.1.1c7.761-4.356 4.452-9.897 2.02-9.979z" transform="translate(-530.555 673.249)" style="fill:url(#linear-gradient-13)"/>
                <path id="패스_37862" data-name="패스 37862" d="M532.819-631.353a8.235 8.235 0 0 1 .612 2.809 8.664 8.664 0 0 1-.7 2.767c-.115.306-.247.6-.388.9a5.446 5.446 0 0 1-.3.67c2.918-2.869 2.187-5.799.776-7.146z" transform="translate(-531.954 634.088)" style="fill:url(#linear-gradient-14);mix-blend-mode:multiply;isolation:isolate"/>
                <path id="패스_37863" data-name="패스 37863" d="M532.819-631.353a8.235 8.235 0 0 1 .612 2.809 8.664 8.664 0 0 1-.7 2.767c-.115.306-.247.6-.388.9a5.446 5.446 0 0 1-.3.67c2.918-2.869 2.187-5.799.776-7.146z" transform="translate(-531.954 634.088)" style="fill:url(#linear-gradient-15);mix-blend-mode:multiply;isolation:isolate"/>
            </g>
            <path id="패스_37864" data-name="패스 37864" class="cls-10" d="M535.595-626.825c.1-.01.3-.352.373-.446.137-.173.271-.351.4-.542a6.293 6.293 0 0 0 .913-2.019c.2-.833 0-1.817.106-2.66a1.839 1.839 0 0 1 .612-1.234.775.775 0 0 1 .829.042c1.243.952.325 4.748-3.233 6.859z" transform="translate(-511.072 654.87)"/>
            <path id="패스_37865" data-name="패스 37865" class="cls-10" d="M395.916-745.71s-.531.623-1.245 1.349-.917-.386 1.245-1.349z" transform="translate(-378.887 759.447)"/>
        </g>
        <g id="그룹_24624" data-name="그룹 24624" transform="translate(211.492 -953.382)">
            <path id="패스_37866" data-name="패스 37866" class="cls-10" d="M960.76-733.366v13.2h-1.792v-6.595h-1.075v6.007h-1.763v-3.828l-1.061 1.419a5.246 5.246 0 0 1-2.409-3.011 5.664 5.664 0 0 1-2.437 3.5l-1.133-1.426c1.964-1.147 2.6-3.484 2.6-6.021v-.359h-2.17v-1.534h5.98v1.534h-1.98v.359c0 2.308.659 4.5 2.609 5.52v-8.545h1.763v4.846h1.075v-5.061z" transform="translate(-948.609 733.314)"/>
            <path id="패스_37867" data-name="패스 37867" class="cls-10" d="M1195.677-726.152a26.654 26.654 0 0 1-6.05.43h-1.1v-6.351h5.907v1.505h-4.034v3.326a23.932 23.932 0 0 0 5.09-.4zm-3.885 4.5h7.1v1.505h-8.992v-4.43h1.892zm8.373-7.871v1.548h-1.749v4.4h-1.892v-9.548h1.892v3.6z" transform="translate(-1172.887 733.068)"/>
            <path id="패스_37868" data-name="패스 37868" class="cls-10" d="M1426.612-733.12v7.24h-1.893v-2.71h-2.351v2.323h-6.237v-6.179h1.878v1.663h2.509v-1.663h1.849v2.337h2.351v-3.011zm-1.878 7.8h1.878v5.233h-8.745v-5.233h1.864v1.176h5zm-4.215-4.014h-2.509v1.563h2.509zm4.215 6.638h-5v1.118h5z" transform="translate(-1415.651 750.006)"/>
            <path id="패스_37869" data-name="패스 37869" class="cls-10" d="M1639.95-725.347a3.408 3.408 0 0 1-3.6-3.341 3.4 3.4 0 0 1 3.6-3.355 3.389 3.389 0 0 1 3.584 3.355 3.4 3.4 0 0 1-3.584 3.341zm0-1.634a1.633 1.633 0 0 0 1.734-1.706 1.628 1.628 0 0 0-1.734-1.72 1.647 1.647 0 0 0-1.749 1.72 1.652 1.652 0 0 0 1.749 1.705zm7.512 5.563v1.505h-9.118v-4.416h1.893v2.91zm-.33-1.979h-1.907v-9.477h1.907z" transform="translate(-1620.715 749.76)"/>
        </g>
        <g id="그룹_24625" data-name="그룹 24625" transform="translate(243.973 -947)">
            <path id="패스_37870" data-name="패스 37870" class="cls-10" d="M1943.2-714.095v1.874h-15.321v-1.874h6.448v-.863c-2.847-.184-4.446-.974-4.446-2.388 0-1.6 2.039-2.407 5.658-2.407 3.637 0 5.676.808 5.676 2.407 0 1.414-1.6 2.2-4.464 2.388v.863zm-.808-6.117h-13.759v-1.819h5.695v-1.359h2.425v1.359h5.64zm-1.01 11.279c0 1.727-2.149 2.609-5.878 2.609-3.711 0-5.86-.882-5.86-2.609s2.149-2.627 5.86-2.627c3.731 0 5.88.9 5.88 2.627zm-2.48 0c0-.625-1.047-.882-3.4-.882s-3.4.257-3.4.882c0 .606 1.047.882 3.4.882s3.398-.276 3.398-.882zm-3.362-7.624c2.113 0 3.068-.239 3.068-.79s-.955-.772-3.068-.772c-2.094 0-3.068.22-3.068.772s.976.791 3.07.791z" transform="translate(-1927.882 723.39)"/>
            <path id="패스_37871" data-name="패스 37871" class="cls-10" d="M2170.281-699.426h-6.481v5.676h-2.425v-5.676H2155v-1.929h15.284zm-14.567-4.794c3.454-.423 5.254-2.076 5.493-3.692h-4.868v-1.929h12.547v1.929h-4.795c.239 1.617 2.021 3.27 5.456 3.692l-.864 1.892c-2.958-.4-5.033-1.672-6.044-3.4-1.01 1.727-3.086 2.994-6.044 3.4z" transform="translate(-2138.06 710.852)"/>
            <path id="패스_37872" data-name="패스 37872" class="cls-10" d="M2396.449-704.171v1.91h-6.227v2.884h-2.422v-2.884h-6.668v-1.91zm-11.114 6.338h9.424v1.929h-11.849v-4.9h2.425zm9.167-7.679h-11.481v-6.3h11.479zm-2.388-4.409h-6.705v2.5h6.705z" transform="translate(-2347.329 712.676)"/>
            <path id="패스_37873" data-name="패스 37873" class="cls-10" d="M2612.056-709.406c1.3-.073 2.609-.165 3.821-.349l.184 1.745a53.99 53.99 0 0 1-10.232.7l-.294-1.966c1.212 0 2.609 0 4.1-.037v-1.433a3.216 3.216 0 0 1-2.921-3.049c0-1.91 1.709-3.2 4.133-3.2s4.133 1.286 4.133 3.2a3.216 3.216 0 0 1-2.921 3.049zm3.748-8.248h-9.957v-1.911h3.784v-1.782h2.425v1.782h3.748zm-4.96 5.217c1.1 0 1.837-.478 1.837-1.359s-.735-1.359-1.837-1.359-1.837.478-1.837 1.359.735 1.359 1.837 1.359zm10.434-.092h-2.113v8.028h-2.425v-16.919h2.425v6.889h2.113z" transform="translate(-2555 721.567)"/>
            <path id="패스_37874" data-name="패스 37874" class="cls-10" d="M2841.962-711.985a61.414 61.414 0 0 1-10.324.735l-.22-1.929c.937 0 1.984 0 3.086-.018v-3.288h2.369v3.2c1.672-.074 3.362-.2 4.942-.423zm-3.637-2.682a23.981 23.981 0 0 0 .367-3.821h-6.3v-1.929h8.689v1.047a26.234 26.234 0 0 1-.385 4.978zm-2.021 7.715h9.387v1.929h-11.812v-5.089h2.425zm10.875-9.552v2h-2.021v5.511h-2.425v-12.675h2.425v5.162z" transform="translate(-2764.038 721.795)"/>
            <path id="패스_37875" data-name="패스 37875" class="cls-10" d="M3068.587-712.455a65.864 65.864 0 0 1-10.306.643l-.239-1.929c.955 0 2 0 3.086-.018v-2.958h2.37v2.9c1.672-.073 3.362-.184 4.942-.367zm-3.619-2.682a20.574 20.574 0 0 0 .349-3.435h-6.282v-1.928h8.67v1.1a20.327 20.327 0 0 1-.386 4.445zm6.962 7.422c0 2-2.26 3.2-5.842 3.2-3.619 0-5.878-1.194-5.878-3.2s2.26-3.2 5.878-3.2c3.582.003 5.842 1.197 5.842 3.199zm-2.48 0c0-.9-1.194-1.323-3.362-1.323-2.2 0-3.4.423-3.4 1.323s1.194 1.3 3.4 1.3c2.168.003 3.362-.401 3.362-1.301zm4.372-9.552v2h-2.039v4.17h-2.425v-10.323h2.425v4.152z" transform="translate(-2973.762 721.567)"/>
            <path id="패스_37876" data-name="패스 37876" class="cls-10" d="M3298.632-721.666v16.919h-2.3v-8.45h-1.378v7.7h-2.26v-4.9l-1.359 1.819a6.723 6.723 0 0 1-3.086-3.858 7.259 7.259 0 0 1-3.123 4.482l-1.451-1.837c2.517-1.47 3.325-4.464 3.325-7.715v-.459h-2.774v-1.966h7.66v1.966h-2.535v.459c0 2.957.845 5.768 3.343 7.072v-10.949h2.26v6.209h1.378v-6.485z" transform="translate(-3182.573 721.795)"/>
            <path id="패스_37877" data-name="패스 37877" class="cls-10" d="M3532.279-712.492a34.161 34.161 0 0 1-7.752.551h-1.415v-8.138h7.568v1.929h-5.162v4.262a30.658 30.658 0 0 0 6.522-.514zm-4.978 5.768h9.093v1.929h-11.518v-5.676h2.425zm10.728-10.085v1.984h-2.241v5.64h-2.425v-12.235h2.425v4.611z" transform="translate(-3404.15 721.567)"/>
        </g>
    </g>
</svg>
