<svg xmlns="http://www.w3.org/2000/svg" xmlns:xlink="http://www.w3.org/1999/xlink" width="246.608" height="40" viewBox="0 0 246.608 40">
    <defs>
        <linearGradient id="linear-gradient" x1="-.023" y1=".32" x2=".819" y2="1.012" gradientUnits="objectBoundingBox">
            <stop offset=".006" stop-color="#ae0417"/>
            <stop offset=".088" stop-color="#be0b12"/>
            <stop offset=".182" stop-color="#ca100f"/>
            <stop offset=".281" stop-color="#ce120f"/>
            <stop offset="1" stop-color="#fcb400"/>
        </linearGradient>
        <linearGradient id="linear-gradient-2" x1="-42.077" y1="-1.61" x2="-37.794" y2="-1.61" gradientUnits="objectBoundingBox">
            <stop offset="0" stop-color="#c51611"/>
            <stop offset="1" stop-color="#fcb400"/>
        </linearGradient>
        <linearGradient id="linear-gradient-3" x1=".501" y1=".173" x2=".533" y2=".671" gradientUnits="objectBoundingBox">
            <stop offset=".006" stop-color="#d00010"/>
            <stop offset=".152" stop-color="#da000f"/>
            <stop offset="1" stop-color="#fcb400"/>
        </linearGradient>
        <linearGradient id="linear-gradient-4" x1="-5.587" y1=".5" x2="1.723" y2=".5" gradientUnits="objectBoundingBox">
            <stop offset="0" stop-color="#ce120f"/>
            <stop offset="1" stop-color="#fcb400"/>
        </linearGradient>
        <linearGradient id="linear-gradient-5" x1=".285" y1=".179" x2=".575" y2=".751" gradientUnits="objectBoundingBox">
            <stop offset=".006" stop-color="#bc0012"/>
            <stop offset=".135" stop-color="#ce120f"/>
            <stop offset="1" stop-color="#e89e00"/>
        </linearGradient>
        <linearGradient id="linear-gradient-6" x1="46.345" y1="79.239" x2="47.274" y2="79.239" gradientUnits="objectBoundingBox">
            <stop offset=".006" stop-color="#a50013"/>
            <stop offset=".281" stop-color="#ce120f"/>
            <stop offset="1" stop-color="#e89e00"/>
        </linearGradient>
        <linearGradient id="linear-gradient-7" x1=".421" y1=".84" x2=".764" y2=".024" gradientUnits="objectBoundingBox">
            <stop offset=".006" stop-color="#001b65"/>
            <stop offset=".335" stop-color="#011d67"/>
            <stop offset=".53" stop-color="#06256f"/>
            <stop offset=".69" stop-color="#0e347d"/>
            <stop offset=".831" stop-color="#194891"/>
            <stop offset=".959" stop-color="#2861aa"/>
            <stop offset="1" stop-color="#2e6cb4"/>
        </linearGradient>
        <linearGradient id="linear-gradient-8" x1="-25.915" y1="-3.515" x2="-23.972" y2="-3.515" gradientUnits="objectBoundingBox">
            <stop offset="0" stop-color="#3cb4ec"/>
            <stop offset=".5" stop-color="#008cd1"/>
            <stop offset="1" stop-color="#0076c0"/>
        </linearGradient>
        <linearGradient id="linear-gradient-9" y1=".5" x2="1" y2=".5" gradientUnits="objectBoundingBox">
            <stop offset="0" stop-color="#3cb4ec"/>
            <stop offset=".5" stop-color="#008cd1"/>
            <stop offset="1" stop-color="#004597"/>
        </linearGradient>
        <linearGradient id="linear-gradient-10" x1=".505" y1=".549" x2=".525" y2=".033" xlink:href="#linear-gradient-7"/>
        <linearGradient id="linear-gradient-11" x1="-25.887" y1="-9.572" x2="-23.008" y2="-9.572" xlink:href="#linear-gradient-8"/>
        <linearGradient id="linear-gradient-12" x1="-26.681" y1="-9.572" x2="-23.801" y2="-9.572" xlink:href="#linear-gradient-9"/>
        <linearGradient id="linear-gradient-13" x1=".402" y1=".547" x2=".008" y2=".209" xlink:href="#linear-gradient-7"/>
        <linearGradient id="linear-gradient-14" x1="23.056" y1="-6.321" x2="29.084" y2="-6.321" xlink:href="#linear-gradient-8"/>
        <linearGradient id="linear-gradient-15" x1="21.395" y1="-6.321" x2="27.424" y2="-6.321" xlink:href="#linear-gradient-9"/>
        <style>
            .cls-10{fill:#fff}.cls-17{fill:#1a1311}
        </style>
    </defs>
    <g id="그룹_24626" data-name="그룹 24626" transform="translate(-159.973 956.119)">
        <g id="그룹_24623" data-name="그룹 24623" transform="translate(159.973 -956.119)">
            <g id="그룹_24619" data-name="그룹 24619" transform="translate(20.589 18.226)">
                <path id="패스_37847" data-name="패스 37847" d="M471.165-693.541s-29.9 13.358-32.014-15.936a23.355 23.355 0 0 0 4.388 19.422c5.925 3.355 14.72 3.87 27.626-3.486z" transform="translate(-438.594 709.477)" style="fill:url(#linear-gradient)"/>
            </g>
            <path id="패스_37848" data-name="패스 37848" d="m436.6-755.461.024.012c-4.695-6.12-7.015-14.857-2.77-24.616l-.034.029c-4.22 9.736-1.906 18.462 2.78 24.575z" transform="translate(-411.534 793.075)" style="fill:url(#linear-gradient-2)"/>
            <path id="패스_37849" data-name="패스 37849" d="m182.259-846.995.034-.029q.175-.4.366-.807a34.712 34.712 0 0 1 2.578-4.536 28.521 28.521 0 0 1-4.159 4.557 28.332 28.332 0 0 1-6.935 4.627c-3.729 1.7-7.871 2.347-11.827.674q-1.221-.517-2.342-1.121c8.016 4.77 13.757 3.049 13.757 3.049v.005c-.017 3.744 2.063 8.5 6.168 13.22a39.834 39.834 0 0 0 4.1 4.064c-10.058-14.347-4.577-21.348-1.74-23.703z" transform="translate(-159.973 860.033)" style="fill:url(#linear-gradient-3)"/>
            <path id="패스_37850" data-name="패스 37850" d="m410.537-759.954-1.143-1.812c-4.249-9.265-.924-16.059 1.278-17.913-2.837 2.355-8.317 9.356 1.744 23.7q.5.431 1.015.844a24.89 24.89 0 0 1-2.894-4.819z" transform="translate(-388.386 792.718)" style="fill:url(#linear-gradient-4)"/>
            <path id="패스_37851" data-name="패스 37851" d="M410.537-759.954a23.716 23.716 0 0 1 .135-19.726c-2.837 2.355-8.317 9.356 1.744 23.7q.5.431 1.015.844a24.89 24.89 0 0 1-2.894-4.818z" transform="translate(-388.386 792.718)" style="fill:url(#linear-gradient-5)"/>
            <path id="패스_37852" data-name="패스 37852" d="M514.863-955.2a1.529 1.529 0 0 0-.136.074l-.065.041-.063.042a3.308 3.308 0 0 0-.238.181 4.279 4.279 0 0 0-.425.409 4.671 4.671 0 0 0-.37.459q-.086.121-.162.251c-.025.043-.05.087-.073.133s-.041.082-.059.125l-.012-.012a1.077 1.077 0 0 0-.694-.29c.013-.042.024-.083.033-.124s.022-.1.031-.149q.026-.148.04-.3a4.694 4.694 0 0 0 .016-.59 4.25 4.25 0 0 0-.058-.587c-.017-.1-.038-.2-.064-.292l-.021-.073c-.008-.024-.014-.048-.023-.073a1.475 1.475 0 0 0-.055-.145h-.018a1.447 1.447 0 0 0-.044.149c-.007.025-.011.049-.017.074l-.015.074c-.018.1-.031.2-.04.3a4.27 4.27 0 0 0-.011.59 4.726 4.726 0 0 0 .063.587q.025.146.063.292c.013.049.026.1.042.146s.026.079.042.119a1.092 1.092 0 0 0-.391.069 1.067 1.067 0 0 0-.333.2 3.053 3.053 0 0 0-.132-.209q-.087-.124-.182-.237a4.688 4.688 0 0 0-.406-.428 4.266 4.266 0 0 0-.456-.374 3.267 3.267 0 0 0-.252-.161l-.066-.037-.068-.035a1.42 1.42 0 0 0-.142-.063l-.012.013a1.447 1.447 0 0 0 .074.136l.04.065.042.063c.057.083.118.162.181.238a4.278 4.278 0 0 0 .409.425 4.653 4.653 0 0 0 .459.37q.121.086.251.162a2.4 2.4 0 0 0 .133.073l.082.04a1.082 1.082 0 0 0-.229.327 1.068 1.068 0 0 0-.092.38l-.062-.016a2.043 2.043 0 0 0-.148-.03q-.148-.026-.3-.04a4.718 4.718 0 0 0-.59-.016 4.243 4.243 0 0 0-.587.058 3.16 3.16 0 0 0-.292.064l-.073.021-.073.023a1.407 1.407 0 0 0-.145.056v.018a1.391 1.391 0 0 0 .149.044l.074.017.074.015c.1.018.2.031.3.04a4.269 4.269 0 0 0 .59.011 4.687 4.687 0 0 0 .587-.063q.146-.025.292-.063c.049-.013.1-.027.146-.042l.056-.019a1.088 1.088 0 0 0 .086.406 1.089 1.089 0 0 0 .207.316l-.045.027a3.482 3.482 0 0 0-.127.084q-.123.086-.237.181a4.643 4.643 0 0 0-.428.406 4.212 4.212 0 0 0-.374.456 3.389 3.389 0 0 0-.162.252l-.037.066-.035.068a1.474 1.474 0 0 0-.063.142l.013.012a1.408 1.408 0 0 0 .137-.074l.065-.04.063-.042c.083-.057.162-.118.238-.181a4.283 4.283 0 0 0 .425-.409 4.654 4.654 0 0 0 .37-.459q.086-.121.162-.251c.025-.044.05-.087.073-.133l.022-.044a1.092 1.092 0 0 0 .375.225 1.09 1.09 0 0 0 .349.06l-.015.059c-.012.05-.022.1-.03.148q-.026.149-.04.3a4.682 4.682 0 0 0-.016.59 4.266 4.266 0 0 0 .058.587c.017.1.038.2.064.292l.021.073c.008.024.014.049.023.073a1.406 1.406 0 0 0 .056.145h.018a1.447 1.447 0 0 0 .044-.149l.017-.074.015-.074c.018-.1.031-.2.04-.3a4.26 4.26 0 0 0 .011-.59 4.721 4.721 0 0 0-.063-.587q-.025-.146-.063-.292c-.013-.048-.026-.1-.042-.146l-.019-.057h.013a1.074 1.074 0 0 0 .421-.122 1.074 1.074 0 0 0 .269-.2l.046.079c.027.043.055.085.084.127q.086.124.181.237a4.673 4.673 0 0 0 .406.428 4.261 4.261 0 0 0 .456.374c.081.057.165.111.252.161l.066.037.068.035a1.48 1.48 0 0 0 .142.063l.012-.013a1.375 1.375 0 0 0-.074-.136l-.04-.065-.042-.063a3.308 3.308 0 0 0-.181-.238 4.274 4.274 0 0 0-.409-.425 4.694 4.694 0 0 0-.459-.37q-.121-.085-.251-.162a2.4 2.4 0 0 0-.133-.073l-.083-.04.021-.024a1.069 1.069 0 0 0 .2-.368 1.087 1.087 0 0 0 .046-.332c.041.013.081.023.121.033s.1.022.149.03q.148.026.3.04a4.686 4.686 0 0 0 .59.016 4.24 4.24 0 0 0 .587-.058c.1-.017.195-.038.292-.064l.073-.021.073-.023a1.422 1.422 0 0 0 .145-.055v-.018a1.454 1.454 0 0 0-.149-.044l-.074-.017-.074-.015c-.1-.018-.2-.031-.3-.04a4.241 4.241 0 0 0-.59-.011 4.673 4.673 0 0 0-.587.063q-.146.025-.292.063c-.049.013-.1.026-.146.042s-.079.026-.118.042v-.034a1.08 1.08 0 0 0-.305-.669c.042-.021.082-.045.121-.069s.085-.055.127-.083q.123-.086.238-.181a4.677 4.677 0 0 0 .428-.406 4.269 4.269 0 0 0 .374-.456c.057-.081.111-.164.161-.252l.037-.066.035-.068a1.444 1.444 0 0 0 .063-.142zm-1.39 2.03a.928.928 0 0 1 .072.376.912.912 0 0 1-.084.367.922.922 0 0 1-.217.295.906.906 0 0 1-.3.183.933.933 0 0 1-.34.055.92.92 0 0 1-.608-.249.92.92 0 0 1-.288-.59.933.933 0 0 1 .033-.343.91.91 0 0 1 .163-.315.923.923 0 0 1 .28-.236.919.919 0 0 1 .361-.108.925.925 0 0 1 .38.048.93.93 0 0 1 .331.2l.015.015.013.012a.934.934 0 0 1 .189.286z" transform="translate(-483.37 956.119)" style="fill:url(#linear-gradient-6)"/>
            <g id="그룹_24620" data-name="그룹 24620" transform="translate(27.714 21.075)">
                <path id="패스_37853" data-name="패스 37853" d="M558.239-669.322a3.264 3.264 0 0 0-2.511-1.6c-1.744-.026-3.375 1.451-4.332 2.745q-.21.284-.414.568c-.633 4.859-5.483 10.69-15.612 9.055a.806.806 0 0 1-.358-.042c20.358 9.253 26.67-5.677 23.227-10.726z" transform="translate(-535.012 670.922)" style="fill:url(#linear-gradient-7)"/>
                <path id="패스_37854" data-name="패스 37854" d="M555.467-626.084c-1.44 2-2.724 3.988-4.781 5.409a21.768 21.768 0 0 1-6.639 2.7c-.79.222-1.59.4-2.4.549a13.673 13.673 0 0 1-1.8.4c10.137 1.632 14.987-4.199 15.62-9.058z" transform="translate(-539.497 629.397)" style="fill:url(#linear-gradient-8);mix-blend-mode:multiply;isolation:isolate"/>
                <path id="패스_37855" data-name="패스 37855" d="M555.467-626.084c-1.44 2-2.724 3.988-4.781 5.409a21.768 21.768 0 0 1-6.639 2.7c-.79.222-1.59.4-2.4.549a13.673 13.673 0 0 1-1.8.4c10.137 1.632 14.987-4.199 15.62-9.058z" transform="translate(-539.497 629.397)" style="fill:url(#linear-gradient-9);mix-blend-mode:multiply;isolation:isolate"/>
            </g>
            <path id="패스_37856" data-name="패스 37856" class="cls-10" d="M552.8-572.206c.17.19 1.158.082 1.458.094.555.021 1.114.028 1.689 0a15.8 15.8 0 0 0 5.446-1.147c1.978-.84 3.674-2.7 5.546-3.734a4.617 4.617 0 0 1 3.409-.592 1.947 1.947 0 0 1 1.146 1.742c-.084 3.932-8.506 8.313-18.694 3.637z" transform="translate(-523.77 605.669)"/>
            <g id="그룹_24621" data-name="그룹 24621" transform="translate(27.363 19.055)">
                <path id="패스_37857" data-name="패스 37857" d="M541.179-697.876a2.21 2.21 0 0 0-2-.223 4.058 4.058 0 0 0-1.815 2.959q-.043.235-.082.469c1.063 3.142-.147 8.131-6.79 10.156a.544.544 0 0 1-.23.081c15.128-.443 14.515-11.399 10.917-13.442z" transform="translate(-530.259 698.253)" style="fill:url(#linear-gradient-10)"/>
                <path id="패스_37858" data-name="패스 37858" d="M540.163-649.777a14 14 0 0 1-1.294 4.713 14.731 14.731 0 0 1-3.231 3.619c-.414.37-.848.714-1.293 1.048a9.25 9.25 0 0 1-.973.776c6.645-2.025 7.855-7.014 6.791-10.156z" transform="translate(-533.143 653.359)" style="fill:url(#linear-gradient-11);mix-blend-mode:multiply;isolation:isolate"/>
                <path id="패스_37859" data-name="패스 37859" d="M540.163-649.777a14 14 0 0 1-1.294 4.713 14.731 14.731 0 0 1-3.231 3.619c-.414.37-.848.714-1.293 1.048a9.25 9.25 0 0 1-.973.776c6.645-2.025 7.855-7.014 6.791-10.156z" transform="translate(-533.143 653.359)" style="fill:url(#linear-gradient-12);mix-blend-mode:multiply;isolation:isolate"/>
            </g>
            <path id="패스_37860" data-name="패스 37860" class="cls-10" d="M541.317-622.7c.16.065.728-.3.914-.378.344-.152.686-.315 1.026-.5a10.7 10.7 0 0 0 2.968-2.32c.952-1.1 1.427-2.739 2.258-3.922a3.126 3.126 0 0 1 1.9-1.376 1.317 1.317 0 0 1 1.216.717c1.118 2.416-3.052 7.504-10.282 7.779z" transform="translate(-513.137 655.216)"/>
            <g id="그룹_24622" data-name="그룹 24622" transform="translate(27.385 20.903)">
                <path id="패스_37861" data-name="패스 37861" d="M532.844-673.247a1.471 1.471 0 0 0-1.25.487 2.7 2.7 0 0 0-.156 2.306q.047.152.1.3c1.6 1.525 2.425 4.841-.868 8.087a.363.363 0 0 1-.111.119c8.783-4.934 5.041-11.206 2.285-11.299z" transform="translate(-530.555 673.249)" style="fill:url(#linear-gradient-13)"/>
                <path id="패스_37862" data-name="패스 37862" d="M532.92-631.353a9.321 9.321 0 0 1 .693 3.179 9.809 9.809 0 0 1-.788 3.132c-.13.346-.28.683-.439 1.017a6.171 6.171 0 0 1-.334.758c3.293-3.245 2.465-6.561.868-8.086z" transform="translate(-531.941 634.449)" style="fill:url(#linear-gradient-14);mix-blend-mode:multiply;isolation:isolate"/>
                <path id="패스_37863" data-name="패스 37863" d="M532.92-631.353a9.321 9.321 0 0 1 .693 3.179 9.809 9.809 0 0 1-.788 3.132c-.13.346-.28.683-.439 1.017a6.171 6.171 0 0 1-.334.758c3.293-3.245 2.465-6.561.868-8.086z" transform="translate(-531.941 634.449)" style="fill:url(#linear-gradient-15);mix-blend-mode:multiply;isolation:isolate"/>
            </g>
            <path id="패스_37864" data-name="패스 37864" class="cls-10" d="M535.595-625.9c.115-.011.338-.4.423-.505.155-.2.307-.4.45-.614a7.124 7.124 0 0 0 1.034-2.285c.222-.943 0-2.056.12-3.011a2.082 2.082 0 0 1 .693-1.4.878.878 0 0 1 .939.047c1.407 1.08.369 5.377-3.659 7.768z" transform="translate(-507.838 657.644)"/>
            <path id="패스_37865" data-name="패스 37865" class="cls-10" d="M396.145-745.71s-.6.705-1.409 1.527-1.036-.437 1.409-1.527z" transform="translate(-376.871 761.258)"/>
        </g>
        <g id="그룹_24624" data-name="그룹 24624" transform="translate(218.83 -953.08)">
            <path id="패스_37866" data-name="패스 37866" class="cls-17" d="M962.3-733.366v14.945h-2.028v-7.465h-1.217v6.8h-2v-4.333l-1.2 1.606a5.938 5.938 0 0 1-2.726-3.408 6.411 6.411 0 0 1-2.759 3.96l-1.282-1.623c2.223-1.3 2.937-3.943 2.937-6.815v-.406h-2.45v-1.736h6.767v1.736H954.1v.406c0 2.613.746 5.1 2.953 6.247v-9.672h2v5.485h1.217v-5.728z" transform="translate(-949.09 733.366)"/>
            <path id="패스_37867" data-name="패스 37867" class="cls-17" d="M1196.62-725.233a30.167 30.167 0 0 1-6.848.487h-1.25v-7.189h6.686v1.7h-4.56v3.765a27.085 27.085 0 0 0 5.761-.454zm-4.4 5.1h8.033v1.7h-10.175v-5.014h2.142zm9.477-8.909v1.753h-1.979v4.982h-2.142v-10.813h2.142v4.073z" transform="translate(-1171.37 733.12)"/>
            <path id="패스_37868" data-name="패스 37868" class="cls-17" d="M1427.994-733.12v8.195h-2.142v-3.067h-2.661v2.629h-7.059v-6.994h2.126v1.882h2.84v-1.882h2.093v2.645h2.661v-3.408zm-2.126 8.828h2.126v5.923h-9.9v-5.923h2.109v1.331h5.663zm-4.771-4.544h-2.84v1.769h2.84zm4.771 7.513h-5.668v1.266h5.663z" transform="translate(-1416.132 752.291)"/>
            <path id="패스_37869" data-name="패스 37869" class="cls-17" d="M1640.424-724.354a3.857 3.857 0 0 1-4.073-3.781 3.85 3.85 0 0 1 4.073-3.8 3.836 3.836 0 0 1 4.057 3.8 3.843 3.843 0 0 1-4.057 3.781zm0-1.85a1.848 1.848 0 0 0 1.963-1.931 1.843 1.843 0 0 0-1.963-1.947 1.864 1.864 0 0 0-1.98 1.947 1.869 1.869 0 0 0 1.98 1.935zm8.5 6.3v1.7h-10.321v-5h2.142v3.294zm-.373-2.239h-2.151v-10.726h2.158z" transform="translate(-1619.198 752.045)"/>
        </g>
        <g id="그룹_24625" data-name="그룹 24625" transform="translate(255.05 -945.798)">
            <path id="패스_37870" data-name="패스 37870" class="cls-17" d="M1945.223-712.869v2.121h-17.341v-2.121h7.3v-.977c-3.223-.208-5.032-1.1-5.032-2.7 0-1.809 2.308-2.724 6.4-2.724 4.117 0 6.425.915 6.425 2.724 0 1.6-1.809 2.5-5.052 2.7v.977zm-.915-6.924h-15.573v-2.058h6.446v-1.539h2.745v1.539h6.383zm-1.143 12.766c0 1.954-2.433 2.953-6.654 2.953-4.2 0-6.633-1-6.633-2.953s2.433-2.973 6.633-2.973c4.221 0 6.654 1.019 6.654 2.974zm-2.807 0c0-.707-1.185-1-3.846-1s-3.847.291-3.847 1c0 .686 1.185 1 3.847 1s3.845-.313 3.845-.999zm-3.8-8.629c2.391 0 3.472-.27 3.472-.894s-1.081-.873-3.472-.873c-2.37 0-3.473.25-3.473.873s1.097.895 3.467.895z" transform="translate(-1927.882 723.39)"/>
            <path id="패스_37871" data-name="패스 37871" class="cls-17" d="M2172.3-698.053h-7.34v6.425h-2.745v-6.425H2155v-2.183h17.3zm-16.488-5.427c3.909-.478 5.947-2.35 6.217-4.179h-5.51v-2.183h14.2v2.183h-5.427c.27 1.83 2.287 3.7 6.175 4.179l-.977 2.142c-3.348-.457-5.7-1.892-6.841-3.847-1.144 1.955-3.493 3.389-6.841 3.847z" transform="translate(-2135.827 710.986)"/>
            <path id="패스_37872" data-name="패스 37872" class="cls-17" d="M2398.469-703.163V-701h-7.048v3.264h-2.745V-701h-7.547v-2.162zm-12.58 7.173h10.667v2.183h-13.411v-5.552h2.744zm10.375-8.691h-12.995v-7.132h12.995zm-2.7-4.99h-7.59v2.828h7.59z" transform="translate(-2342.872 712.79)"/>
            <path id="패스_37873" data-name="패스 37873" class="cls-17" d="M2612.916-707.822c1.477-.083 2.952-.187 4.325-.4l.208 1.975a61.105 61.105 0 0 1-11.581.79l-.333-2.225c1.373 0 2.953 0 4.636-.042v-1.622c-2-.4-3.306-1.705-3.306-3.452 0-2.162 1.934-3.618 4.678-3.618s4.678 1.455 4.678 3.618c0 1.747-1.31 3.056-3.306 3.452zm4.241-9.336h-11.269v-2.162h4.283v-2.017h2.745v2.017h4.241zm-5.614 5.9c1.247 0 2.079-.541 2.079-1.539s-.832-1.539-2.079-1.539-2.079.541-2.079 1.539.836 1.544 2.08 1.544zm11.81-.1h-2.391v9.086h-2.745v-19.15h2.745v7.8h2.391z" transform="translate(-2548.336 721.586)"/>
            <path id="패스_37874" data-name="패스 37874" class="cls-17" d="M2843.352-710.708a69.506 69.506 0 0 1-11.686.832l-.249-2.183c1.06 0 2.246 0 3.493-.021v-3.72h2.682v3.618c1.892-.083 3.805-.229 5.593-.478zm-4.117-3.036a27.158 27.158 0 0 0 .416-4.325h-7.132v-2.183h9.834v1.185a29.714 29.714 0 0 1-.436 5.635zm-2.287 8.733h10.625v2.183H2834.2v-5.76h2.745zm12.309-10.812v2.266h-2.287v6.238h-2.745v-14.347h2.745v5.843z" transform="translate(-2755.153 721.812)"/>
            <path id="패스_37875" data-name="패스 37875" class="cls-17" d="M3069.977-711.273a74.552 74.552 0 0 1-11.665.728l-.27-2.183c1.081 0 2.266 0 3.493-.021v-3.351h2.682v3.285c1.892-.083 3.805-.208 5.593-.416zm-4.1-3.036a23.284 23.284 0 0 0 .395-3.888h-7.111v-2.183h9.814v1.248a23.024 23.024 0 0 1-.436 5.032zm7.88 8.4c0 2.266-2.557 3.618-6.612 3.618-4.1 0-6.653-1.352-6.653-3.618s2.558-3.618 6.653-3.618c4.055 0 6.616 1.352 6.616 3.618zm-2.807 0c0-1.019-1.352-1.5-3.805-1.5-2.495 0-3.846.478-3.846 1.5s1.352 1.476 3.846 1.476c2.455 0 3.809-.457 3.809-1.476zm4.949-10.812v2.266h-2.308v4.72h-2.745v-11.685h2.745v4.7z" transform="translate(-2962.649 721.586)"/>
            <path id="패스_37876" data-name="패스 37876" class="cls-17" d="M3300.6-721.666v19.15h-2.6v-9.565h-1.56v8.712h-2.558v-5.552l-1.539 2.058a7.609 7.609 0 0 1-3.493-4.367 8.216 8.216 0 0 1-3.535 5.073l-1.643-2.079c2.848-1.663 3.764-5.053 3.764-8.733v-.52h-3.14v-2.225h8.67v2.225h-2.866v.52c0 3.347.956 6.529 3.784 8.005v-12.392h2.558v7.028h1.56v-7.34z" transform="translate(-3169.241 721.812)"/>
            <path id="패스_37877" data-name="패스 37877" class="cls-17" d="M3533.487-711.315a38.663 38.663 0 0 1-8.774.624h-1.6v-9.209h8.567v2.183h-5.843v4.824a34.705 34.705 0 0 0 7.382-.582zm-5.635 6.529h10.292v2.183h-13.037v-6.425h2.745zm12.142-11.415v2.246h-2.537v6.383h-2.744v-13.848h2.744v5.219z" transform="translate(-3388.463 721.586)"/>
        </g>
    </g>
</svg>
